M48
;DRILL file {KiCad 4.0.7-e2-6376~61~ubuntu18.04.1} date Thu Jul 26 12:06:57 2018
;FORMAT={-:-/ absolute / metric / decimal}
FMAT,2
METRIC,TZ
T1C0.500
T2C0.500
T3C0.800
T4C1.000
T5C1.070
T6C1.320
%
G90
G05
M71
T1
X-125.959Y-72.39
X-124.259Y-72.39
T2
X-167.64Y-59.563
X-160.02Y-61.976
X-151.13Y-64.516
X-151.13Y-67.056
X-151.13Y-69.596
X-151.13Y-72.136
X-151.13Y-74.676
X-151.13Y-77.216
X-151.13Y-79.756
X-151.13Y-82.296
X-151.13Y-84.836
X-151.13Y-87.376
X-151.13Y-89.916
X-151.13Y-92.456
X-151.13Y-94.996
X-151.13Y-97.536
X-151.003Y-104.013
X-145.212Y-88.773
X-137.287Y-64.77
X-136.652Y-104.013
X-135.128Y-78.275
X-134.366Y-75.692
X-134.366Y-77.47
X-134.366Y-80.264
X-133.604Y-64.897
X-130.81Y-89.23
X-127.254Y-79.502
X-127.Y-75.692
X-126.746Y-81.788
X-126.206Y-80.296
X-119.151Y-94.361
X-118.974Y-80.975
X-116.815Y-102.972
X-116.713Y-89.865
X-114.706Y-74.346
X-112.928Y-97.942
X-110.744Y-69.342
X-108.89Y-87.173
X-107.264Y-75.926
X-106.274Y-78.334
X-102.54Y-74.574
X-102.54Y-85.7
X-101.625Y-79.781
X-99.339Y-96.799
X-97.028Y-64.008
X-94.742Y-100.813
X-92.583Y-85.344
X-89.51Y-103.886
T3
X-107.801Y-92.456
X-102.921Y-92.456
T4
X-167.64Y-61.976
X-167.64Y-64.516
X-167.64Y-67.056
X-167.64Y-69.596
X-167.64Y-72.136
X-167.64Y-74.676
X-167.64Y-77.216
X-167.64Y-79.756
X-167.64Y-82.296
X-167.64Y-84.836
X-167.64Y-87.376
X-167.64Y-89.916
X-167.64Y-92.456
X-167.64Y-94.996
X-167.64Y-97.536
X-167.64Y-100.076
X-135.128Y-59.944
X-132.588Y-59.944
X-132.08Y-103.124
X-130.048Y-59.944
X-129.54Y-103.124
X-127.508Y-59.944
X-127.Y-103.124
X-124.968Y-59.944
X-124.46Y-103.124
X-122.428Y-59.944
X-121.92Y-103.124
X-119.38Y-103.124
X-117.348Y-59.944
X-114.808Y-59.944
X-114.3Y-103.124
X-112.268Y-59.944
X-111.76Y-103.124
X-109.728Y-59.944
X-109.22Y-103.124
X-107.188Y-59.944
X-106.68Y-103.124
X-104.14Y-103.124
X-102.997Y-59.944
X-101.6Y-103.124
X-100.457Y-59.944
T5
X-92.938Y-73.267
X-92.938Y-78.117
T6
X-89.938Y-72.967
X-89.938Y-78.417
T0
M30
