G04 #@! TF.FileFunction,Copper,L2,Bot,Signal*
%FSLAX46Y46*%
G04 Gerber Fmt 4.6, Leading zero omitted, Abs format (unit mm)*
G04 Created by KiCad (PCBNEW 4.0.7-e2-6376~61~ubuntu18.04.1) date Thu Jul 26 12:06:53 2018*
%MOMM*%
%LPD*%
G01*
G04 APERTURE LIST*
%ADD10C,0.100000*%
%ADD11C,0.300000*%
%ADD12C,1.500000*%
%ADD13R,1.700000X1.700000*%
%ADD14O,1.700000X1.700000*%
%ADD15R,1.250000X1.500000*%
%ADD16C,1.000000*%
%ADD17R,1.200000X0.900000*%
%ADD18O,1.500000X1.100000*%
%ADD19C,1.700000*%
%ADD20C,0.790000*%
%ADD21C,0.508000*%
%ADD22C,0.254000*%
%ADD23C,0.406400*%
%ADD24C,0.304800*%
%ADD25C,0.812800*%
%ADD26C,0.457200*%
G04 APERTURE END LIST*
D10*
D11*
X-91459857Y-59836857D02*
X-91245571Y-59908286D01*
X-91174143Y-59979714D01*
X-91102714Y-60122571D01*
X-91102714Y-60336857D01*
X-91174143Y-60479714D01*
X-91245571Y-60551143D01*
X-91388429Y-60622571D01*
X-91959857Y-60622571D01*
X-91959857Y-59122571D01*
X-91459857Y-59122571D01*
X-91317000Y-59194000D01*
X-91245571Y-59265429D01*
X-91174143Y-59408286D01*
X-91174143Y-59551143D01*
X-91245571Y-59694000D01*
X-91317000Y-59765429D01*
X-91459857Y-59836857D01*
X-91959857Y-59836857D01*
D12*
X-102920800Y-92456000D03*
X-107800800Y-92456000D03*
D13*
X-167640000Y-61976000D03*
D14*
X-167640000Y-64516000D03*
X-167640000Y-67056000D03*
X-167640000Y-69596000D03*
X-167640000Y-72136000D03*
X-167640000Y-74676000D03*
X-167640000Y-77216000D03*
X-167640000Y-79756000D03*
X-167640000Y-82296000D03*
X-167640000Y-84836000D03*
X-167640000Y-87376000D03*
X-167640000Y-89916000D03*
X-167640000Y-92456000D03*
X-167640000Y-94996000D03*
X-167640000Y-97536000D03*
X-167640000Y-100076000D03*
D15*
X-106400600Y-90658000D03*
X-106400600Y-88158000D03*
D16*
X-125958600Y-72390000D03*
X-124258600Y-72390000D03*
D15*
X-104343200Y-90658000D03*
X-104343200Y-88158000D03*
D17*
X-122725000Y-81915000D03*
X-124925000Y-81915000D03*
D18*
X-92938000Y-78117000D03*
X-92938000Y-73267000D03*
D19*
X-89938000Y-78417000D03*
X-89938000Y-72967000D03*
D13*
X-102997000Y-59944000D03*
D14*
X-100457000Y-59944000D03*
D15*
X-126365000Y-69830000D03*
X-126365000Y-67330000D03*
X-123825000Y-69830000D03*
X-123825000Y-67330000D03*
D13*
X-114300000Y-103124000D03*
D14*
X-111760000Y-103124000D03*
X-109220000Y-103124000D03*
X-106680000Y-103124000D03*
X-104140000Y-103124000D03*
X-101600000Y-103124000D03*
D13*
X-132080000Y-103124000D03*
D14*
X-129540000Y-103124000D03*
X-127000000Y-103124000D03*
X-124460000Y-103124000D03*
X-121920000Y-103124000D03*
X-119380000Y-103124000D03*
D13*
X-135128000Y-59944000D03*
D14*
X-132588000Y-59944000D03*
X-130048000Y-59944000D03*
X-127508000Y-59944000D03*
X-124968000Y-59944000D03*
X-122428000Y-59944000D03*
D13*
X-107188000Y-59944000D03*
D14*
X-109728000Y-59944000D03*
X-112268000Y-59944000D03*
X-114808000Y-59944000D03*
X-117348000Y-59944000D03*
D20*
X-107264200Y-75926000D03*
X-92583000Y-85344000D03*
X-101625400Y-79781400D03*
X-145211800Y-88773000D03*
X-130810000Y-89230200D03*
X-89509600Y-103886000D03*
X-94742000Y-100812600D03*
X-116814600Y-102971600D03*
X-112928400Y-97942400D03*
X-99339400Y-96799400D03*
X-102539800Y-74574400D03*
X-102539800Y-85699600D03*
X-118973600Y-80975200D03*
X-119151400Y-94361000D03*
X-106273600Y-78333600D03*
X-114706400Y-74345800D03*
X-116713000Y-89865200D03*
X-108889800Y-87172800D03*
X-110744000Y-69342000D03*
X-151130000Y-97536000D03*
X-136652000Y-104013000D03*
X-151003000Y-104013000D03*
X-160020000Y-61976000D03*
X-167640000Y-59563000D03*
X-134366000Y-75692000D03*
X-127000000Y-75692000D03*
X-133604000Y-64897000D03*
X-137287000Y-64770000D03*
X-134366000Y-80264000D03*
X-151130000Y-64516000D03*
X-151130000Y-94996000D03*
X-151130000Y-92456000D03*
X-151130000Y-89916000D03*
X-151130000Y-87376000D03*
X-151130000Y-84836000D03*
X-151130000Y-82296000D03*
X-151130000Y-79756000D03*
X-151130000Y-77216000D03*
X-151130000Y-74676000D03*
X-151130000Y-69596000D03*
X-151130000Y-72136000D03*
X-151130000Y-67056000D03*
X-97028000Y-64008000D03*
X-134366000Y-77470000D03*
X-127254000Y-79502000D03*
X-126206000Y-80296000D03*
X-135128000Y-78275259D03*
X-126746000Y-81788000D03*
D21*
X-107289600Y-81229200D02*
X-107289600Y-75951400D01*
X-107289600Y-75951400D02*
X-107264200Y-75926000D01*
X-101600000Y-81229200D02*
X-94869000Y-81229200D01*
X-92583000Y-83515200D02*
X-92583000Y-85344000D01*
X-94869000Y-81229200D02*
X-92583000Y-83515200D01*
X-101600000Y-81229200D02*
X-107289600Y-81229200D01*
X-107289600Y-81229200D02*
X-117678200Y-81229200D01*
X-117678200Y-81229200D02*
X-118364000Y-81915000D01*
X-118364000Y-81915000D02*
X-122725000Y-81915000D01*
D22*
X-122725000Y-81915000D02*
X-118364000Y-81915000D01*
D21*
X-102082600Y-79603600D02*
X-101803200Y-79603600D01*
X-101803200Y-79603600D02*
X-101625400Y-79781400D01*
X-128905000Y-89179400D02*
X-130759200Y-89179400D01*
X-130759200Y-89179400D02*
X-130810000Y-89230200D01*
X-94742000Y-100812600D02*
X-94742000Y-100736400D01*
X-116662200Y-102717600D02*
X-116662200Y-102819200D01*
X-116662200Y-102819200D02*
X-116814600Y-102971600D01*
X-100482400Y-96799400D02*
X-99339400Y-96799400D01*
D22*
X-119024400Y-80924400D02*
X-119024400Y-80670400D01*
X-118973600Y-80975200D02*
X-119024400Y-80924400D01*
X-106273600Y-78333600D02*
X-106273600Y-78308200D01*
X-114706400Y-74345800D02*
X-114706400Y-74295000D01*
X-108889800Y-87172800D02*
X-108915200Y-87172800D01*
X-104343200Y-88158000D02*
X-102991600Y-88158000D01*
X-102991600Y-88158000D02*
X-102946200Y-88112600D01*
D23*
X-151130000Y-97536000D02*
X-151130000Y-103886000D01*
X-151130000Y-103886000D02*
X-151003000Y-104013000D01*
X-160020000Y-61976000D02*
X-160020000Y-59309000D01*
X-160274000Y-59563000D02*
X-167640000Y-59563000D01*
X-160020000Y-59309000D02*
X-160274000Y-59563000D01*
D21*
X-127000000Y-75692000D02*
X-134366000Y-75692000D01*
X-137160000Y-64897000D02*
X-133604000Y-64897000D01*
X-137287000Y-64770000D02*
X-137160000Y-64897000D01*
D24*
X-151130000Y-67056000D02*
X-151384000Y-67056000D01*
D25*
X-123825000Y-65151000D02*
X-124587000Y-64389000D01*
X-123825000Y-67330000D02*
X-123825000Y-65151000D01*
X-126365000Y-67330000D02*
X-127802800Y-67330000D01*
X-127802800Y-67330000D02*
X-127909800Y-67437000D01*
X-123825000Y-67330000D02*
X-122387200Y-67330000D01*
X-122387200Y-67330000D02*
X-122367200Y-67310000D01*
X-126365000Y-67330000D02*
X-126365000Y-65024000D01*
X-97028000Y-64008000D02*
X-96012000Y-64008000D01*
X-97028000Y-64008000D02*
X-97028000Y-64008000D01*
X-89938000Y-72967000D02*
X-89938000Y-78417000D01*
D24*
X-131064000Y-79502000D02*
X-133096000Y-77470000D01*
X-133096000Y-77470000D02*
X-134366000Y-77470000D01*
X-127254000Y-79502000D02*
X-131064000Y-79502000D01*
X-135128000Y-78275259D02*
X-133338741Y-78275259D01*
X-131318000Y-80296000D02*
X-126206000Y-80296000D01*
X-133338741Y-78275259D02*
X-131318000Y-80296000D01*
D23*
X-135128000Y-78275259D02*
X-135128000Y-78275259D01*
D22*
X-104343200Y-90658000D02*
X-104343200Y-91973400D01*
X-103860600Y-92456000D02*
X-102920800Y-92456000D01*
X-104343200Y-91973400D02*
X-103860600Y-92456000D01*
X-106400600Y-90658000D02*
X-106400600Y-92049600D01*
X-106807000Y-92456000D02*
X-107800800Y-92456000D01*
X-106400600Y-92049600D02*
X-106807000Y-92456000D01*
D26*
X-124925000Y-81915000D02*
X-126619000Y-81915000D01*
X-126619000Y-81915000D02*
X-126746000Y-81788000D01*
D23*
X-126365000Y-69830000D02*
X-126365000Y-71983600D01*
X-126365000Y-71983600D02*
X-125958600Y-72390000D01*
X-123825000Y-69830000D02*
X-123825000Y-71956400D01*
X-123825000Y-71956400D02*
X-124258600Y-72390000D01*
X-124053600Y-72185000D02*
X-124258600Y-72390000D01*
D22*
X-129540000Y-103124000D02*
X-129413000Y-103124000D01*
G36*
X-92952000Y-61929000D02*
X-90182000Y-61929000D01*
X-90182000Y-58293000D01*
X-88594000Y-58293000D01*
X-88594000Y-72331042D01*
X-88678344Y-72126914D01*
X-89095717Y-71708812D01*
X-89641319Y-71482258D01*
X-90232089Y-71481743D01*
X-90778086Y-71707344D01*
X-91196188Y-72124717D01*
X-91422742Y-72670319D01*
X-91423257Y-73261089D01*
X-91197656Y-73807086D01*
X-90979400Y-74025723D01*
X-90979400Y-77358307D01*
X-91196188Y-77574717D01*
X-91422742Y-78120319D01*
X-91423257Y-78711089D01*
X-91197656Y-79257086D01*
X-90780283Y-79675188D01*
X-90234681Y-79901742D01*
X-89643911Y-79902257D01*
X-89097914Y-79676656D01*
X-88679812Y-79259283D01*
X-88594000Y-79052625D01*
X-88594000Y-104954000D01*
X-169418000Y-104954000D01*
X-169418000Y-102274000D01*
X-133577440Y-102274000D01*
X-133577440Y-103974000D01*
X-133533162Y-104209317D01*
X-133394090Y-104425441D01*
X-133181890Y-104570431D01*
X-132930000Y-104621440D01*
X-131230000Y-104621440D01*
X-130994683Y-104577162D01*
X-130778559Y-104438090D01*
X-130633569Y-104225890D01*
X-130619914Y-104158459D01*
X-130590054Y-104203147D01*
X-130108285Y-104525054D01*
X-129540000Y-104638093D01*
X-128971715Y-104525054D01*
X-128489946Y-104203147D01*
X-128270000Y-103873974D01*
X-128050054Y-104203147D01*
X-127568285Y-104525054D01*
X-127000000Y-104638093D01*
X-126431715Y-104525054D01*
X-125949946Y-104203147D01*
X-125730000Y-103873974D01*
X-125510054Y-104203147D01*
X-125028285Y-104525054D01*
X-124460000Y-104638093D01*
X-123891715Y-104525054D01*
X-123409946Y-104203147D01*
X-123182298Y-103862447D01*
X-123115183Y-104005358D01*
X-122686924Y-104395645D01*
X-122276890Y-104565476D01*
X-122047000Y-104444155D01*
X-122047000Y-103251000D01*
X-122067000Y-103251000D01*
X-122067000Y-102997000D01*
X-122047000Y-102997000D01*
X-122047000Y-101803845D01*
X-121793000Y-101803845D01*
X-121793000Y-102997000D01*
X-121773000Y-102997000D01*
X-121773000Y-103251000D01*
X-121793000Y-103251000D01*
X-121793000Y-104444155D01*
X-121563110Y-104565476D01*
X-121153076Y-104395645D01*
X-120724817Y-104005358D01*
X-120657702Y-103862447D01*
X-120430054Y-104203147D01*
X-119948285Y-104525054D01*
X-119380000Y-104638093D01*
X-118811715Y-104525054D01*
X-118329946Y-104203147D01*
X-118008039Y-103721378D01*
X-117895000Y-103153093D01*
X-117895000Y-103094907D01*
X-118008039Y-102526622D01*
X-118176835Y-102274000D01*
X-115797440Y-102274000D01*
X-115797440Y-103974000D01*
X-115753162Y-104209317D01*
X-115614090Y-104425441D01*
X-115401890Y-104570431D01*
X-115150000Y-104621440D01*
X-113450000Y-104621440D01*
X-113214683Y-104577162D01*
X-112998559Y-104438090D01*
X-112853569Y-104225890D01*
X-112839914Y-104158459D01*
X-112810054Y-104203147D01*
X-112328285Y-104525054D01*
X-111760000Y-104638093D01*
X-111191715Y-104525054D01*
X-110709946Y-104203147D01*
X-110490000Y-103873974D01*
X-110270054Y-104203147D01*
X-109788285Y-104525054D01*
X-109220000Y-104638093D01*
X-108651715Y-104525054D01*
X-108169946Y-104203147D01*
X-107950000Y-103873974D01*
X-107730054Y-104203147D01*
X-107248285Y-104525054D01*
X-106680000Y-104638093D01*
X-106111715Y-104525054D01*
X-105629946Y-104203147D01*
X-105402298Y-103862447D01*
X-105335183Y-104005358D01*
X-104906924Y-104395645D01*
X-104496890Y-104565476D01*
X-104267000Y-104444155D01*
X-104267000Y-103251000D01*
X-104287000Y-103251000D01*
X-104287000Y-102997000D01*
X-104267000Y-102997000D01*
X-104267000Y-101803845D01*
X-104013000Y-101803845D01*
X-104013000Y-102997000D01*
X-103993000Y-102997000D01*
X-103993000Y-103251000D01*
X-104013000Y-103251000D01*
X-104013000Y-104444155D01*
X-103783110Y-104565476D01*
X-103373076Y-104395645D01*
X-102944817Y-104005358D01*
X-102877702Y-103862447D01*
X-102650054Y-104203147D01*
X-102168285Y-104525054D01*
X-101600000Y-104638093D01*
X-101031715Y-104525054D01*
X-100549946Y-104203147D01*
X-100228039Y-103721378D01*
X-100115000Y-103153093D01*
X-100115000Y-103094907D01*
X-100228039Y-102526622D01*
X-100549946Y-102044853D01*
X-101031715Y-101722946D01*
X-101600000Y-101609907D01*
X-102168285Y-101722946D01*
X-102650054Y-102044853D01*
X-102877702Y-102385553D01*
X-102944817Y-102242642D01*
X-103373076Y-101852355D01*
X-103783110Y-101682524D01*
X-104013000Y-101803845D01*
X-104267000Y-101803845D01*
X-104496890Y-101682524D01*
X-104906924Y-101852355D01*
X-105335183Y-102242642D01*
X-105402298Y-102385553D01*
X-105629946Y-102044853D01*
X-106111715Y-101722946D01*
X-106680000Y-101609907D01*
X-107248285Y-101722946D01*
X-107730054Y-102044853D01*
X-107950000Y-102374026D01*
X-108169946Y-102044853D01*
X-108651715Y-101722946D01*
X-109220000Y-101609907D01*
X-109788285Y-101722946D01*
X-110270054Y-102044853D01*
X-110490000Y-102374026D01*
X-110709946Y-102044853D01*
X-111191715Y-101722946D01*
X-111760000Y-101609907D01*
X-112328285Y-101722946D01*
X-112810054Y-102044853D01*
X-112837850Y-102086452D01*
X-112846838Y-102038683D01*
X-112985910Y-101822559D01*
X-113198110Y-101677569D01*
X-113450000Y-101626560D01*
X-115150000Y-101626560D01*
X-115385317Y-101670838D01*
X-115601441Y-101809910D01*
X-115746431Y-102022110D01*
X-115797440Y-102274000D01*
X-118176835Y-102274000D01*
X-118329946Y-102044853D01*
X-118811715Y-101722946D01*
X-119380000Y-101609907D01*
X-119948285Y-101722946D01*
X-120430054Y-102044853D01*
X-120657702Y-102385553D01*
X-120724817Y-102242642D01*
X-121153076Y-101852355D01*
X-121563110Y-101682524D01*
X-121793000Y-101803845D01*
X-122047000Y-101803845D01*
X-122276890Y-101682524D01*
X-122686924Y-101852355D01*
X-123115183Y-102242642D01*
X-123182298Y-102385553D01*
X-123409946Y-102044853D01*
X-123891715Y-101722946D01*
X-124460000Y-101609907D01*
X-125028285Y-101722946D01*
X-125510054Y-102044853D01*
X-125730000Y-102374026D01*
X-125949946Y-102044853D01*
X-126431715Y-101722946D01*
X-127000000Y-101609907D01*
X-127568285Y-101722946D01*
X-128050054Y-102044853D01*
X-128270000Y-102374026D01*
X-128489946Y-102044853D01*
X-128971715Y-101722946D01*
X-129540000Y-101609907D01*
X-130108285Y-101722946D01*
X-130590054Y-102044853D01*
X-130617850Y-102086452D01*
X-130626838Y-102038683D01*
X-130765910Y-101822559D01*
X-130978110Y-101677569D01*
X-131230000Y-101626560D01*
X-132930000Y-101626560D01*
X-133165317Y-101670838D01*
X-133381441Y-101809910D01*
X-133526431Y-102022110D01*
X-133577440Y-102274000D01*
X-169418000Y-102274000D01*
X-169418000Y-100432890D01*
X-169081476Y-100432890D01*
X-168911645Y-100842924D01*
X-168521358Y-101271183D01*
X-167996892Y-101517486D01*
X-167767000Y-101396819D01*
X-167767000Y-100203000D01*
X-167513000Y-100203000D01*
X-167513000Y-101396819D01*
X-167283108Y-101517486D01*
X-166758642Y-101271183D01*
X-166368355Y-100842924D01*
X-166198524Y-100432890D01*
X-166319845Y-100203000D01*
X-167513000Y-100203000D01*
X-167767000Y-100203000D01*
X-168960155Y-100203000D01*
X-169081476Y-100432890D01*
X-169418000Y-100432890D01*
X-169418000Y-64516000D01*
X-169154093Y-64516000D01*
X-169041054Y-65084285D01*
X-168719147Y-65566054D01*
X-168389974Y-65786000D01*
X-168719147Y-66005946D01*
X-169041054Y-66487715D01*
X-169154093Y-67056000D01*
X-169041054Y-67624285D01*
X-168719147Y-68106054D01*
X-168389974Y-68326000D01*
X-168719147Y-68545946D01*
X-169041054Y-69027715D01*
X-169154093Y-69596000D01*
X-169041054Y-70164285D01*
X-168719147Y-70646054D01*
X-168389974Y-70866000D01*
X-168719147Y-71085946D01*
X-169041054Y-71567715D01*
X-169154093Y-72136000D01*
X-169041054Y-72704285D01*
X-168719147Y-73186054D01*
X-168389974Y-73406000D01*
X-168719147Y-73625946D01*
X-169041054Y-74107715D01*
X-169154093Y-74676000D01*
X-169041054Y-75244285D01*
X-168719147Y-75726054D01*
X-168389974Y-75946000D01*
X-168719147Y-76165946D01*
X-169041054Y-76647715D01*
X-169154093Y-77216000D01*
X-169041054Y-77784285D01*
X-168719147Y-78266054D01*
X-168389974Y-78486000D01*
X-168719147Y-78705946D01*
X-169041054Y-79187715D01*
X-169154093Y-79756000D01*
X-169041054Y-80324285D01*
X-168719147Y-80806054D01*
X-168389974Y-81026000D01*
X-168719147Y-81245946D01*
X-169041054Y-81727715D01*
X-169154093Y-82296000D01*
X-169041054Y-82864285D01*
X-168719147Y-83346054D01*
X-168389974Y-83566000D01*
X-168719147Y-83785946D01*
X-169041054Y-84267715D01*
X-169154093Y-84836000D01*
X-169041054Y-85404285D01*
X-168719147Y-85886054D01*
X-168389974Y-86106000D01*
X-168719147Y-86325946D01*
X-169041054Y-86807715D01*
X-169154093Y-87376000D01*
X-169041054Y-87944285D01*
X-168719147Y-88426054D01*
X-168389974Y-88646000D01*
X-168719147Y-88865946D01*
X-169041054Y-89347715D01*
X-169154093Y-89916000D01*
X-169041054Y-90484285D01*
X-168719147Y-90966054D01*
X-168389974Y-91186000D01*
X-168719147Y-91405946D01*
X-169041054Y-91887715D01*
X-169154093Y-92456000D01*
X-169041054Y-93024285D01*
X-168719147Y-93506054D01*
X-168389974Y-93726000D01*
X-168719147Y-93945946D01*
X-169041054Y-94427715D01*
X-169154093Y-94996000D01*
X-169041054Y-95564285D01*
X-168719147Y-96046054D01*
X-168389974Y-96266000D01*
X-168719147Y-96485946D01*
X-169041054Y-96967715D01*
X-169154093Y-97536000D01*
X-169041054Y-98104285D01*
X-168719147Y-98586054D01*
X-168378447Y-98813702D01*
X-168521358Y-98880817D01*
X-168911645Y-99309076D01*
X-169081476Y-99719110D01*
X-168960155Y-99949000D01*
X-167767000Y-99949000D01*
X-167767000Y-99929000D01*
X-167513000Y-99929000D01*
X-167513000Y-99949000D01*
X-166319845Y-99949000D01*
X-166198524Y-99719110D01*
X-166368355Y-99309076D01*
X-166758642Y-98880817D01*
X-166901553Y-98813702D01*
X-166560853Y-98586054D01*
X-166238946Y-98104285D01*
X-166125907Y-97536000D01*
X-166238946Y-96967715D01*
X-166560853Y-96485946D01*
X-166890026Y-96266000D01*
X-166560853Y-96046054D01*
X-166238946Y-95564285D01*
X-166125907Y-94996000D01*
X-166238946Y-94427715D01*
X-166560853Y-93945946D01*
X-166890026Y-93726000D01*
X-166560853Y-93506054D01*
X-166238946Y-93024285D01*
X-166125907Y-92456000D01*
X-166238946Y-91887715D01*
X-166560853Y-91405946D01*
X-166890026Y-91186000D01*
X-166560853Y-90966054D01*
X-166238946Y-90484285D01*
X-166125907Y-89916000D01*
X-166176430Y-89662000D01*
X-111455200Y-89662000D01*
X-111455200Y-95250000D01*
X-111446515Y-95296159D01*
X-111419235Y-95338553D01*
X-111377610Y-95366994D01*
X-111328200Y-95377000D01*
X-99390200Y-95377000D01*
X-99344041Y-95368315D01*
X-99301647Y-95341035D01*
X-99273206Y-95299410D01*
X-99263200Y-95250000D01*
X-99263200Y-89662000D01*
X-99271885Y-89615841D01*
X-99299165Y-89573447D01*
X-99340790Y-89545006D01*
X-99390200Y-89535000D01*
X-103203635Y-89535000D01*
X-103254110Y-89456559D01*
X-103322206Y-89410031D01*
X-103179873Y-89267698D01*
X-103083200Y-89034309D01*
X-103083200Y-88443750D01*
X-103241950Y-88285000D01*
X-104216200Y-88285000D01*
X-104216200Y-88305000D01*
X-104470200Y-88305000D01*
X-104470200Y-88285000D01*
X-106273600Y-88285000D01*
X-106273600Y-88305000D01*
X-106527600Y-88305000D01*
X-106527600Y-88285000D01*
X-107501850Y-88285000D01*
X-107660600Y-88443750D01*
X-107660600Y-89034309D01*
X-107563927Y-89267698D01*
X-107422690Y-89408936D01*
X-107477041Y-89443910D01*
X-107539280Y-89535000D01*
X-111328200Y-89535000D01*
X-111374359Y-89543685D01*
X-111416753Y-89570965D01*
X-111445194Y-89612590D01*
X-111455200Y-89662000D01*
X-166176430Y-89662000D01*
X-166238946Y-89347715D01*
X-166560853Y-88865946D01*
X-166890026Y-88646000D01*
X-166560853Y-88426054D01*
X-166238946Y-87944285D01*
X-166125907Y-87376000D01*
X-166144666Y-87281691D01*
X-107660600Y-87281691D01*
X-107660600Y-87872250D01*
X-107501850Y-88031000D01*
X-106527600Y-88031000D01*
X-106527600Y-86931750D01*
X-106273600Y-86931750D01*
X-106273600Y-88031000D01*
X-104470200Y-88031000D01*
X-104470200Y-86931750D01*
X-104216200Y-86931750D01*
X-104216200Y-88031000D01*
X-103241950Y-88031000D01*
X-103083200Y-87872250D01*
X-103083200Y-87281691D01*
X-103179873Y-87048302D01*
X-103358501Y-86869673D01*
X-103591890Y-86773000D01*
X-104057450Y-86773000D01*
X-104216200Y-86931750D01*
X-104470200Y-86931750D01*
X-104628950Y-86773000D01*
X-105094510Y-86773000D01*
X-105327899Y-86869673D01*
X-105371900Y-86913674D01*
X-105415901Y-86869673D01*
X-105649290Y-86773000D01*
X-106114850Y-86773000D01*
X-106273600Y-86931750D01*
X-106527600Y-86931750D01*
X-106686350Y-86773000D01*
X-107151910Y-86773000D01*
X-107385299Y-86869673D01*
X-107563927Y-87048302D01*
X-107660600Y-87281691D01*
X-166144666Y-87281691D01*
X-166238946Y-86807715D01*
X-166560853Y-86325946D01*
X-166890026Y-86106000D01*
X-166560853Y-85886054D01*
X-166238946Y-85404285D01*
X-166125907Y-84836000D01*
X-166238946Y-84267715D01*
X-166560853Y-83785946D01*
X-166890026Y-83566000D01*
X-166560853Y-83346054D01*
X-166238946Y-82864285D01*
X-166125907Y-82296000D01*
X-166238946Y-81727715D01*
X-166560853Y-81245946D01*
X-166890026Y-81026000D01*
X-166560853Y-80806054D01*
X-166238946Y-80324285D01*
X-166125907Y-79756000D01*
X-166238946Y-79187715D01*
X-166560853Y-78705946D01*
X-166890026Y-78486000D01*
X-166879909Y-78479240D01*
X-136158179Y-78479240D01*
X-136001701Y-78857945D01*
X-135712210Y-79147941D01*
X-135333779Y-79305080D01*
X-134924019Y-79305438D01*
X-134545314Y-79148960D01*
X-134458862Y-79062659D01*
X-133664893Y-79062659D01*
X-131874776Y-80852776D01*
X-131619325Y-81023463D01*
X-131318000Y-81083400D01*
X-127498082Y-81083400D01*
X-127618682Y-81203790D01*
X-127775821Y-81582221D01*
X-127776179Y-81991981D01*
X-127619701Y-82370686D01*
X-127330210Y-82660682D01*
X-126951779Y-82817821D01*
X-126542019Y-82818179D01*
X-126446231Y-82778600D01*
X-126013440Y-82778600D01*
X-125989090Y-82816441D01*
X-125776890Y-82961431D01*
X-125525000Y-83012440D01*
X-124325000Y-83012440D01*
X-124089683Y-82968162D01*
X-123873559Y-82829090D01*
X-123825866Y-82759289D01*
X-123789090Y-82816441D01*
X-123576890Y-82961431D01*
X-123325000Y-83012440D01*
X-122125000Y-83012440D01*
X-121889683Y-82968162D01*
X-121673559Y-82829090D01*
X-121656416Y-82804000D01*
X-118364000Y-82804000D01*
X-118023794Y-82736329D01*
X-117735382Y-82543618D01*
X-117309964Y-82118200D01*
X-95237236Y-82118200D01*
X-93472000Y-83883436D01*
X-93472000Y-84799088D01*
X-93612821Y-85138221D01*
X-93613179Y-85547981D01*
X-93456701Y-85926686D01*
X-93167210Y-86216682D01*
X-92788779Y-86373821D01*
X-92379019Y-86374179D01*
X-92000314Y-86217701D01*
X-91710318Y-85928210D01*
X-91553179Y-85549779D01*
X-91552821Y-85140019D01*
X-91694000Y-84798340D01*
X-91694000Y-83515200D01*
X-91761671Y-83174994D01*
X-91954382Y-82886582D01*
X-94240382Y-80600582D01*
X-94245256Y-80597325D01*
X-94528794Y-80407871D01*
X-94869000Y-80340200D01*
X-106400600Y-80340200D01*
X-106400600Y-78117000D01*
X-94350134Y-78117000D01*
X-94259931Y-78570480D01*
X-94003056Y-78954922D01*
X-93618614Y-79211797D01*
X-93165134Y-79302000D01*
X-92710866Y-79302000D01*
X-92257386Y-79211797D01*
X-91872944Y-78954922D01*
X-91616069Y-78570480D01*
X-91525866Y-78117000D01*
X-91616069Y-77663520D01*
X-91872944Y-77279078D01*
X-92257386Y-77022203D01*
X-92710866Y-76932000D01*
X-93165134Y-76932000D01*
X-93618614Y-77022203D01*
X-94003056Y-77279078D01*
X-94259931Y-77663520D01*
X-94350134Y-78117000D01*
X-106400600Y-78117000D01*
X-106400600Y-76519276D01*
X-106391518Y-76510210D01*
X-106234379Y-76131779D01*
X-106234021Y-75722019D01*
X-106390499Y-75343314D01*
X-106679990Y-75053318D01*
X-107058421Y-74896179D01*
X-107468181Y-74895821D01*
X-107846886Y-75052299D01*
X-108136882Y-75341790D01*
X-108294021Y-75720221D01*
X-108294379Y-76129981D01*
X-108178600Y-76410187D01*
X-108178600Y-80340200D01*
X-117678200Y-80340200D01*
X-118018405Y-80407870D01*
X-118306818Y-80600582D01*
X-118732236Y-81026000D01*
X-121652904Y-81026000D01*
X-121660910Y-81013559D01*
X-121873110Y-80868569D01*
X-122125000Y-80817560D01*
X-123325000Y-80817560D01*
X-123560317Y-80861838D01*
X-123776441Y-81000910D01*
X-123824134Y-81070711D01*
X-123860910Y-81013559D01*
X-124073110Y-80868569D01*
X-124325000Y-80817560D01*
X-125307303Y-80817560D01*
X-125176179Y-80501779D01*
X-125175821Y-80092019D01*
X-125332299Y-79713314D01*
X-125621790Y-79423318D01*
X-126000221Y-79266179D01*
X-126237063Y-79265972D01*
X-126380299Y-78919314D01*
X-126669790Y-78629318D01*
X-127048221Y-78472179D01*
X-127457981Y-78471821D01*
X-127836686Y-78628299D01*
X-127923138Y-78714600D01*
X-130737848Y-78714600D01*
X-132539224Y-76913224D01*
X-132794675Y-76742537D01*
X-133096000Y-76682600D01*
X-133696657Y-76682600D01*
X-133781790Y-76597318D01*
X-134160221Y-76440179D01*
X-134569981Y-76439821D01*
X-134948686Y-76596299D01*
X-135238682Y-76885790D01*
X-135395821Y-77264221D01*
X-135395827Y-77271461D01*
X-135710686Y-77401558D01*
X-136000682Y-77691049D01*
X-136157821Y-78069480D01*
X-136158179Y-78479240D01*
X-166879909Y-78479240D01*
X-166560853Y-78266054D01*
X-166238946Y-77784285D01*
X-166125907Y-77216000D01*
X-166238946Y-76647715D01*
X-166560853Y-76165946D01*
X-166890026Y-75946000D01*
X-166560853Y-75726054D01*
X-166238946Y-75244285D01*
X-166125907Y-74676000D01*
X-166238946Y-74107715D01*
X-166560853Y-73625946D01*
X-166890026Y-73406000D01*
X-166560853Y-73186054D01*
X-166238946Y-72704285D01*
X-166125907Y-72136000D01*
X-166238946Y-71567715D01*
X-166560853Y-71085946D01*
X-166890026Y-70866000D01*
X-166560853Y-70646054D01*
X-166238946Y-70164285D01*
X-166125907Y-69596000D01*
X-166228545Y-69080000D01*
X-127637440Y-69080000D01*
X-127637440Y-70580000D01*
X-127593162Y-70815317D01*
X-127454090Y-71031441D01*
X-127381000Y-71081381D01*
X-127381000Y-74041000D01*
X-127372315Y-74087159D01*
X-127345035Y-74129553D01*
X-127303410Y-74157994D01*
X-127254000Y-74168000D01*
X-122936000Y-74168000D01*
X-122889841Y-74159315D01*
X-122847447Y-74132035D01*
X-122819006Y-74090410D01*
X-122809000Y-74041000D01*
X-122809000Y-73267000D01*
X-94350134Y-73267000D01*
X-94259931Y-73720480D01*
X-94003056Y-74104922D01*
X-93618614Y-74361797D01*
X-93165134Y-74452000D01*
X-92710866Y-74452000D01*
X-92257386Y-74361797D01*
X-91872944Y-74104922D01*
X-91616069Y-73720480D01*
X-91525866Y-73267000D01*
X-91616069Y-72813520D01*
X-91872944Y-72429078D01*
X-92257386Y-72172203D01*
X-92710866Y-72082000D01*
X-93165134Y-72082000D01*
X-93618614Y-72172203D01*
X-94003056Y-72429078D01*
X-94259931Y-72813520D01*
X-94350134Y-73267000D01*
X-122809000Y-73267000D01*
X-122809000Y-71082983D01*
X-122748559Y-71044090D01*
X-122603569Y-70831890D01*
X-122552560Y-70580000D01*
X-122552560Y-69080000D01*
X-122596838Y-68844683D01*
X-122735910Y-68628559D01*
X-122804006Y-68582031D01*
X-122661673Y-68439698D01*
X-122565000Y-68206309D01*
X-122565000Y-67615750D01*
X-122723750Y-67457000D01*
X-122809000Y-67457000D01*
X-122809000Y-67203000D01*
X-122723750Y-67203000D01*
X-122565000Y-67044250D01*
X-122565000Y-66453691D01*
X-122661673Y-66220302D01*
X-122809000Y-66072974D01*
X-122809000Y-65532000D01*
X-122817685Y-65485841D01*
X-122844965Y-65443447D01*
X-122886590Y-65415006D01*
X-122936000Y-65405000D01*
X-127254000Y-65405000D01*
X-127300159Y-65413685D01*
X-127342553Y-65440965D01*
X-127370994Y-65482590D01*
X-127381000Y-65532000D01*
X-127381000Y-66072974D01*
X-127528327Y-66220302D01*
X-127625000Y-66453691D01*
X-127625000Y-67044250D01*
X-127466250Y-67203000D01*
X-127381000Y-67203000D01*
X-127381000Y-67457000D01*
X-127466250Y-67457000D01*
X-127625000Y-67615750D01*
X-127625000Y-68206309D01*
X-127528327Y-68439698D01*
X-127387090Y-68580936D01*
X-127441441Y-68615910D01*
X-127586431Y-68828110D01*
X-127637440Y-69080000D01*
X-166228545Y-69080000D01*
X-166238946Y-69027715D01*
X-166560853Y-68545946D01*
X-166890026Y-68326000D01*
X-166560853Y-68106054D01*
X-166238946Y-67624285D01*
X-166125907Y-67056000D01*
X-166238946Y-66487715D01*
X-166560853Y-66005946D01*
X-166890026Y-65786000D01*
X-166560853Y-65566054D01*
X-166238946Y-65084285D01*
X-166125907Y-64516000D01*
X-166238946Y-63947715D01*
X-166560853Y-63465946D01*
X-166602452Y-63438150D01*
X-166554683Y-63429162D01*
X-166338559Y-63290090D01*
X-166193569Y-63077890D01*
X-166142560Y-62826000D01*
X-166142560Y-61126000D01*
X-166186838Y-60890683D01*
X-166325910Y-60674559D01*
X-166538110Y-60529569D01*
X-166790000Y-60478560D01*
X-168490000Y-60478560D01*
X-168725317Y-60522838D01*
X-168941441Y-60661910D01*
X-169086431Y-60874110D01*
X-169137440Y-61126000D01*
X-169137440Y-62826000D01*
X-169093162Y-63061317D01*
X-168954090Y-63277441D01*
X-168741890Y-63422431D01*
X-168674459Y-63436086D01*
X-168719147Y-63465946D01*
X-169041054Y-63947715D01*
X-169154093Y-64516000D01*
X-169418000Y-64516000D01*
X-169418000Y-59094000D01*
X-136625440Y-59094000D01*
X-136625440Y-60794000D01*
X-136581162Y-61029317D01*
X-136442090Y-61245441D01*
X-136229890Y-61390431D01*
X-135978000Y-61441440D01*
X-134278000Y-61441440D01*
X-134042683Y-61397162D01*
X-133826559Y-61258090D01*
X-133681569Y-61045890D01*
X-133667914Y-60978459D01*
X-133638054Y-61023147D01*
X-133156285Y-61345054D01*
X-132588000Y-61458093D01*
X-132019715Y-61345054D01*
X-131537946Y-61023147D01*
X-131318000Y-60693974D01*
X-131098054Y-61023147D01*
X-130616285Y-61345054D01*
X-130048000Y-61458093D01*
X-129479715Y-61345054D01*
X-128997946Y-61023147D01*
X-128778000Y-60693974D01*
X-128558054Y-61023147D01*
X-128076285Y-61345054D01*
X-127508000Y-61458093D01*
X-126939715Y-61345054D01*
X-126457946Y-61023147D01*
X-126238000Y-60693974D01*
X-126018054Y-61023147D01*
X-125536285Y-61345054D01*
X-124968000Y-61458093D01*
X-124399715Y-61345054D01*
X-123917946Y-61023147D01*
X-123690298Y-60682447D01*
X-123623183Y-60825358D01*
X-123194924Y-61215645D01*
X-122784890Y-61385476D01*
X-122555000Y-61264155D01*
X-122555000Y-60071000D01*
X-122301000Y-60071000D01*
X-122301000Y-61264155D01*
X-122071110Y-61385476D01*
X-121661076Y-61215645D01*
X-121232817Y-60825358D01*
X-120986514Y-60300892D01*
X-118789486Y-60300892D01*
X-118543183Y-60825358D01*
X-118114924Y-61215645D01*
X-117704890Y-61385476D01*
X-117475000Y-61264155D01*
X-117475000Y-60071000D01*
X-118668819Y-60071000D01*
X-118789486Y-60300892D01*
X-120986514Y-60300892D01*
X-121107181Y-60071000D01*
X-122301000Y-60071000D01*
X-122555000Y-60071000D01*
X-122575000Y-60071000D01*
X-122575000Y-59817000D01*
X-122555000Y-59817000D01*
X-122555000Y-58623845D01*
X-122301000Y-58623845D01*
X-122301000Y-59817000D01*
X-121107181Y-59817000D01*
X-120986514Y-59587108D01*
X-118789486Y-59587108D01*
X-118668819Y-59817000D01*
X-117475000Y-59817000D01*
X-117475000Y-58623845D01*
X-117221000Y-58623845D01*
X-117221000Y-59817000D01*
X-117201000Y-59817000D01*
X-117201000Y-60071000D01*
X-117221000Y-60071000D01*
X-117221000Y-61264155D01*
X-116991110Y-61385476D01*
X-116581076Y-61215645D01*
X-116152817Y-60825358D01*
X-116085702Y-60682447D01*
X-115858054Y-61023147D01*
X-115376285Y-61345054D01*
X-114808000Y-61458093D01*
X-114239715Y-61345054D01*
X-113757946Y-61023147D01*
X-113538000Y-60693974D01*
X-113318054Y-61023147D01*
X-112836285Y-61345054D01*
X-112268000Y-61458093D01*
X-111699715Y-61345054D01*
X-111217946Y-61023147D01*
X-110998000Y-60693974D01*
X-110778054Y-61023147D01*
X-110296285Y-61345054D01*
X-109728000Y-61458093D01*
X-109159715Y-61345054D01*
X-108677946Y-61023147D01*
X-108650150Y-60981548D01*
X-108641162Y-61029317D01*
X-108502090Y-61245441D01*
X-108289890Y-61390431D01*
X-108038000Y-61441440D01*
X-106338000Y-61441440D01*
X-106102683Y-61397162D01*
X-105886559Y-61258090D01*
X-105741569Y-61045890D01*
X-105690560Y-60794000D01*
X-105690560Y-59094000D01*
X-104494440Y-59094000D01*
X-104494440Y-60794000D01*
X-104450162Y-61029317D01*
X-104311090Y-61245441D01*
X-104098890Y-61390431D01*
X-103847000Y-61441440D01*
X-102147000Y-61441440D01*
X-101911683Y-61397162D01*
X-101695559Y-61258090D01*
X-101550569Y-61045890D01*
X-101528699Y-60937893D01*
X-101223924Y-61215645D01*
X-100813890Y-61385476D01*
X-100584000Y-61264155D01*
X-100584000Y-60071000D01*
X-100330000Y-60071000D01*
X-100330000Y-61264155D01*
X-100100110Y-61385476D01*
X-99690076Y-61215645D01*
X-99261817Y-60825358D01*
X-99015514Y-60300892D01*
X-99136181Y-60071000D01*
X-100330000Y-60071000D01*
X-100584000Y-60071000D01*
X-100604000Y-60071000D01*
X-100604000Y-59817000D01*
X-100584000Y-59817000D01*
X-100584000Y-58623845D01*
X-100330000Y-58623845D01*
X-100330000Y-59817000D01*
X-99136181Y-59817000D01*
X-99015514Y-59587108D01*
X-99261817Y-59062642D01*
X-99690076Y-58672355D01*
X-100100110Y-58502524D01*
X-100330000Y-58623845D01*
X-100584000Y-58623845D01*
X-100813890Y-58502524D01*
X-101223924Y-58672355D01*
X-101526937Y-58948501D01*
X-101543838Y-58858683D01*
X-101682910Y-58642559D01*
X-101895110Y-58497569D01*
X-102147000Y-58446560D01*
X-103847000Y-58446560D01*
X-104082317Y-58490838D01*
X-104298441Y-58629910D01*
X-104443431Y-58842110D01*
X-104494440Y-59094000D01*
X-105690560Y-59094000D01*
X-105734838Y-58858683D01*
X-105873910Y-58642559D01*
X-106086110Y-58497569D01*
X-106338000Y-58446560D01*
X-108038000Y-58446560D01*
X-108273317Y-58490838D01*
X-108489441Y-58629910D01*
X-108634431Y-58842110D01*
X-108648086Y-58909541D01*
X-108677946Y-58864853D01*
X-109159715Y-58542946D01*
X-109728000Y-58429907D01*
X-110296285Y-58542946D01*
X-110778054Y-58864853D01*
X-110998000Y-59194026D01*
X-111217946Y-58864853D01*
X-111699715Y-58542946D01*
X-112268000Y-58429907D01*
X-112836285Y-58542946D01*
X-113318054Y-58864853D01*
X-113538000Y-59194026D01*
X-113757946Y-58864853D01*
X-114239715Y-58542946D01*
X-114808000Y-58429907D01*
X-115376285Y-58542946D01*
X-115858054Y-58864853D01*
X-116085702Y-59205553D01*
X-116152817Y-59062642D01*
X-116581076Y-58672355D01*
X-116991110Y-58502524D01*
X-117221000Y-58623845D01*
X-117475000Y-58623845D01*
X-117704890Y-58502524D01*
X-118114924Y-58672355D01*
X-118543183Y-59062642D01*
X-118789486Y-59587108D01*
X-120986514Y-59587108D01*
X-121232817Y-59062642D01*
X-121661076Y-58672355D01*
X-122071110Y-58502524D01*
X-122301000Y-58623845D01*
X-122555000Y-58623845D01*
X-122784890Y-58502524D01*
X-123194924Y-58672355D01*
X-123623183Y-59062642D01*
X-123690298Y-59205553D01*
X-123917946Y-58864853D01*
X-124399715Y-58542946D01*
X-124968000Y-58429907D01*
X-125536285Y-58542946D01*
X-126018054Y-58864853D01*
X-126238000Y-59194026D01*
X-126457946Y-58864853D01*
X-126939715Y-58542946D01*
X-127508000Y-58429907D01*
X-128076285Y-58542946D01*
X-128558054Y-58864853D01*
X-128778000Y-59194026D01*
X-128997946Y-58864853D01*
X-129479715Y-58542946D01*
X-130048000Y-58429907D01*
X-130616285Y-58542946D01*
X-131098054Y-58864853D01*
X-131318000Y-59194026D01*
X-131537946Y-58864853D01*
X-132019715Y-58542946D01*
X-132588000Y-58429907D01*
X-133156285Y-58542946D01*
X-133638054Y-58864853D01*
X-133665850Y-58906452D01*
X-133674838Y-58858683D01*
X-133813910Y-58642559D01*
X-134026110Y-58497569D01*
X-134278000Y-58446560D01*
X-135978000Y-58446560D01*
X-136213317Y-58490838D01*
X-136429441Y-58629910D01*
X-136574431Y-58842110D01*
X-136625440Y-59094000D01*
X-169418000Y-59094000D01*
X-169418000Y-58293000D01*
X-92952000Y-58293000D01*
X-92952000Y-61929000D01*
X-92952000Y-61929000D01*
G37*
X-92952000Y-61929000D02*
X-90182000Y-61929000D01*
X-90182000Y-58293000D01*
X-88594000Y-58293000D01*
X-88594000Y-72331042D01*
X-88678344Y-72126914D01*
X-89095717Y-71708812D01*
X-89641319Y-71482258D01*
X-90232089Y-71481743D01*
X-90778086Y-71707344D01*
X-91196188Y-72124717D01*
X-91422742Y-72670319D01*
X-91423257Y-73261089D01*
X-91197656Y-73807086D01*
X-90979400Y-74025723D01*
X-90979400Y-77358307D01*
X-91196188Y-77574717D01*
X-91422742Y-78120319D01*
X-91423257Y-78711089D01*
X-91197656Y-79257086D01*
X-90780283Y-79675188D01*
X-90234681Y-79901742D01*
X-89643911Y-79902257D01*
X-89097914Y-79676656D01*
X-88679812Y-79259283D01*
X-88594000Y-79052625D01*
X-88594000Y-104954000D01*
X-169418000Y-104954000D01*
X-169418000Y-102274000D01*
X-133577440Y-102274000D01*
X-133577440Y-103974000D01*
X-133533162Y-104209317D01*
X-133394090Y-104425441D01*
X-133181890Y-104570431D01*
X-132930000Y-104621440D01*
X-131230000Y-104621440D01*
X-130994683Y-104577162D01*
X-130778559Y-104438090D01*
X-130633569Y-104225890D01*
X-130619914Y-104158459D01*
X-130590054Y-104203147D01*
X-130108285Y-104525054D01*
X-129540000Y-104638093D01*
X-128971715Y-104525054D01*
X-128489946Y-104203147D01*
X-128270000Y-103873974D01*
X-128050054Y-104203147D01*
X-127568285Y-104525054D01*
X-127000000Y-104638093D01*
X-126431715Y-104525054D01*
X-125949946Y-104203147D01*
X-125730000Y-103873974D01*
X-125510054Y-104203147D01*
X-125028285Y-104525054D01*
X-124460000Y-104638093D01*
X-123891715Y-104525054D01*
X-123409946Y-104203147D01*
X-123182298Y-103862447D01*
X-123115183Y-104005358D01*
X-122686924Y-104395645D01*
X-122276890Y-104565476D01*
X-122047000Y-104444155D01*
X-122047000Y-103251000D01*
X-122067000Y-103251000D01*
X-122067000Y-102997000D01*
X-122047000Y-102997000D01*
X-122047000Y-101803845D01*
X-121793000Y-101803845D01*
X-121793000Y-102997000D01*
X-121773000Y-102997000D01*
X-121773000Y-103251000D01*
X-121793000Y-103251000D01*
X-121793000Y-104444155D01*
X-121563110Y-104565476D01*
X-121153076Y-104395645D01*
X-120724817Y-104005358D01*
X-120657702Y-103862447D01*
X-120430054Y-104203147D01*
X-119948285Y-104525054D01*
X-119380000Y-104638093D01*
X-118811715Y-104525054D01*
X-118329946Y-104203147D01*
X-118008039Y-103721378D01*
X-117895000Y-103153093D01*
X-117895000Y-103094907D01*
X-118008039Y-102526622D01*
X-118176835Y-102274000D01*
X-115797440Y-102274000D01*
X-115797440Y-103974000D01*
X-115753162Y-104209317D01*
X-115614090Y-104425441D01*
X-115401890Y-104570431D01*
X-115150000Y-104621440D01*
X-113450000Y-104621440D01*
X-113214683Y-104577162D01*
X-112998559Y-104438090D01*
X-112853569Y-104225890D01*
X-112839914Y-104158459D01*
X-112810054Y-104203147D01*
X-112328285Y-104525054D01*
X-111760000Y-104638093D01*
X-111191715Y-104525054D01*
X-110709946Y-104203147D01*
X-110490000Y-103873974D01*
X-110270054Y-104203147D01*
X-109788285Y-104525054D01*
X-109220000Y-104638093D01*
X-108651715Y-104525054D01*
X-108169946Y-104203147D01*
X-107950000Y-103873974D01*
X-107730054Y-104203147D01*
X-107248285Y-104525054D01*
X-106680000Y-104638093D01*
X-106111715Y-104525054D01*
X-105629946Y-104203147D01*
X-105402298Y-103862447D01*
X-105335183Y-104005358D01*
X-104906924Y-104395645D01*
X-104496890Y-104565476D01*
X-104267000Y-104444155D01*
X-104267000Y-103251000D01*
X-104287000Y-103251000D01*
X-104287000Y-102997000D01*
X-104267000Y-102997000D01*
X-104267000Y-101803845D01*
X-104013000Y-101803845D01*
X-104013000Y-102997000D01*
X-103993000Y-102997000D01*
X-103993000Y-103251000D01*
X-104013000Y-103251000D01*
X-104013000Y-104444155D01*
X-103783110Y-104565476D01*
X-103373076Y-104395645D01*
X-102944817Y-104005358D01*
X-102877702Y-103862447D01*
X-102650054Y-104203147D01*
X-102168285Y-104525054D01*
X-101600000Y-104638093D01*
X-101031715Y-104525054D01*
X-100549946Y-104203147D01*
X-100228039Y-103721378D01*
X-100115000Y-103153093D01*
X-100115000Y-103094907D01*
X-100228039Y-102526622D01*
X-100549946Y-102044853D01*
X-101031715Y-101722946D01*
X-101600000Y-101609907D01*
X-102168285Y-101722946D01*
X-102650054Y-102044853D01*
X-102877702Y-102385553D01*
X-102944817Y-102242642D01*
X-103373076Y-101852355D01*
X-103783110Y-101682524D01*
X-104013000Y-101803845D01*
X-104267000Y-101803845D01*
X-104496890Y-101682524D01*
X-104906924Y-101852355D01*
X-105335183Y-102242642D01*
X-105402298Y-102385553D01*
X-105629946Y-102044853D01*
X-106111715Y-101722946D01*
X-106680000Y-101609907D01*
X-107248285Y-101722946D01*
X-107730054Y-102044853D01*
X-107950000Y-102374026D01*
X-108169946Y-102044853D01*
X-108651715Y-101722946D01*
X-109220000Y-101609907D01*
X-109788285Y-101722946D01*
X-110270054Y-102044853D01*
X-110490000Y-102374026D01*
X-110709946Y-102044853D01*
X-111191715Y-101722946D01*
X-111760000Y-101609907D01*
X-112328285Y-101722946D01*
X-112810054Y-102044853D01*
X-112837850Y-102086452D01*
X-112846838Y-102038683D01*
X-112985910Y-101822559D01*
X-113198110Y-101677569D01*
X-113450000Y-101626560D01*
X-115150000Y-101626560D01*
X-115385317Y-101670838D01*
X-115601441Y-101809910D01*
X-115746431Y-102022110D01*
X-115797440Y-102274000D01*
X-118176835Y-102274000D01*
X-118329946Y-102044853D01*
X-118811715Y-101722946D01*
X-119380000Y-101609907D01*
X-119948285Y-101722946D01*
X-120430054Y-102044853D01*
X-120657702Y-102385553D01*
X-120724817Y-102242642D01*
X-121153076Y-101852355D01*
X-121563110Y-101682524D01*
X-121793000Y-101803845D01*
X-122047000Y-101803845D01*
X-122276890Y-101682524D01*
X-122686924Y-101852355D01*
X-123115183Y-102242642D01*
X-123182298Y-102385553D01*
X-123409946Y-102044853D01*
X-123891715Y-101722946D01*
X-124460000Y-101609907D01*
X-125028285Y-101722946D01*
X-125510054Y-102044853D01*
X-125730000Y-102374026D01*
X-125949946Y-102044853D01*
X-126431715Y-101722946D01*
X-127000000Y-101609907D01*
X-127568285Y-101722946D01*
X-128050054Y-102044853D01*
X-128270000Y-102374026D01*
X-128489946Y-102044853D01*
X-128971715Y-101722946D01*
X-129540000Y-101609907D01*
X-130108285Y-101722946D01*
X-130590054Y-102044853D01*
X-130617850Y-102086452D01*
X-130626838Y-102038683D01*
X-130765910Y-101822559D01*
X-130978110Y-101677569D01*
X-131230000Y-101626560D01*
X-132930000Y-101626560D01*
X-133165317Y-101670838D01*
X-133381441Y-101809910D01*
X-133526431Y-102022110D01*
X-133577440Y-102274000D01*
X-169418000Y-102274000D01*
X-169418000Y-100432890D01*
X-169081476Y-100432890D01*
X-168911645Y-100842924D01*
X-168521358Y-101271183D01*
X-167996892Y-101517486D01*
X-167767000Y-101396819D01*
X-167767000Y-100203000D01*
X-167513000Y-100203000D01*
X-167513000Y-101396819D01*
X-167283108Y-101517486D01*
X-166758642Y-101271183D01*
X-166368355Y-100842924D01*
X-166198524Y-100432890D01*
X-166319845Y-100203000D01*
X-167513000Y-100203000D01*
X-167767000Y-100203000D01*
X-168960155Y-100203000D01*
X-169081476Y-100432890D01*
X-169418000Y-100432890D01*
X-169418000Y-64516000D01*
X-169154093Y-64516000D01*
X-169041054Y-65084285D01*
X-168719147Y-65566054D01*
X-168389974Y-65786000D01*
X-168719147Y-66005946D01*
X-169041054Y-66487715D01*
X-169154093Y-67056000D01*
X-169041054Y-67624285D01*
X-168719147Y-68106054D01*
X-168389974Y-68326000D01*
X-168719147Y-68545946D01*
X-169041054Y-69027715D01*
X-169154093Y-69596000D01*
X-169041054Y-70164285D01*
X-168719147Y-70646054D01*
X-168389974Y-70866000D01*
X-168719147Y-71085946D01*
X-169041054Y-71567715D01*
X-169154093Y-72136000D01*
X-169041054Y-72704285D01*
X-168719147Y-73186054D01*
X-168389974Y-73406000D01*
X-168719147Y-73625946D01*
X-169041054Y-74107715D01*
X-169154093Y-74676000D01*
X-169041054Y-75244285D01*
X-168719147Y-75726054D01*
X-168389974Y-75946000D01*
X-168719147Y-76165946D01*
X-169041054Y-76647715D01*
X-169154093Y-77216000D01*
X-169041054Y-77784285D01*
X-168719147Y-78266054D01*
X-168389974Y-78486000D01*
X-168719147Y-78705946D01*
X-169041054Y-79187715D01*
X-169154093Y-79756000D01*
X-169041054Y-80324285D01*
X-168719147Y-80806054D01*
X-168389974Y-81026000D01*
X-168719147Y-81245946D01*
X-169041054Y-81727715D01*
X-169154093Y-82296000D01*
X-169041054Y-82864285D01*
X-168719147Y-83346054D01*
X-168389974Y-83566000D01*
X-168719147Y-83785946D01*
X-169041054Y-84267715D01*
X-169154093Y-84836000D01*
X-169041054Y-85404285D01*
X-168719147Y-85886054D01*
X-168389974Y-86106000D01*
X-168719147Y-86325946D01*
X-169041054Y-86807715D01*
X-169154093Y-87376000D01*
X-169041054Y-87944285D01*
X-168719147Y-88426054D01*
X-168389974Y-88646000D01*
X-168719147Y-88865946D01*
X-169041054Y-89347715D01*
X-169154093Y-89916000D01*
X-169041054Y-90484285D01*
X-168719147Y-90966054D01*
X-168389974Y-91186000D01*
X-168719147Y-91405946D01*
X-169041054Y-91887715D01*
X-169154093Y-92456000D01*
X-169041054Y-93024285D01*
X-168719147Y-93506054D01*
X-168389974Y-93726000D01*
X-168719147Y-93945946D01*
X-169041054Y-94427715D01*
X-169154093Y-94996000D01*
X-169041054Y-95564285D01*
X-168719147Y-96046054D01*
X-168389974Y-96266000D01*
X-168719147Y-96485946D01*
X-169041054Y-96967715D01*
X-169154093Y-97536000D01*
X-169041054Y-98104285D01*
X-168719147Y-98586054D01*
X-168378447Y-98813702D01*
X-168521358Y-98880817D01*
X-168911645Y-99309076D01*
X-169081476Y-99719110D01*
X-168960155Y-99949000D01*
X-167767000Y-99949000D01*
X-167767000Y-99929000D01*
X-167513000Y-99929000D01*
X-167513000Y-99949000D01*
X-166319845Y-99949000D01*
X-166198524Y-99719110D01*
X-166368355Y-99309076D01*
X-166758642Y-98880817D01*
X-166901553Y-98813702D01*
X-166560853Y-98586054D01*
X-166238946Y-98104285D01*
X-166125907Y-97536000D01*
X-166238946Y-96967715D01*
X-166560853Y-96485946D01*
X-166890026Y-96266000D01*
X-166560853Y-96046054D01*
X-166238946Y-95564285D01*
X-166125907Y-94996000D01*
X-166238946Y-94427715D01*
X-166560853Y-93945946D01*
X-166890026Y-93726000D01*
X-166560853Y-93506054D01*
X-166238946Y-93024285D01*
X-166125907Y-92456000D01*
X-166238946Y-91887715D01*
X-166560853Y-91405946D01*
X-166890026Y-91186000D01*
X-166560853Y-90966054D01*
X-166238946Y-90484285D01*
X-166125907Y-89916000D01*
X-166176430Y-89662000D01*
X-111455200Y-89662000D01*
X-111455200Y-95250000D01*
X-111446515Y-95296159D01*
X-111419235Y-95338553D01*
X-111377610Y-95366994D01*
X-111328200Y-95377000D01*
X-99390200Y-95377000D01*
X-99344041Y-95368315D01*
X-99301647Y-95341035D01*
X-99273206Y-95299410D01*
X-99263200Y-95250000D01*
X-99263200Y-89662000D01*
X-99271885Y-89615841D01*
X-99299165Y-89573447D01*
X-99340790Y-89545006D01*
X-99390200Y-89535000D01*
X-103203635Y-89535000D01*
X-103254110Y-89456559D01*
X-103322206Y-89410031D01*
X-103179873Y-89267698D01*
X-103083200Y-89034309D01*
X-103083200Y-88443750D01*
X-103241950Y-88285000D01*
X-104216200Y-88285000D01*
X-104216200Y-88305000D01*
X-104470200Y-88305000D01*
X-104470200Y-88285000D01*
X-106273600Y-88285000D01*
X-106273600Y-88305000D01*
X-106527600Y-88305000D01*
X-106527600Y-88285000D01*
X-107501850Y-88285000D01*
X-107660600Y-88443750D01*
X-107660600Y-89034309D01*
X-107563927Y-89267698D01*
X-107422690Y-89408936D01*
X-107477041Y-89443910D01*
X-107539280Y-89535000D01*
X-111328200Y-89535000D01*
X-111374359Y-89543685D01*
X-111416753Y-89570965D01*
X-111445194Y-89612590D01*
X-111455200Y-89662000D01*
X-166176430Y-89662000D01*
X-166238946Y-89347715D01*
X-166560853Y-88865946D01*
X-166890026Y-88646000D01*
X-166560853Y-88426054D01*
X-166238946Y-87944285D01*
X-166125907Y-87376000D01*
X-166144666Y-87281691D01*
X-107660600Y-87281691D01*
X-107660600Y-87872250D01*
X-107501850Y-88031000D01*
X-106527600Y-88031000D01*
X-106527600Y-86931750D01*
X-106273600Y-86931750D01*
X-106273600Y-88031000D01*
X-104470200Y-88031000D01*
X-104470200Y-86931750D01*
X-104216200Y-86931750D01*
X-104216200Y-88031000D01*
X-103241950Y-88031000D01*
X-103083200Y-87872250D01*
X-103083200Y-87281691D01*
X-103179873Y-87048302D01*
X-103358501Y-86869673D01*
X-103591890Y-86773000D01*
X-104057450Y-86773000D01*
X-104216200Y-86931750D01*
X-104470200Y-86931750D01*
X-104628950Y-86773000D01*
X-105094510Y-86773000D01*
X-105327899Y-86869673D01*
X-105371900Y-86913674D01*
X-105415901Y-86869673D01*
X-105649290Y-86773000D01*
X-106114850Y-86773000D01*
X-106273600Y-86931750D01*
X-106527600Y-86931750D01*
X-106686350Y-86773000D01*
X-107151910Y-86773000D01*
X-107385299Y-86869673D01*
X-107563927Y-87048302D01*
X-107660600Y-87281691D01*
X-166144666Y-87281691D01*
X-166238946Y-86807715D01*
X-166560853Y-86325946D01*
X-166890026Y-86106000D01*
X-166560853Y-85886054D01*
X-166238946Y-85404285D01*
X-166125907Y-84836000D01*
X-166238946Y-84267715D01*
X-166560853Y-83785946D01*
X-166890026Y-83566000D01*
X-166560853Y-83346054D01*
X-166238946Y-82864285D01*
X-166125907Y-82296000D01*
X-166238946Y-81727715D01*
X-166560853Y-81245946D01*
X-166890026Y-81026000D01*
X-166560853Y-80806054D01*
X-166238946Y-80324285D01*
X-166125907Y-79756000D01*
X-166238946Y-79187715D01*
X-166560853Y-78705946D01*
X-166890026Y-78486000D01*
X-166879909Y-78479240D01*
X-136158179Y-78479240D01*
X-136001701Y-78857945D01*
X-135712210Y-79147941D01*
X-135333779Y-79305080D01*
X-134924019Y-79305438D01*
X-134545314Y-79148960D01*
X-134458862Y-79062659D01*
X-133664893Y-79062659D01*
X-131874776Y-80852776D01*
X-131619325Y-81023463D01*
X-131318000Y-81083400D01*
X-127498082Y-81083400D01*
X-127618682Y-81203790D01*
X-127775821Y-81582221D01*
X-127776179Y-81991981D01*
X-127619701Y-82370686D01*
X-127330210Y-82660682D01*
X-126951779Y-82817821D01*
X-126542019Y-82818179D01*
X-126446231Y-82778600D01*
X-126013440Y-82778600D01*
X-125989090Y-82816441D01*
X-125776890Y-82961431D01*
X-125525000Y-83012440D01*
X-124325000Y-83012440D01*
X-124089683Y-82968162D01*
X-123873559Y-82829090D01*
X-123825866Y-82759289D01*
X-123789090Y-82816441D01*
X-123576890Y-82961431D01*
X-123325000Y-83012440D01*
X-122125000Y-83012440D01*
X-121889683Y-82968162D01*
X-121673559Y-82829090D01*
X-121656416Y-82804000D01*
X-118364000Y-82804000D01*
X-118023794Y-82736329D01*
X-117735382Y-82543618D01*
X-117309964Y-82118200D01*
X-95237236Y-82118200D01*
X-93472000Y-83883436D01*
X-93472000Y-84799088D01*
X-93612821Y-85138221D01*
X-93613179Y-85547981D01*
X-93456701Y-85926686D01*
X-93167210Y-86216682D01*
X-92788779Y-86373821D01*
X-92379019Y-86374179D01*
X-92000314Y-86217701D01*
X-91710318Y-85928210D01*
X-91553179Y-85549779D01*
X-91552821Y-85140019D01*
X-91694000Y-84798340D01*
X-91694000Y-83515200D01*
X-91761671Y-83174994D01*
X-91954382Y-82886582D01*
X-94240382Y-80600582D01*
X-94245256Y-80597325D01*
X-94528794Y-80407871D01*
X-94869000Y-80340200D01*
X-106400600Y-80340200D01*
X-106400600Y-78117000D01*
X-94350134Y-78117000D01*
X-94259931Y-78570480D01*
X-94003056Y-78954922D01*
X-93618614Y-79211797D01*
X-93165134Y-79302000D01*
X-92710866Y-79302000D01*
X-92257386Y-79211797D01*
X-91872944Y-78954922D01*
X-91616069Y-78570480D01*
X-91525866Y-78117000D01*
X-91616069Y-77663520D01*
X-91872944Y-77279078D01*
X-92257386Y-77022203D01*
X-92710866Y-76932000D01*
X-93165134Y-76932000D01*
X-93618614Y-77022203D01*
X-94003056Y-77279078D01*
X-94259931Y-77663520D01*
X-94350134Y-78117000D01*
X-106400600Y-78117000D01*
X-106400600Y-76519276D01*
X-106391518Y-76510210D01*
X-106234379Y-76131779D01*
X-106234021Y-75722019D01*
X-106390499Y-75343314D01*
X-106679990Y-75053318D01*
X-107058421Y-74896179D01*
X-107468181Y-74895821D01*
X-107846886Y-75052299D01*
X-108136882Y-75341790D01*
X-108294021Y-75720221D01*
X-108294379Y-76129981D01*
X-108178600Y-76410187D01*
X-108178600Y-80340200D01*
X-117678200Y-80340200D01*
X-118018405Y-80407870D01*
X-118306818Y-80600582D01*
X-118732236Y-81026000D01*
X-121652904Y-81026000D01*
X-121660910Y-81013559D01*
X-121873110Y-80868569D01*
X-122125000Y-80817560D01*
X-123325000Y-80817560D01*
X-123560317Y-80861838D01*
X-123776441Y-81000910D01*
X-123824134Y-81070711D01*
X-123860910Y-81013559D01*
X-124073110Y-80868569D01*
X-124325000Y-80817560D01*
X-125307303Y-80817560D01*
X-125176179Y-80501779D01*
X-125175821Y-80092019D01*
X-125332299Y-79713314D01*
X-125621790Y-79423318D01*
X-126000221Y-79266179D01*
X-126237063Y-79265972D01*
X-126380299Y-78919314D01*
X-126669790Y-78629318D01*
X-127048221Y-78472179D01*
X-127457981Y-78471821D01*
X-127836686Y-78628299D01*
X-127923138Y-78714600D01*
X-130737848Y-78714600D01*
X-132539224Y-76913224D01*
X-132794675Y-76742537D01*
X-133096000Y-76682600D01*
X-133696657Y-76682600D01*
X-133781790Y-76597318D01*
X-134160221Y-76440179D01*
X-134569981Y-76439821D01*
X-134948686Y-76596299D01*
X-135238682Y-76885790D01*
X-135395821Y-77264221D01*
X-135395827Y-77271461D01*
X-135710686Y-77401558D01*
X-136000682Y-77691049D01*
X-136157821Y-78069480D01*
X-136158179Y-78479240D01*
X-166879909Y-78479240D01*
X-166560853Y-78266054D01*
X-166238946Y-77784285D01*
X-166125907Y-77216000D01*
X-166238946Y-76647715D01*
X-166560853Y-76165946D01*
X-166890026Y-75946000D01*
X-166560853Y-75726054D01*
X-166238946Y-75244285D01*
X-166125907Y-74676000D01*
X-166238946Y-74107715D01*
X-166560853Y-73625946D01*
X-166890026Y-73406000D01*
X-166560853Y-73186054D01*
X-166238946Y-72704285D01*
X-166125907Y-72136000D01*
X-166238946Y-71567715D01*
X-166560853Y-71085946D01*
X-166890026Y-70866000D01*
X-166560853Y-70646054D01*
X-166238946Y-70164285D01*
X-166125907Y-69596000D01*
X-166228545Y-69080000D01*
X-127637440Y-69080000D01*
X-127637440Y-70580000D01*
X-127593162Y-70815317D01*
X-127454090Y-71031441D01*
X-127381000Y-71081381D01*
X-127381000Y-74041000D01*
X-127372315Y-74087159D01*
X-127345035Y-74129553D01*
X-127303410Y-74157994D01*
X-127254000Y-74168000D01*
X-122936000Y-74168000D01*
X-122889841Y-74159315D01*
X-122847447Y-74132035D01*
X-122819006Y-74090410D01*
X-122809000Y-74041000D01*
X-122809000Y-73267000D01*
X-94350134Y-73267000D01*
X-94259931Y-73720480D01*
X-94003056Y-74104922D01*
X-93618614Y-74361797D01*
X-93165134Y-74452000D01*
X-92710866Y-74452000D01*
X-92257386Y-74361797D01*
X-91872944Y-74104922D01*
X-91616069Y-73720480D01*
X-91525866Y-73267000D01*
X-91616069Y-72813520D01*
X-91872944Y-72429078D01*
X-92257386Y-72172203D01*
X-92710866Y-72082000D01*
X-93165134Y-72082000D01*
X-93618614Y-72172203D01*
X-94003056Y-72429078D01*
X-94259931Y-72813520D01*
X-94350134Y-73267000D01*
X-122809000Y-73267000D01*
X-122809000Y-71082983D01*
X-122748559Y-71044090D01*
X-122603569Y-70831890D01*
X-122552560Y-70580000D01*
X-122552560Y-69080000D01*
X-122596838Y-68844683D01*
X-122735910Y-68628559D01*
X-122804006Y-68582031D01*
X-122661673Y-68439698D01*
X-122565000Y-68206309D01*
X-122565000Y-67615750D01*
X-122723750Y-67457000D01*
X-122809000Y-67457000D01*
X-122809000Y-67203000D01*
X-122723750Y-67203000D01*
X-122565000Y-67044250D01*
X-122565000Y-66453691D01*
X-122661673Y-66220302D01*
X-122809000Y-66072974D01*
X-122809000Y-65532000D01*
X-122817685Y-65485841D01*
X-122844965Y-65443447D01*
X-122886590Y-65415006D01*
X-122936000Y-65405000D01*
X-127254000Y-65405000D01*
X-127300159Y-65413685D01*
X-127342553Y-65440965D01*
X-127370994Y-65482590D01*
X-127381000Y-65532000D01*
X-127381000Y-66072974D01*
X-127528327Y-66220302D01*
X-127625000Y-66453691D01*
X-127625000Y-67044250D01*
X-127466250Y-67203000D01*
X-127381000Y-67203000D01*
X-127381000Y-67457000D01*
X-127466250Y-67457000D01*
X-127625000Y-67615750D01*
X-127625000Y-68206309D01*
X-127528327Y-68439698D01*
X-127387090Y-68580936D01*
X-127441441Y-68615910D01*
X-127586431Y-68828110D01*
X-127637440Y-69080000D01*
X-166228545Y-69080000D01*
X-166238946Y-69027715D01*
X-166560853Y-68545946D01*
X-166890026Y-68326000D01*
X-166560853Y-68106054D01*
X-166238946Y-67624285D01*
X-166125907Y-67056000D01*
X-166238946Y-66487715D01*
X-166560853Y-66005946D01*
X-166890026Y-65786000D01*
X-166560853Y-65566054D01*
X-166238946Y-65084285D01*
X-166125907Y-64516000D01*
X-166238946Y-63947715D01*
X-166560853Y-63465946D01*
X-166602452Y-63438150D01*
X-166554683Y-63429162D01*
X-166338559Y-63290090D01*
X-166193569Y-63077890D01*
X-166142560Y-62826000D01*
X-166142560Y-61126000D01*
X-166186838Y-60890683D01*
X-166325910Y-60674559D01*
X-166538110Y-60529569D01*
X-166790000Y-60478560D01*
X-168490000Y-60478560D01*
X-168725317Y-60522838D01*
X-168941441Y-60661910D01*
X-169086431Y-60874110D01*
X-169137440Y-61126000D01*
X-169137440Y-62826000D01*
X-169093162Y-63061317D01*
X-168954090Y-63277441D01*
X-168741890Y-63422431D01*
X-168674459Y-63436086D01*
X-168719147Y-63465946D01*
X-169041054Y-63947715D01*
X-169154093Y-64516000D01*
X-169418000Y-64516000D01*
X-169418000Y-59094000D01*
X-136625440Y-59094000D01*
X-136625440Y-60794000D01*
X-136581162Y-61029317D01*
X-136442090Y-61245441D01*
X-136229890Y-61390431D01*
X-135978000Y-61441440D01*
X-134278000Y-61441440D01*
X-134042683Y-61397162D01*
X-133826559Y-61258090D01*
X-133681569Y-61045890D01*
X-133667914Y-60978459D01*
X-133638054Y-61023147D01*
X-133156285Y-61345054D01*
X-132588000Y-61458093D01*
X-132019715Y-61345054D01*
X-131537946Y-61023147D01*
X-131318000Y-60693974D01*
X-131098054Y-61023147D01*
X-130616285Y-61345054D01*
X-130048000Y-61458093D01*
X-129479715Y-61345054D01*
X-128997946Y-61023147D01*
X-128778000Y-60693974D01*
X-128558054Y-61023147D01*
X-128076285Y-61345054D01*
X-127508000Y-61458093D01*
X-126939715Y-61345054D01*
X-126457946Y-61023147D01*
X-126238000Y-60693974D01*
X-126018054Y-61023147D01*
X-125536285Y-61345054D01*
X-124968000Y-61458093D01*
X-124399715Y-61345054D01*
X-123917946Y-61023147D01*
X-123690298Y-60682447D01*
X-123623183Y-60825358D01*
X-123194924Y-61215645D01*
X-122784890Y-61385476D01*
X-122555000Y-61264155D01*
X-122555000Y-60071000D01*
X-122301000Y-60071000D01*
X-122301000Y-61264155D01*
X-122071110Y-61385476D01*
X-121661076Y-61215645D01*
X-121232817Y-60825358D01*
X-120986514Y-60300892D01*
X-118789486Y-60300892D01*
X-118543183Y-60825358D01*
X-118114924Y-61215645D01*
X-117704890Y-61385476D01*
X-117475000Y-61264155D01*
X-117475000Y-60071000D01*
X-118668819Y-60071000D01*
X-118789486Y-60300892D01*
X-120986514Y-60300892D01*
X-121107181Y-60071000D01*
X-122301000Y-60071000D01*
X-122555000Y-60071000D01*
X-122575000Y-60071000D01*
X-122575000Y-59817000D01*
X-122555000Y-59817000D01*
X-122555000Y-58623845D01*
X-122301000Y-58623845D01*
X-122301000Y-59817000D01*
X-121107181Y-59817000D01*
X-120986514Y-59587108D01*
X-118789486Y-59587108D01*
X-118668819Y-59817000D01*
X-117475000Y-59817000D01*
X-117475000Y-58623845D01*
X-117221000Y-58623845D01*
X-117221000Y-59817000D01*
X-117201000Y-59817000D01*
X-117201000Y-60071000D01*
X-117221000Y-60071000D01*
X-117221000Y-61264155D01*
X-116991110Y-61385476D01*
X-116581076Y-61215645D01*
X-116152817Y-60825358D01*
X-116085702Y-60682447D01*
X-115858054Y-61023147D01*
X-115376285Y-61345054D01*
X-114808000Y-61458093D01*
X-114239715Y-61345054D01*
X-113757946Y-61023147D01*
X-113538000Y-60693974D01*
X-113318054Y-61023147D01*
X-112836285Y-61345054D01*
X-112268000Y-61458093D01*
X-111699715Y-61345054D01*
X-111217946Y-61023147D01*
X-110998000Y-60693974D01*
X-110778054Y-61023147D01*
X-110296285Y-61345054D01*
X-109728000Y-61458093D01*
X-109159715Y-61345054D01*
X-108677946Y-61023147D01*
X-108650150Y-60981548D01*
X-108641162Y-61029317D01*
X-108502090Y-61245441D01*
X-108289890Y-61390431D01*
X-108038000Y-61441440D01*
X-106338000Y-61441440D01*
X-106102683Y-61397162D01*
X-105886559Y-61258090D01*
X-105741569Y-61045890D01*
X-105690560Y-60794000D01*
X-105690560Y-59094000D01*
X-104494440Y-59094000D01*
X-104494440Y-60794000D01*
X-104450162Y-61029317D01*
X-104311090Y-61245441D01*
X-104098890Y-61390431D01*
X-103847000Y-61441440D01*
X-102147000Y-61441440D01*
X-101911683Y-61397162D01*
X-101695559Y-61258090D01*
X-101550569Y-61045890D01*
X-101528699Y-60937893D01*
X-101223924Y-61215645D01*
X-100813890Y-61385476D01*
X-100584000Y-61264155D01*
X-100584000Y-60071000D01*
X-100330000Y-60071000D01*
X-100330000Y-61264155D01*
X-100100110Y-61385476D01*
X-99690076Y-61215645D01*
X-99261817Y-60825358D01*
X-99015514Y-60300892D01*
X-99136181Y-60071000D01*
X-100330000Y-60071000D01*
X-100584000Y-60071000D01*
X-100604000Y-60071000D01*
X-100604000Y-59817000D01*
X-100584000Y-59817000D01*
X-100584000Y-58623845D01*
X-100330000Y-58623845D01*
X-100330000Y-59817000D01*
X-99136181Y-59817000D01*
X-99015514Y-59587108D01*
X-99261817Y-59062642D01*
X-99690076Y-58672355D01*
X-100100110Y-58502524D01*
X-100330000Y-58623845D01*
X-100584000Y-58623845D01*
X-100813890Y-58502524D01*
X-101223924Y-58672355D01*
X-101526937Y-58948501D01*
X-101543838Y-58858683D01*
X-101682910Y-58642559D01*
X-101895110Y-58497569D01*
X-102147000Y-58446560D01*
X-103847000Y-58446560D01*
X-104082317Y-58490838D01*
X-104298441Y-58629910D01*
X-104443431Y-58842110D01*
X-104494440Y-59094000D01*
X-105690560Y-59094000D01*
X-105734838Y-58858683D01*
X-105873910Y-58642559D01*
X-106086110Y-58497569D01*
X-106338000Y-58446560D01*
X-108038000Y-58446560D01*
X-108273317Y-58490838D01*
X-108489441Y-58629910D01*
X-108634431Y-58842110D01*
X-108648086Y-58909541D01*
X-108677946Y-58864853D01*
X-109159715Y-58542946D01*
X-109728000Y-58429907D01*
X-110296285Y-58542946D01*
X-110778054Y-58864853D01*
X-110998000Y-59194026D01*
X-111217946Y-58864853D01*
X-111699715Y-58542946D01*
X-112268000Y-58429907D01*
X-112836285Y-58542946D01*
X-113318054Y-58864853D01*
X-113538000Y-59194026D01*
X-113757946Y-58864853D01*
X-114239715Y-58542946D01*
X-114808000Y-58429907D01*
X-115376285Y-58542946D01*
X-115858054Y-58864853D01*
X-116085702Y-59205553D01*
X-116152817Y-59062642D01*
X-116581076Y-58672355D01*
X-116991110Y-58502524D01*
X-117221000Y-58623845D01*
X-117475000Y-58623845D01*
X-117704890Y-58502524D01*
X-118114924Y-58672355D01*
X-118543183Y-59062642D01*
X-118789486Y-59587108D01*
X-120986514Y-59587108D01*
X-121232817Y-59062642D01*
X-121661076Y-58672355D01*
X-122071110Y-58502524D01*
X-122301000Y-58623845D01*
X-122555000Y-58623845D01*
X-122784890Y-58502524D01*
X-123194924Y-58672355D01*
X-123623183Y-59062642D01*
X-123690298Y-59205553D01*
X-123917946Y-58864853D01*
X-124399715Y-58542946D01*
X-124968000Y-58429907D01*
X-125536285Y-58542946D01*
X-126018054Y-58864853D01*
X-126238000Y-59194026D01*
X-126457946Y-58864853D01*
X-126939715Y-58542946D01*
X-127508000Y-58429907D01*
X-128076285Y-58542946D01*
X-128558054Y-58864853D01*
X-128778000Y-59194026D01*
X-128997946Y-58864853D01*
X-129479715Y-58542946D01*
X-130048000Y-58429907D01*
X-130616285Y-58542946D01*
X-131098054Y-58864853D01*
X-131318000Y-59194026D01*
X-131537946Y-58864853D01*
X-132019715Y-58542946D01*
X-132588000Y-58429907D01*
X-133156285Y-58542946D01*
X-133638054Y-58864853D01*
X-133665850Y-58906452D01*
X-133674838Y-58858683D01*
X-133813910Y-58642559D01*
X-134026110Y-58497569D01*
X-134278000Y-58446560D01*
X-135978000Y-58446560D01*
X-136213317Y-58490838D01*
X-136429441Y-58629910D01*
X-136574431Y-58842110D01*
X-136625440Y-59094000D01*
X-169418000Y-59094000D01*
X-169418000Y-58293000D01*
X-92952000Y-58293000D01*
X-92952000Y-61929000D01*
M02*
