G04 #@! TF.FileFunction,Copper,L1,Top,Signal*
%FSLAX46Y46*%
G04 Gerber Fmt 4.6, Leading zero omitted, Abs format (unit mm)*
G04 Created by KiCad (PCBNEW 4.0.7-e2-6376~61~ubuntu18.04.1) date Thu Jul 26 12:06:53 2018*
%MOMM*%
%LPD*%
G01*
G04 APERTURE LIST*
%ADD10C,0.100000*%
%ADD11C,0.300000*%
%ADD12C,1.500000*%
%ADD13R,1.500000X0.300000*%
%ADD14R,0.300000X1.500000*%
%ADD15R,1.700000X1.700000*%
%ADD16O,1.700000X1.700000*%
%ADD17R,1.500000X1.250000*%
%ADD18R,1.250000X1.500000*%
%ADD19C,1.000000*%
%ADD20R,0.600000X0.700000*%
%ADD21R,1.000000X0.700000*%
%ADD22R,1.200000X0.900000*%
%ADD23R,1.650000X0.400000*%
%ADD24O,1.500000X1.100000*%
%ADD25C,1.700000*%
%ADD26R,2.500000X1.425000*%
%ADD27R,1.500000X1.300000*%
%ADD28R,0.800000X1.900000*%
%ADD29R,0.900000X1.200000*%
%ADD30C,0.790000*%
%ADD31C,0.254000*%
%ADD32C,0.304800*%
%ADD33C,0.508000*%
%ADD34C,0.812800*%
%ADD35C,0.406400*%
%ADD36C,0.457200*%
%ADD37C,0.177800*%
%ADD38C,0.609600*%
%ADD39C,0.355600*%
G04 APERTURE END LIST*
D10*
D11*
X-92122571Y-59122571D02*
X-91265428Y-59122571D01*
X-91693999Y-60622571D02*
X-91693999Y-59122571D01*
X-104600428Y-60622571D02*
X-105457571Y-60622571D01*
X-105028999Y-60622571D02*
X-105028999Y-59122571D01*
X-105171856Y-59336857D01*
X-105314714Y-59479714D01*
X-105457571Y-59551143D01*
X-134445428Y-103675571D02*
X-135302571Y-103675571D01*
X-134873999Y-103675571D02*
X-134873999Y-102175571D01*
X-135016856Y-102389857D01*
X-135159714Y-102532714D01*
X-135302571Y-102604143D01*
D12*
X-102920800Y-92456000D03*
X-107800800Y-92456000D03*
D13*
X-121905000Y-78546000D03*
X-121905000Y-79046000D03*
X-121905000Y-79546000D03*
X-121905000Y-80046000D03*
X-121905000Y-80546000D03*
X-121905000Y-81046000D03*
X-121905000Y-81546000D03*
X-121905000Y-82046000D03*
X-121905000Y-82546000D03*
X-121905000Y-83046000D03*
X-121905000Y-83546000D03*
X-121905000Y-84046000D03*
X-121905000Y-84546000D03*
X-121905000Y-85046000D03*
X-121905000Y-85546000D03*
X-121905000Y-86046000D03*
D14*
X-119955000Y-87996000D03*
X-119455000Y-87996000D03*
X-118955000Y-87996000D03*
X-118455000Y-87996000D03*
X-117955000Y-87996000D03*
X-117455000Y-87996000D03*
X-116955000Y-87996000D03*
X-116455000Y-87996000D03*
X-115955000Y-87996000D03*
X-115455000Y-87996000D03*
X-114955000Y-87996000D03*
X-114455000Y-87996000D03*
X-113955000Y-87996000D03*
X-113455000Y-87996000D03*
X-112955000Y-87996000D03*
X-112455000Y-87996000D03*
D13*
X-110505000Y-86046000D03*
X-110505000Y-85546000D03*
X-110505000Y-85046000D03*
X-110505000Y-84546000D03*
X-110505000Y-84046000D03*
X-110505000Y-83546000D03*
X-110505000Y-83046000D03*
X-110505000Y-82546000D03*
X-110505000Y-82046000D03*
X-110505000Y-81546000D03*
X-110505000Y-81046000D03*
X-110505000Y-80546000D03*
X-110505000Y-80046000D03*
X-110505000Y-79546000D03*
X-110505000Y-79046000D03*
X-110505000Y-78546000D03*
D14*
X-112455000Y-76596000D03*
X-112955000Y-76596000D03*
X-113455000Y-76596000D03*
X-113955000Y-76596000D03*
X-114455000Y-76596000D03*
X-114955000Y-76596000D03*
X-115455000Y-76596000D03*
X-115955000Y-76596000D03*
X-116455000Y-76596000D03*
X-116955000Y-76596000D03*
X-117455000Y-76596000D03*
X-117955000Y-76596000D03*
X-118455000Y-76596000D03*
X-118955000Y-76596000D03*
X-119455000Y-76596000D03*
X-119955000Y-76596000D03*
D15*
X-167640000Y-61976000D03*
D16*
X-167640000Y-64516000D03*
X-167640000Y-67056000D03*
X-167640000Y-69596000D03*
X-167640000Y-72136000D03*
X-167640000Y-74676000D03*
X-167640000Y-77216000D03*
X-167640000Y-79756000D03*
X-167640000Y-82296000D03*
X-167640000Y-84836000D03*
X-167640000Y-87376000D03*
X-167640000Y-89916000D03*
X-167640000Y-92456000D03*
X-167640000Y-94996000D03*
X-167640000Y-97536000D03*
X-167640000Y-100076000D03*
D17*
X-114534000Y-69469000D03*
X-112034000Y-69469000D03*
D18*
X-132842000Y-78212000D03*
X-132842000Y-75712000D03*
D19*
X-125958600Y-72390000D03*
X-124258600Y-72390000D03*
D18*
X-105410000Y-68727000D03*
X-105410000Y-71227000D03*
X-117221000Y-91815600D03*
X-117221000Y-94315600D03*
D17*
X-99675000Y-71628000D03*
X-97175000Y-71628000D03*
X-107320400Y-85547200D03*
X-104820400Y-85547200D03*
X-94508000Y-67056000D03*
X-97008000Y-67056000D03*
X-147594000Y-64516000D03*
X-150094000Y-64516000D03*
X-154920000Y-67056000D03*
X-152420000Y-67056000D03*
X-154920000Y-69596000D03*
X-152420000Y-69596000D03*
X-147594000Y-72136000D03*
X-150094000Y-72136000D03*
X-147594000Y-74676000D03*
X-150094000Y-74676000D03*
X-154920000Y-77216000D03*
X-152420000Y-77216000D03*
X-154920000Y-79756000D03*
X-152420000Y-79756000D03*
X-147594000Y-82296000D03*
X-150094000Y-82296000D03*
X-114534000Y-71374000D03*
X-112034000Y-71374000D03*
X-138156000Y-80264000D03*
X-135656000Y-80264000D03*
X-130830000Y-80264000D03*
X-133330000Y-80264000D03*
D18*
X-130810000Y-78212000D03*
X-130810000Y-75712000D03*
D17*
X-154920000Y-64516000D03*
X-152420000Y-64516000D03*
X-147594000Y-67056000D03*
X-150094000Y-67056000D03*
X-147594000Y-69596000D03*
X-150094000Y-69596000D03*
X-154920000Y-72136000D03*
X-152420000Y-72136000D03*
X-154920000Y-74676000D03*
X-152420000Y-74676000D03*
X-147594000Y-77216000D03*
X-150094000Y-77216000D03*
X-147594000Y-79756000D03*
X-150094000Y-79756000D03*
X-154920000Y-82296000D03*
X-152420000Y-82296000D03*
D20*
X-97678600Y-77708200D03*
X-95778600Y-77708200D03*
X-97678600Y-74308200D03*
D21*
X-95978600Y-74308200D03*
X-95978600Y-75008200D03*
D20*
X-97678600Y-75008200D03*
X-97678600Y-77008200D03*
X-95778600Y-77008200D03*
D22*
X-162476000Y-64516000D03*
X-164676000Y-64516000D03*
X-162476000Y-67056000D03*
X-164676000Y-67056000D03*
X-162476000Y-69596000D03*
X-164676000Y-69596000D03*
X-162476000Y-72136000D03*
X-164676000Y-72136000D03*
X-162476000Y-74676000D03*
X-164676000Y-74676000D03*
X-162476000Y-77216000D03*
X-164676000Y-77216000D03*
X-162476000Y-79756000D03*
X-164676000Y-79756000D03*
X-162476000Y-82296000D03*
X-164676000Y-82296000D03*
D23*
X-92813000Y-76992000D03*
X-92813000Y-76342000D03*
X-92813000Y-75692900D03*
X-92813000Y-75042000D03*
X-92813000Y-74392000D03*
D24*
X-92938000Y-78117000D03*
X-92938000Y-73267000D03*
D25*
X-89938000Y-78417000D03*
X-89938000Y-72967000D03*
D26*
X-89688000Y-76654500D03*
X-89688000Y-74729500D03*
D27*
X-94408000Y-69342000D03*
X-97108000Y-69342000D03*
X-157146000Y-64516000D03*
X-159846000Y-64516000D03*
X-157146000Y-67056000D03*
X-159846000Y-67056000D03*
X-157146000Y-69596000D03*
X-159846000Y-69596000D03*
X-157146000Y-72136000D03*
X-159846000Y-72136000D03*
X-157146000Y-74676000D03*
X-159846000Y-74676000D03*
X-157146000Y-77216000D03*
X-159846000Y-77216000D03*
X-157146000Y-79756000D03*
X-159846000Y-79756000D03*
X-157146000Y-82296000D03*
X-159846000Y-82296000D03*
X-111934000Y-66294000D03*
X-114634000Y-66294000D03*
D28*
X-101666000Y-68731000D03*
X-103566000Y-68731000D03*
X-102616000Y-71731000D03*
D15*
X-102997000Y-59944000D03*
D16*
X-100457000Y-59944000D03*
D22*
X-128270000Y-78360000D03*
X-128270000Y-81660000D03*
D18*
X-105410000Y-75926000D03*
X-105410000Y-73426000D03*
D29*
X-99696000Y-65278000D03*
X-102996000Y-65278000D03*
D22*
X-99669600Y-74423000D03*
X-99669600Y-77723000D03*
D17*
X-135148000Y-62738000D03*
X-137648000Y-62738000D03*
X-164572000Y-61976000D03*
X-162072000Y-61976000D03*
D27*
X-157146000Y-84836000D03*
X-159846000Y-84836000D03*
X-157146000Y-87376000D03*
X-159846000Y-87376000D03*
X-157146000Y-89916000D03*
X-159846000Y-89916000D03*
X-157146000Y-92456000D03*
X-159846000Y-92456000D03*
X-157146000Y-94996000D03*
X-159846000Y-94996000D03*
D17*
X-154920000Y-84836000D03*
X-152420000Y-84836000D03*
X-154920000Y-87376000D03*
X-152420000Y-87376000D03*
X-147594000Y-84836000D03*
X-150094000Y-84836000D03*
X-147594000Y-87376000D03*
X-150094000Y-87376000D03*
X-154920000Y-89916000D03*
X-152420000Y-89916000D03*
X-154920000Y-92456000D03*
X-152420000Y-92456000D03*
X-154920000Y-94996000D03*
X-152420000Y-94996000D03*
X-147594000Y-89916000D03*
X-150094000Y-89916000D03*
X-147594000Y-92456000D03*
X-150094000Y-92456000D03*
X-147594000Y-94996000D03*
X-150094000Y-94996000D03*
D22*
X-162476000Y-84836000D03*
X-164676000Y-84836000D03*
X-162476000Y-87376000D03*
X-164676000Y-87376000D03*
X-162476000Y-89916000D03*
X-164676000Y-89916000D03*
X-162476000Y-92456000D03*
X-164676000Y-92456000D03*
X-162476000Y-94996000D03*
X-164676000Y-94996000D03*
D15*
X-114300000Y-103124000D03*
D16*
X-111760000Y-103124000D03*
X-109220000Y-103124000D03*
X-106680000Y-103124000D03*
X-104140000Y-103124000D03*
X-101600000Y-103124000D03*
D17*
X-154920000Y-97536000D03*
X-152420000Y-97536000D03*
X-147594000Y-97536000D03*
X-150094000Y-97536000D03*
D22*
X-162476000Y-97536000D03*
X-164676000Y-97536000D03*
D27*
X-157146000Y-97536000D03*
X-159846000Y-97536000D03*
D15*
X-132080000Y-103124000D03*
D16*
X-129540000Y-103124000D03*
X-127000000Y-103124000D03*
X-124460000Y-103124000D03*
X-121920000Y-103124000D03*
X-119380000Y-103124000D03*
D15*
X-135128000Y-59944000D03*
D16*
X-132588000Y-59944000D03*
X-130048000Y-59944000D03*
X-127508000Y-59944000D03*
X-124968000Y-59944000D03*
X-122428000Y-59944000D03*
D15*
X-107188000Y-59944000D03*
D16*
X-109728000Y-59944000D03*
X-112268000Y-59944000D03*
X-114808000Y-59944000D03*
X-117348000Y-59944000D03*
D30*
X-107264200Y-75926000D03*
X-92583000Y-85344000D03*
X-101625400Y-79781400D03*
X-145211800Y-88773000D03*
X-130810000Y-89230200D03*
X-89509600Y-103886000D03*
X-94742000Y-100812600D03*
X-116814600Y-102971600D03*
X-112928400Y-97942400D03*
X-99339400Y-96799400D03*
X-102539800Y-74574400D03*
X-102539800Y-85699600D03*
X-118973600Y-80975200D03*
X-119151400Y-94361000D03*
X-106273600Y-78333600D03*
X-114706400Y-74345800D03*
X-116713000Y-89865200D03*
X-108889800Y-87172800D03*
X-110744000Y-69342000D03*
X-151130000Y-97536000D03*
X-136652000Y-104013000D03*
X-151003000Y-104013000D03*
X-160020000Y-61976000D03*
X-167640000Y-59563000D03*
X-134366000Y-75692000D03*
X-127000000Y-75692000D03*
X-133604000Y-64897000D03*
X-137287000Y-64770000D03*
X-134366000Y-80264000D03*
X-151130000Y-64516000D03*
X-151130000Y-94996000D03*
X-151130000Y-92456000D03*
X-151130000Y-89916000D03*
X-151130000Y-87376000D03*
X-151130000Y-84836000D03*
X-151130000Y-82296000D03*
X-151130000Y-79756000D03*
X-151130000Y-77216000D03*
X-151130000Y-74676000D03*
X-151130000Y-69596000D03*
X-151130000Y-72136000D03*
X-151130000Y-67056000D03*
X-97028000Y-64008000D03*
X-134366000Y-77470000D03*
X-127254000Y-79502000D03*
X-126206000Y-80296000D03*
X-135128000Y-78275259D03*
X-126746000Y-81788000D03*
D31*
X-113538000Y-84709000D02*
X-113538000Y-85546000D01*
X-113538000Y-85546000D02*
X-113538000Y-85547200D01*
X-113538000Y-85547200D02*
X-113538000Y-85546000D01*
X-110505000Y-85546000D02*
X-113538000Y-85546000D01*
X-113538000Y-85546000D02*
X-117296000Y-85546000D01*
X-117296000Y-85546000D02*
X-117955000Y-86205000D01*
X-117221000Y-91815600D02*
X-117221000Y-90449400D01*
X-117221000Y-90449400D02*
X-117955000Y-89715400D01*
X-115955000Y-76596000D02*
X-115955000Y-78546000D01*
X-110505000Y-78546000D02*
X-115955000Y-78546000D01*
X-117955000Y-87996000D02*
X-117955000Y-89715400D01*
X-110505000Y-85546000D02*
X-107321600Y-85546000D01*
X-107321600Y-85546000D02*
X-107320400Y-85547200D01*
X-107264200Y-75926000D02*
X-107264200Y-77520800D01*
X-110505000Y-78546000D02*
X-108289400Y-78546000D01*
X-107264200Y-77520800D02*
X-108289400Y-78546000D01*
X-115955000Y-76596000D02*
X-115955000Y-69879400D01*
X-115544600Y-69469000D02*
X-114534000Y-69469000D01*
X-115955000Y-69879400D02*
X-115544600Y-69469000D01*
X-110505000Y-78546000D02*
X-113376400Y-78546000D01*
X-113538000Y-78707600D02*
X-113538000Y-79451200D01*
X-113538000Y-79451200D02*
X-113538000Y-81965800D01*
X-113538000Y-81965800D02*
X-113538000Y-84709000D01*
X-113376400Y-78546000D02*
X-113538000Y-78707600D01*
X-117955000Y-86205000D02*
X-117955000Y-87996000D01*
D32*
X-114534000Y-69469000D02*
X-114534000Y-68306000D01*
X-114534000Y-68306000D02*
X-114046000Y-67818000D01*
X-114046000Y-67818000D02*
X-112522000Y-67818000D01*
X-112522000Y-67818000D02*
X-111934000Y-67230000D01*
X-111934000Y-67230000D02*
X-111934000Y-66294000D01*
X-114634000Y-69369000D02*
X-114534000Y-69469000D01*
D33*
X-102997000Y-104648000D02*
X-102108000Y-104648000D01*
X-101600000Y-104140000D02*
X-101600000Y-103124000D01*
X-102108000Y-104648000D02*
X-101600000Y-104140000D01*
X-119380000Y-103124000D02*
X-119380000Y-104267000D01*
X-118999000Y-104648000D02*
X-102997000Y-104648000D01*
X-119380000Y-104267000D02*
X-118999000Y-104648000D01*
X-101600000Y-103124000D02*
X-94615000Y-103124000D01*
X-92583000Y-101092000D02*
X-92583000Y-85344000D01*
X-94615000Y-103124000D02*
X-92583000Y-101092000D01*
D34*
X-105410000Y-75926000D02*
X-107264200Y-75926000D01*
X-107264200Y-75926000D02*
X-107315000Y-75926000D01*
X-107315000Y-75926000D02*
X-107315000Y-68580000D01*
D33*
X-119380000Y-103124000D02*
X-119380000Y-103251000D01*
X-101600000Y-103759000D02*
X-101600000Y-103124000D01*
D34*
X-107315000Y-68580000D02*
X-107315000Y-59817000D01*
X-107315000Y-59817000D02*
X-107188000Y-59944000D01*
D35*
X-107014000Y-59262000D02*
X-107188000Y-59436000D01*
X-107141000Y-59389000D02*
X-107188000Y-59436000D01*
D34*
X-107315000Y-68707000D02*
X-107315000Y-68580000D01*
X-107295000Y-68727000D02*
X-105410000Y-68727000D01*
X-107315000Y-68707000D02*
X-107295000Y-68727000D01*
X-103566000Y-68731000D02*
X-105406000Y-68731000D01*
X-105406000Y-68731000D02*
X-105410000Y-68727000D01*
D36*
X-105780000Y-76296000D02*
X-105410000Y-75926000D01*
X-105415600Y-75931600D02*
X-105410000Y-75926000D01*
D34*
X-105456000Y-68773000D02*
X-105410000Y-68727000D01*
D35*
X-105415600Y-75931600D02*
X-105410000Y-75926000D01*
D32*
X-111887000Y-66247000D02*
X-111934000Y-66294000D01*
D33*
X-143713200Y-88315800D02*
X-144754600Y-88315800D01*
X-144754600Y-88315800D02*
X-145211800Y-88773000D01*
X-130810000Y-89230200D02*
X-129336800Y-89230200D01*
X-89916000Y-103581200D02*
X-89814400Y-103581200D01*
X-89814400Y-103581200D02*
X-89509600Y-103886000D01*
X-94107000Y-100380800D02*
X-94310200Y-100380800D01*
X-94310200Y-100380800D02*
X-94742000Y-100812600D01*
X-112852200Y-97713800D02*
X-112852200Y-97866200D01*
X-112852200Y-97866200D02*
X-112928400Y-97942400D01*
X-102616000Y-71731000D02*
X-102616000Y-74498200D01*
X-102616000Y-74498200D02*
X-102539800Y-74574400D01*
X-104820400Y-85547200D02*
X-102692200Y-85547200D01*
X-102692200Y-85547200D02*
X-102539800Y-85699600D01*
D31*
X-121905000Y-81546000D02*
X-119544400Y-81546000D01*
X-119544400Y-81546000D02*
X-118973600Y-80975200D01*
X-117221000Y-94315600D02*
X-119106000Y-94315600D01*
X-119106000Y-94315600D02*
X-119151400Y-94361000D01*
D34*
X-105410000Y-73426000D02*
X-103530400Y-73426000D01*
X-103530400Y-74650600D02*
X-103505000Y-74676000D01*
X-103530400Y-73426000D02*
X-103530400Y-74650600D01*
D36*
X-105410000Y-73426000D02*
X-103505000Y-73426000D01*
X-103505000Y-74676000D02*
X-103505000Y-73426000D01*
D31*
X-110505000Y-79046000D02*
X-106986000Y-79046000D01*
X-106986000Y-79046000D02*
X-106273600Y-78333600D01*
X-114955000Y-76596000D02*
X-114955000Y-74594400D01*
X-114955000Y-74594400D02*
X-114706400Y-74345800D01*
X-117455000Y-87996000D02*
X-117455000Y-89123200D01*
X-117455000Y-89123200D02*
X-116713000Y-89865200D01*
X-110505000Y-86046000D02*
X-109000600Y-86046000D01*
X-108889800Y-86156800D02*
X-108889800Y-87172800D01*
X-109000600Y-86046000D02*
X-108889800Y-86156800D01*
D36*
X-111526000Y-69469000D02*
X-110764000Y-69362000D01*
X-110764000Y-69362000D02*
X-110744000Y-69342000D01*
D32*
X-150348000Y-97536000D02*
X-151130000Y-97536000D01*
D35*
X-151003000Y-104013000D02*
X-136652000Y-104013000D01*
D34*
X-162072000Y-61976000D02*
X-160020000Y-61976000D01*
X-134366000Y-75692000D02*
X-132842000Y-75692000D01*
D33*
X-137648000Y-62738000D02*
X-137648000Y-64409000D01*
X-137648000Y-64409000D02*
X-137287000Y-64770000D01*
D34*
X-133330000Y-80264000D02*
X-134366000Y-80264000D01*
X-135656000Y-80264000D02*
X-133330000Y-80264000D01*
D32*
X-150094000Y-64516000D02*
X-151130000Y-64516000D01*
X-150348000Y-97536000D02*
X-151384000Y-97536000D01*
X-150094000Y-94996000D02*
X-151130000Y-94996000D01*
X-150094000Y-92456000D02*
X-151130000Y-92456000D01*
X-150094000Y-89916000D02*
X-151130000Y-89916000D01*
X-150094000Y-87376000D02*
X-151130000Y-87376000D01*
X-150094000Y-84836000D02*
X-151130000Y-84836000D01*
X-150094000Y-82296000D02*
X-151130000Y-82296000D01*
X-150094000Y-79756000D02*
X-151130000Y-79756000D01*
X-150094000Y-77216000D02*
X-151130000Y-77216000D01*
X-150094000Y-77216000D02*
X-152420000Y-77216000D01*
X-150094000Y-74676000D02*
X-151130000Y-74676000D01*
X-150094000Y-74676000D02*
X-152420000Y-74676000D01*
X-152420000Y-69596000D02*
X-151130000Y-69596000D01*
X-150094000Y-72136000D02*
X-151130000Y-72136000D01*
X-150094000Y-72136000D02*
X-152420000Y-72136000D01*
X-150094000Y-67056000D02*
X-151130000Y-67056000D01*
D34*
X-132842000Y-75712000D02*
X-130810000Y-75712000D01*
X-105410000Y-71227000D02*
X-105410000Y-73426000D01*
X-102616000Y-71731000D02*
X-102616000Y-72898000D01*
X-103144000Y-73426000D02*
X-105410000Y-73426000D01*
X-102616000Y-72898000D02*
X-103144000Y-73426000D01*
X-95978600Y-74308200D02*
X-95978600Y-71915400D01*
X-96266000Y-71628000D02*
X-97175000Y-71628000D01*
X-95978600Y-71915400D02*
X-96266000Y-71628000D01*
D37*
X-95978600Y-75008200D02*
X-95978600Y-74308200D01*
D34*
X-97108000Y-69342000D02*
X-97108000Y-71561000D01*
X-97108000Y-71561000D02*
X-97175000Y-71628000D01*
X-97008000Y-67056000D02*
X-97008000Y-69242000D01*
X-97008000Y-69242000D02*
X-97108000Y-69342000D01*
D31*
X-92813000Y-74392000D02*
X-95894800Y-74392000D01*
X-95894800Y-74392000D02*
X-95978600Y-74308200D01*
D36*
X-102826000Y-71521000D02*
X-102616000Y-71731000D01*
D34*
X-97028000Y-64008000D02*
X-97028000Y-67036000D01*
X-97028000Y-67036000D02*
X-97008000Y-67056000D01*
D38*
X-97108000Y-67156000D02*
X-97008000Y-67056000D01*
X-97175000Y-69409000D02*
X-97108000Y-69342000D01*
D32*
X-95894800Y-74392000D02*
X-95978600Y-74308200D01*
X-95978600Y-74308200D02*
X-95978600Y-75008200D01*
D31*
X-128270000Y-78360000D02*
X-125652800Y-78360000D01*
X-125652800Y-78360000D02*
X-123966800Y-80046000D01*
X-121905000Y-80046000D02*
X-123966800Y-80046000D01*
D38*
X-135148000Y-62738000D02*
X-135148000Y-59964000D01*
X-135148000Y-59964000D02*
X-135128000Y-59944000D01*
D34*
X-135128000Y-59944000D02*
X-163703000Y-59944000D01*
X-163703000Y-59944000D02*
X-164298000Y-59944000D01*
X-164298000Y-59944000D02*
X-164572000Y-60218000D01*
X-135128000Y-59944000D02*
X-135128000Y-72136000D01*
X-135128000Y-72136000D02*
X-133858000Y-73406000D01*
X-129540000Y-73406000D02*
X-133858000Y-73406000D01*
X-128270000Y-78360000D02*
X-128270000Y-74676000D01*
X-128270000Y-74676000D02*
X-129540000Y-73406000D01*
X-164572000Y-60218000D02*
X-164572000Y-61976000D01*
X-164572000Y-61976000D02*
X-164572000Y-60218000D01*
X-164572000Y-61976000D02*
X-167640000Y-61976000D01*
D35*
X-132842000Y-78212000D02*
X-130810000Y-78212000D01*
D34*
X-132842000Y-78212000D02*
X-128418000Y-78212000D01*
X-128418000Y-78212000D02*
X-128270000Y-78360000D01*
X-99669600Y-77723000D02*
X-99669600Y-78384400D01*
X-95778600Y-78125600D02*
X-95778600Y-77708200D01*
X-96647000Y-78994000D02*
X-95778600Y-78125600D01*
X-99060000Y-78994000D02*
X-96647000Y-78994000D01*
X-99669600Y-78384400D02*
X-99060000Y-78994000D01*
D31*
X-92813000Y-76992000D02*
X-95762400Y-76992000D01*
X-95762400Y-76992000D02*
X-95778600Y-77008200D01*
X-95778600Y-77008200D02*
X-95778600Y-77708200D01*
D32*
X-95762400Y-76992000D02*
X-95778600Y-77008200D01*
X-95778600Y-77008200D02*
X-95778600Y-77708200D01*
D34*
X-99669600Y-74423000D02*
X-99669600Y-71633400D01*
X-99669600Y-71633400D02*
X-99675000Y-71628000D01*
X-99675000Y-68834000D02*
X-101563000Y-68834000D01*
X-101563000Y-68834000D02*
X-101666000Y-68731000D01*
X-99675000Y-71628000D02*
X-99675000Y-68834000D01*
X-99675000Y-68834000D02*
X-99675000Y-65299000D01*
X-99675000Y-65299000D02*
X-99696000Y-65278000D01*
D38*
X-99822000Y-71775000D02*
X-99675000Y-71628000D01*
D34*
X-92938000Y-73267000D02*
X-92938000Y-69749000D01*
X-93345000Y-69342000D02*
X-94408000Y-69342000D01*
X-92938000Y-69749000D02*
X-93345000Y-69342000D01*
X-94508000Y-67056000D02*
X-94508000Y-69242000D01*
X-94508000Y-69242000D02*
X-94408000Y-69342000D01*
D38*
X-89688000Y-74729500D02*
X-89688000Y-73217000D01*
X-89688000Y-73217000D02*
X-89938000Y-72967000D01*
X-89688000Y-76654500D02*
X-89688000Y-78167000D01*
X-89688000Y-78167000D02*
X-89938000Y-78417000D01*
X-89688000Y-74729500D02*
X-89688000Y-76654500D01*
X-92938000Y-73267000D02*
X-92938000Y-73051000D01*
X-94408000Y-67156000D02*
X-94508000Y-67056000D01*
D32*
X-89938000Y-78417000D02*
X-92638000Y-78417000D01*
X-92638000Y-78417000D02*
X-92938000Y-78117000D01*
X-89938000Y-72967000D02*
X-92638000Y-72967000D01*
X-92638000Y-72967000D02*
X-92938000Y-73267000D01*
D31*
X-127254000Y-79502000D02*
X-125577600Y-79502000D01*
X-124533600Y-80546000D02*
X-121905000Y-80546000D01*
X-125577600Y-79502000D02*
X-124533600Y-80546000D01*
X-147594000Y-64516000D02*
X-139954000Y-64516000D01*
D32*
X-134366000Y-77470000D02*
X-136906000Y-77470000D01*
X-138430000Y-76454000D02*
X-137414000Y-77470000D01*
X-138430000Y-66040000D02*
X-138430000Y-76454000D01*
X-137414000Y-77470000D02*
X-136906000Y-77470000D01*
D31*
X-139954000Y-64516000D02*
X-138430000Y-66040000D01*
D32*
X-127248000Y-79496000D02*
X-127254000Y-79502000D01*
D35*
X-127248000Y-79496000D02*
X-127254000Y-79502000D01*
D32*
X-154920000Y-64516000D02*
X-154920000Y-65766000D01*
X-147594000Y-65766000D02*
X-147594000Y-64516000D01*
X-147574000Y-65786000D02*
X-147594000Y-65766000D01*
X-154900000Y-65786000D02*
X-147574000Y-65786000D01*
X-154920000Y-65766000D02*
X-154900000Y-65786000D01*
X-157146000Y-64516000D02*
X-154920000Y-64516000D01*
D34*
X-154706000Y-64516000D02*
X-154686000Y-64536000D01*
D39*
X-157226000Y-64536000D02*
X-157206000Y-64516000D01*
D31*
X-126206000Y-80296000D02*
X-126206000Y-80550000D01*
X-125710000Y-81046000D02*
X-121905000Y-81046000D01*
X-126206000Y-80550000D02*
X-125710000Y-81046000D01*
X-141732000Y-67056000D02*
X-139700000Y-69088000D01*
X-139700000Y-76454000D02*
X-137878741Y-78275259D01*
X-139700000Y-69088000D02*
X-139700000Y-76454000D01*
X-137878741Y-78275259D02*
X-137711259Y-78275259D01*
X-137668000Y-78232000D02*
X-137668000Y-78275259D01*
X-137711259Y-78275259D02*
X-137668000Y-78232000D01*
X-147594000Y-67056000D02*
X-141732000Y-67056000D01*
D32*
X-135128000Y-78275259D02*
X-137668000Y-78275259D01*
X-137668000Y-78275259D02*
X-137878741Y-78275259D01*
X-135128000Y-78275259D02*
X-135128000Y-78275259D01*
X-154920000Y-67056000D02*
X-154920000Y-68306000D01*
X-147594000Y-68306000D02*
X-147594000Y-67056000D01*
X-147574000Y-68326000D02*
X-147594000Y-68306000D01*
X-154900000Y-68326000D02*
X-147574000Y-68326000D01*
X-154920000Y-68306000D02*
X-154900000Y-68326000D01*
X-157146000Y-67056000D02*
X-154920000Y-67056000D01*
D31*
X-123647200Y-82546000D02*
X-138688000Y-82546000D01*
X-138688000Y-82546000D02*
X-139192000Y-82042000D01*
X-121905000Y-82546000D02*
X-123647200Y-82546000D01*
X-142494000Y-69596000D02*
X-147594000Y-69596000D01*
X-142494000Y-69596000D02*
X-140716000Y-71374000D01*
X-140716000Y-71374000D02*
X-140716000Y-80518000D01*
X-140716000Y-80518000D02*
X-139192000Y-82042000D01*
D32*
X-147594000Y-69596000D02*
X-145034000Y-69596000D01*
X-147594000Y-70846000D02*
X-147594000Y-69596000D01*
X-154900000Y-70866000D02*
X-147574000Y-70866000D01*
X-147574000Y-70866000D02*
X-147594000Y-70846000D01*
X-154920000Y-69596000D02*
X-157146000Y-69596000D01*
X-154920000Y-70846000D02*
X-154900000Y-70866000D01*
X-154920000Y-69596000D02*
X-154920000Y-70846000D01*
D31*
X-121905000Y-83046000D02*
X-139458000Y-83046000D01*
X-139458000Y-83046000D02*
X-141732000Y-80772000D01*
X-141732000Y-80772000D02*
X-141732000Y-73406000D01*
X-141732000Y-73406000D02*
X-143002000Y-72136000D01*
X-143002000Y-72136000D02*
X-147594000Y-72136000D01*
X-143002000Y-72136000D02*
X-147594000Y-72136000D01*
D32*
X-154920000Y-72136000D02*
X-154920000Y-73386000D01*
X-154920000Y-73386000D02*
X-154900000Y-73406000D01*
X-154900000Y-73406000D02*
X-147574000Y-73406000D01*
X-147574000Y-73406000D02*
X-147594000Y-73386000D01*
X-147594000Y-73386000D02*
X-147594000Y-72136000D01*
X-154920000Y-72136000D02*
X-157146000Y-72136000D01*
D31*
X-121905000Y-83546000D02*
X-140228000Y-83546000D01*
X-140228000Y-83546000D02*
X-142748000Y-81026000D01*
X-142748000Y-81026000D02*
X-142748000Y-75438000D01*
X-123373200Y-83540600D02*
X-121910400Y-83540600D01*
X-121910400Y-83540600D02*
X-121905000Y-83546000D01*
X-123373200Y-83540600D02*
X-123373200Y-83546000D01*
X-121905000Y-83546000D02*
X-123373200Y-83546000D01*
X-123373200Y-83546000D02*
X-123373200Y-83546000D01*
X-142748000Y-75438000D02*
X-143510000Y-74676000D01*
X-143510000Y-74676000D02*
X-147594000Y-74676000D01*
X-143510000Y-74676000D02*
X-142748000Y-75438000D01*
X-143510000Y-74676000D02*
X-142748000Y-75438000D01*
D32*
X-154920000Y-74676000D02*
X-154920000Y-75926000D01*
X-147594000Y-75926000D02*
X-147594000Y-74676000D01*
X-147574000Y-75946000D02*
X-147594000Y-75926000D01*
X-154900000Y-75946000D02*
X-147574000Y-75946000D01*
X-154920000Y-75926000D02*
X-154900000Y-75946000D01*
X-154920000Y-74676000D02*
X-157146000Y-74676000D01*
D31*
X-121905000Y-84046000D02*
X-140998000Y-84046000D01*
X-140998000Y-84046000D02*
X-143764000Y-81280000D01*
X-143764000Y-81153000D02*
X-143764000Y-81280000D01*
X-147594000Y-77216000D02*
X-144272000Y-77216000D01*
X-144272000Y-77216000D02*
X-143764000Y-77724000D01*
X-143764000Y-81153000D02*
X-143764000Y-77724000D01*
D32*
X-154920000Y-77216000D02*
X-154920000Y-78466000D01*
X-147594000Y-78466000D02*
X-147594000Y-77216000D01*
X-147574000Y-78486000D02*
X-147594000Y-78466000D01*
X-154900000Y-78486000D02*
X-147574000Y-78486000D01*
X-154920000Y-78466000D02*
X-154900000Y-78486000D01*
X-157146000Y-77216000D02*
X-154920000Y-77216000D01*
D31*
X-147594000Y-79756000D02*
X-145542000Y-79756000D01*
X-144957800Y-81407000D02*
X-144957800Y-81356200D01*
X-144932400Y-81381600D02*
X-144957800Y-81407000D01*
X-144932400Y-80365600D02*
X-144932400Y-81381600D01*
X-145542000Y-79756000D02*
X-144932400Y-80365600D01*
X-121905000Y-84546000D02*
X-141768000Y-84546000D01*
X-141768000Y-84546000D02*
X-144957800Y-81356200D01*
D32*
X-147574000Y-79776000D02*
X-147574000Y-81026000D01*
X-154920000Y-81006000D02*
X-154900000Y-81026000D01*
X-154900000Y-81026000D02*
X-147574000Y-81026000D01*
X-154920000Y-81006000D02*
X-154920000Y-79756000D01*
X-147574000Y-79776000D02*
X-147594000Y-79756000D01*
X-154920000Y-79756000D02*
X-157146000Y-79756000D01*
D31*
X-121905000Y-85046000D02*
X-142665000Y-85046000D01*
X-142665000Y-85046000D02*
X-145415000Y-82296000D01*
X-145796000Y-82296000D02*
X-145415000Y-82296000D01*
X-145923000Y-82296000D02*
X-145796000Y-82296000D01*
X-147594000Y-82296000D02*
X-145923000Y-82296000D01*
D32*
X-154920000Y-82296000D02*
X-154920000Y-83546000D01*
X-147594000Y-83546000D02*
X-147594000Y-82296000D01*
X-147574000Y-83566000D02*
X-147594000Y-83546000D01*
X-154900000Y-83566000D02*
X-147574000Y-83566000D01*
X-154920000Y-83546000D02*
X-154900000Y-83566000D01*
X-154920000Y-82296000D02*
X-157146000Y-82296000D01*
D31*
X-115455000Y-76596000D02*
X-115455000Y-73595800D01*
X-114534000Y-72674800D02*
X-114534000Y-71374000D01*
X-115455000Y-73595800D02*
X-114534000Y-72674800D01*
X-112455000Y-87996000D02*
X-112455000Y-89652800D01*
X-104724200Y-90652600D02*
X-102920800Y-92456000D01*
X-111455200Y-90652600D02*
X-104724200Y-90652600D01*
X-112455000Y-89652800D02*
X-111455200Y-90652600D01*
X-112955000Y-87996000D02*
X-112955000Y-90549800D01*
X-111048800Y-92456000D02*
X-107800800Y-92456000D01*
X-112955000Y-90549800D02*
X-111048800Y-92456000D01*
X-121905000Y-82046000D02*
X-125599000Y-82046000D01*
X-125857000Y-81788000D02*
X-126746000Y-81788000D01*
X-125599000Y-82046000D02*
X-125857000Y-81788000D01*
D34*
X-138156000Y-80264000D02*
X-138156000Y-81660000D01*
X-138176000Y-81534000D02*
X-138176000Y-81660000D01*
X-138176000Y-81640000D02*
X-138176000Y-81534000D01*
X-138156000Y-81660000D02*
X-138176000Y-81640000D01*
X-130810000Y-81660000D02*
X-138176000Y-81660000D01*
X-128270000Y-81660000D02*
X-126874000Y-81660000D01*
X-126874000Y-81660000D02*
X-126746000Y-81788000D01*
X-128270000Y-81660000D02*
X-130810000Y-81660000D01*
X-130810000Y-81660000D02*
X-130810000Y-81660000D01*
X-130830000Y-80264000D02*
X-130830000Y-81640000D01*
X-130830000Y-81640000D02*
X-130810000Y-81660000D01*
D36*
X-126746000Y-81788000D02*
X-126854000Y-81896000D01*
D31*
X-92813000Y-76342000D02*
X-97678600Y-76342000D01*
X-97678600Y-76342000D02*
X-97678600Y-77008200D01*
X-97678600Y-77008200D02*
X-97678600Y-76342000D01*
X-97678600Y-77008200D02*
X-97678600Y-77708200D01*
X-97678600Y-77708200D02*
X-97678600Y-76342000D01*
X-97678600Y-76342000D02*
X-97688400Y-76342000D01*
X-110505000Y-80046000D02*
X-104557000Y-80046000D01*
X-104557000Y-80046000D02*
X-100853000Y-76342000D01*
X-100853000Y-76342000D02*
X-92813000Y-76342000D01*
X-97688400Y-76342000D02*
X-97688400Y-76998400D01*
X-97688400Y-76998400D02*
X-97678600Y-77008200D01*
X-97678600Y-77708200D02*
X-97678600Y-77008200D01*
X-97688400Y-76342000D02*
X-97688400Y-76342000D01*
D32*
X-97663000Y-76992600D02*
X-97678600Y-77008200D01*
D31*
X-110505000Y-79546000D02*
X-105200000Y-79546000D01*
X-105200000Y-79546000D02*
X-101346900Y-75692900D01*
X-97678600Y-75008200D02*
X-97678600Y-75692900D01*
X-97688400Y-75666600D02*
X-97688400Y-75692900D01*
X-97688400Y-75683100D02*
X-97688400Y-75666600D01*
X-97678600Y-75692900D02*
X-97688400Y-75683100D01*
X-97678600Y-74308200D02*
X-97678600Y-75008200D01*
X-92813000Y-75692900D02*
X-97688400Y-75692900D01*
X-97688400Y-75692900D02*
X-101346900Y-75692900D01*
D32*
X-162476000Y-64516000D02*
X-159846000Y-64516000D01*
X-159846000Y-67056000D02*
X-162476000Y-67056000D01*
X-159846000Y-69596000D02*
X-162476000Y-69596000D01*
X-159846000Y-72136000D02*
X-162476000Y-72136000D01*
X-159846000Y-74676000D02*
X-162476000Y-74676000D01*
X-159846000Y-77216000D02*
X-162476000Y-77216000D01*
X-159846000Y-79756000D02*
X-162476000Y-79756000D01*
X-159846000Y-82296000D02*
X-162476000Y-82296000D01*
D31*
X-116455000Y-76596000D02*
X-116455000Y-66899600D01*
X-115849400Y-66294000D02*
X-114634000Y-66294000D01*
X-116455000Y-66899600D02*
X-115849400Y-66294000D01*
D32*
X-114634000Y-66294000D02*
X-114634000Y-64596000D01*
X-114634000Y-64596000D02*
X-113538000Y-63500000D01*
X-113538000Y-63500000D02*
X-112268000Y-62230000D01*
X-112268000Y-59944000D02*
X-112268000Y-62230000D01*
D36*
X-114534000Y-66321000D02*
X-114507000Y-66294000D01*
D31*
X-114808000Y-62230000D02*
X-114808000Y-59944000D01*
X-116955000Y-76596000D02*
X-116955000Y-64377000D01*
X-116955000Y-64377000D02*
X-114808000Y-62230000D01*
D32*
X-114808000Y-62230000D02*
X-114808000Y-59944000D01*
D35*
X-115246000Y-60014000D02*
X-115316000Y-59944000D01*
D31*
X-113955000Y-76596000D02*
X-113955000Y-73721400D01*
X-113131600Y-72898000D02*
X-110363000Y-72898000D01*
X-113955000Y-73721400D02*
X-113131600Y-72898000D01*
D32*
X-109728000Y-72263000D02*
X-109728000Y-70866000D01*
X-110363000Y-72898000D02*
X-109728000Y-72263000D01*
X-109728000Y-70866000D02*
X-109728000Y-67056000D01*
X-109728000Y-67056000D02*
X-109728000Y-60706000D01*
X-109728000Y-60706000D02*
X-109728000Y-59944000D01*
D31*
X-125958600Y-72390000D02*
X-125958600Y-75142400D01*
X-125958600Y-75142400D02*
X-123444000Y-77657000D01*
X-121905000Y-79046000D02*
X-123290400Y-79046000D01*
X-123444000Y-78892400D02*
X-123444000Y-77657000D01*
X-123290400Y-79046000D02*
X-123444000Y-78892400D01*
X-121905000Y-78546000D02*
X-121905000Y-76037200D01*
X-124258600Y-73683600D02*
X-124258600Y-72390000D01*
X-121905000Y-76037200D02*
X-124258600Y-73683600D01*
D35*
X-124005000Y-72643600D02*
X-124258600Y-72390000D01*
D31*
X-121905000Y-85546000D02*
X-143689000Y-85546000D01*
X-143689000Y-85546000D02*
X-144399000Y-84836000D01*
X-144780000Y-84836000D02*
X-144399000Y-84836000D01*
X-147594000Y-84836000D02*
X-144780000Y-84836000D01*
D32*
X-154920000Y-84836000D02*
X-154920000Y-86086000D01*
X-147594000Y-86086000D02*
X-147594000Y-84836000D01*
X-147574000Y-86106000D02*
X-147594000Y-86086000D01*
X-154900000Y-86106000D02*
X-147574000Y-86106000D01*
X-154920000Y-86086000D02*
X-154900000Y-86106000D01*
X-154920000Y-84836000D02*
X-157146000Y-84836000D01*
D31*
X-121905000Y-86046000D02*
X-143627800Y-86046000D01*
X-143627800Y-86046000D02*
X-144957800Y-87376000D01*
X-144957800Y-87376000D02*
X-147594000Y-87376000D01*
D32*
X-154920000Y-87376000D02*
X-154920000Y-88626000D01*
X-147594000Y-88626000D02*
X-147594000Y-87376000D01*
X-147574000Y-88646000D02*
X-147594000Y-88626000D01*
X-154900000Y-88646000D02*
X-147574000Y-88646000D01*
X-154920000Y-88626000D02*
X-154900000Y-88646000D01*
X-157146000Y-87376000D02*
X-154920000Y-87376000D01*
D31*
X-119955000Y-87996000D02*
X-119955000Y-89221000D01*
X-119955000Y-89221000D02*
X-122428000Y-91694000D01*
X-145034000Y-89916000D02*
X-144780000Y-89916000D01*
X-140462000Y-91694000D02*
X-122428000Y-91694000D01*
X-145034000Y-89916000D02*
X-147594000Y-89916000D01*
X-144780000Y-89916000D02*
X-143002000Y-91694000D01*
X-143002000Y-91694000D02*
X-140462000Y-91694000D01*
D32*
X-154920000Y-89916000D02*
X-154920000Y-91166000D01*
X-147594000Y-91166000D02*
X-147594000Y-89916000D01*
X-147574000Y-91186000D02*
X-147594000Y-91166000D01*
X-154900000Y-91186000D02*
X-147574000Y-91186000D01*
X-154920000Y-91166000D02*
X-154900000Y-91186000D01*
X-157146000Y-89916000D02*
X-154920000Y-89916000D01*
D31*
X-119455000Y-87996000D02*
X-119455000Y-89991000D01*
X-119455000Y-89991000D02*
X-121920000Y-92456000D01*
X-147594000Y-92456000D02*
X-121920000Y-92456000D01*
D32*
X-154920000Y-92456000D02*
X-154920000Y-93706000D01*
X-147594000Y-93706000D02*
X-147594000Y-92456000D01*
X-147574000Y-93726000D02*
X-147594000Y-93706000D01*
X-154900000Y-93726000D02*
X-147574000Y-93726000D01*
X-154920000Y-93706000D02*
X-154900000Y-93726000D01*
X-157146000Y-92456000D02*
X-154920000Y-92456000D01*
D31*
X-118955000Y-89052400D02*
X-118955000Y-90761000D01*
X-118955000Y-90761000D02*
X-121539000Y-93345000D01*
X-118955000Y-87996000D02*
X-118955000Y-89052400D01*
X-121793000Y-93345000D02*
X-121539000Y-93345000D01*
X-147594000Y-94996000D02*
X-144780000Y-94996000D01*
X-143129000Y-93345000D02*
X-144780000Y-94996000D01*
X-122428000Y-93345000D02*
X-143129000Y-93345000D01*
X-122428000Y-93345000D02*
X-121793000Y-93345000D01*
D32*
X-154920000Y-94996000D02*
X-154920000Y-96246000D01*
X-147594000Y-96246000D02*
X-147594000Y-94996000D01*
X-147574000Y-96266000D02*
X-147594000Y-96246000D01*
X-154900000Y-96266000D02*
X-147574000Y-96266000D01*
X-154920000Y-96246000D02*
X-154900000Y-96266000D01*
X-157146000Y-94996000D02*
X-154920000Y-94996000D01*
X-159846000Y-84836000D02*
X-162476000Y-84836000D01*
X-159846000Y-87376000D02*
X-162476000Y-87376000D01*
X-159846000Y-89916000D02*
X-162476000Y-89916000D01*
X-159846000Y-92456000D02*
X-162476000Y-92456000D01*
X-159846000Y-94996000D02*
X-162476000Y-94996000D01*
D31*
X-110505000Y-82046000D02*
X-97913000Y-82046000D01*
X-97913000Y-82046000D02*
X-95631000Y-84328000D01*
D32*
X-107886500Y-100012500D02*
X-97980500Y-100012500D01*
X-97980500Y-100012500D02*
X-95631000Y-97663000D01*
X-97917000Y-99949000D02*
X-96647000Y-98679000D01*
X-95631000Y-84328000D02*
X-95631000Y-97663000D01*
X-95631000Y-97663000D02*
X-96647000Y-98679000D01*
X-96647000Y-98679000D02*
X-97917000Y-99949000D01*
X-109220000Y-103124000D02*
X-109220000Y-101346000D01*
X-109220000Y-101346000D02*
X-107886500Y-100012500D01*
D31*
X-110505000Y-81546000D02*
X-97143000Y-81546000D01*
X-97143000Y-81546000D02*
X-94869000Y-83820000D01*
D32*
X-94869000Y-83820000D02*
X-94869000Y-98044000D01*
X-94869000Y-98044000D02*
X-97599500Y-100774500D01*
X-106108500Y-100774500D02*
X-97599500Y-100774500D01*
X-106680000Y-103124000D02*
X-106680000Y-101346000D01*
X-106680000Y-101346000D02*
X-106108500Y-100774500D01*
D31*
X-110505000Y-83046000D02*
X-99453000Y-83046000D01*
X-99453000Y-83046000D02*
X-97155000Y-85344000D01*
D32*
X-112331500Y-99250500D02*
X-114300000Y-101219000D01*
X-111506000Y-98425000D02*
X-98679000Y-98425000D01*
X-98679000Y-98425000D02*
X-97155000Y-96901000D01*
X-112331500Y-99250500D02*
X-111887000Y-98806000D01*
X-111887000Y-98806000D02*
X-111506000Y-98425000D01*
X-97155000Y-96774000D02*
X-97155000Y-96901000D01*
X-97155000Y-85344000D02*
X-97155000Y-96774000D01*
X-114300000Y-101219000D02*
X-114300000Y-103124000D01*
X-114300000Y-101219000D02*
X-114300000Y-103124000D01*
D31*
X-110505000Y-82546000D02*
X-98683000Y-82546000D01*
X-98683000Y-82546000D02*
X-98533000Y-82696000D01*
D32*
X-96393000Y-84836000D02*
X-96393000Y-85725000D01*
X-98533000Y-82696000D02*
X-96393000Y-84836000D01*
X-96393000Y-97282000D02*
X-96393000Y-85725000D01*
X-99441000Y-99250500D02*
X-98361500Y-99250500D01*
X-98361500Y-99250500D02*
X-96393000Y-97282000D01*
X-109664500Y-99250500D02*
X-99441000Y-99250500D01*
X-109664500Y-99250500D02*
X-111760000Y-101346000D01*
X-111760000Y-101346000D02*
X-111760000Y-103124000D01*
D31*
X-115955000Y-87996000D02*
X-115955000Y-97413000D01*
X-115955000Y-97413000D02*
X-117856000Y-99314000D01*
D32*
X-132080000Y-101600000D02*
X-132080000Y-101473000D01*
D31*
X-132080000Y-101473000D02*
X-129921000Y-99314000D01*
X-118872000Y-99314000D02*
X-117856000Y-99314000D01*
X-118872000Y-99314000D02*
X-129921000Y-99314000D01*
X-132080000Y-101600000D02*
X-132080000Y-103124000D01*
X-115455000Y-87996000D02*
X-115455000Y-97929000D01*
X-115455000Y-97929000D02*
X-117602000Y-100076000D01*
X-118491000Y-100076000D02*
X-117602000Y-100076000D01*
X-129540000Y-101600000D02*
X-128016000Y-100076000D01*
X-128016000Y-100076000D02*
X-118491000Y-100076000D01*
D32*
X-129540000Y-103124000D02*
X-129540000Y-101600000D01*
D31*
X-114955000Y-87996000D02*
X-114955000Y-98445000D01*
X-114955000Y-98445000D02*
X-117221000Y-100711000D01*
D32*
X-127000000Y-103124000D02*
X-127000000Y-101600000D01*
D31*
X-126111000Y-100711000D02*
X-125603000Y-100711000D01*
X-127000000Y-101600000D02*
X-126111000Y-100711000D01*
X-125603000Y-100711000D02*
X-117221000Y-100711000D01*
X-114455000Y-87996000D02*
X-114455000Y-98961000D01*
X-114455000Y-98961000D02*
X-116840000Y-101346000D01*
D32*
X-124460000Y-103124000D02*
X-124460000Y-101854000D01*
D31*
X-123952000Y-101346000D02*
X-116840000Y-101346000D01*
D32*
X-124460000Y-101854000D02*
X-123952000Y-101346000D01*
D31*
X-118455000Y-89433400D02*
X-118455000Y-91531000D01*
X-118455000Y-91531000D02*
X-119805000Y-92881000D01*
X-118455000Y-87996000D02*
X-118455000Y-89433400D01*
X-146558000Y-97536000D02*
X-145923000Y-97536000D01*
X-145923000Y-97536000D02*
X-145542000Y-97155000D01*
X-142621000Y-94234000D02*
X-145542000Y-97155000D01*
X-141351000Y-94234000D02*
X-121158000Y-94234000D01*
X-121158000Y-94234000D02*
X-119805000Y-92881000D01*
X-142621000Y-94234000D02*
X-141351000Y-94234000D01*
X-147594000Y-97536000D02*
X-146558000Y-97536000D01*
D32*
X-154920000Y-97536000D02*
X-154920000Y-98786000D01*
X-147594000Y-98786000D02*
X-147594000Y-97536000D01*
X-147574000Y-98806000D02*
X-147594000Y-98786000D01*
X-154900000Y-98806000D02*
X-147574000Y-98806000D01*
X-154920000Y-98786000D02*
X-154900000Y-98806000D01*
X-157146000Y-97536000D02*
X-154920000Y-97536000D01*
D34*
X-102997000Y-59944000D02*
X-102997000Y-65277000D01*
X-102997000Y-65277000D02*
X-102996000Y-65278000D01*
D32*
X-159846000Y-97536000D02*
X-162476000Y-97536000D01*
D31*
X-164676000Y-64516000D02*
X-167640000Y-64516000D01*
D39*
X-165100000Y-64516000D02*
X-164973000Y-64516000D01*
D31*
X-164676000Y-67056000D02*
X-167640000Y-67056000D01*
X-164676000Y-69596000D02*
X-167640000Y-69596000D01*
X-164676000Y-72136000D02*
X-167640000Y-72136000D01*
X-164676000Y-74676000D02*
X-167640000Y-74676000D01*
X-164676000Y-77216000D02*
X-167640000Y-77216000D01*
X-164676000Y-79756000D02*
X-167640000Y-79756000D01*
X-164676000Y-82296000D02*
X-167640000Y-82296000D01*
X-164676000Y-84836000D02*
X-167640000Y-84836000D01*
X-164676000Y-87376000D02*
X-167640000Y-87376000D01*
X-164676000Y-89916000D02*
X-167640000Y-89916000D01*
X-164676000Y-92456000D02*
X-167640000Y-92456000D01*
X-164676000Y-94996000D02*
X-167640000Y-94996000D01*
X-164676000Y-97536000D02*
X-167640000Y-97536000D01*
X-119955000Y-76596000D02*
X-119955000Y-66303200D01*
X-121488200Y-64770000D02*
X-122809000Y-64770000D01*
X-119955000Y-66303200D02*
X-121488200Y-64770000D01*
X-132588000Y-64008000D02*
X-132588000Y-59944000D01*
X-131826000Y-64770000D02*
X-132588000Y-64008000D01*
X-122809000Y-64770000D02*
X-131826000Y-64770000D01*
X-119455000Y-76596000D02*
X-119455000Y-65253800D01*
X-120827800Y-63881000D02*
X-129159000Y-63881000D01*
X-119455000Y-65253800D02*
X-120827800Y-63881000D01*
X-130048000Y-62992000D02*
X-130048000Y-59944000D01*
X-129159000Y-63881000D02*
X-130048000Y-62992000D01*
X-118955000Y-76596000D02*
X-118955000Y-64712400D01*
X-120548400Y-63119000D02*
X-126365000Y-63119000D01*
X-118955000Y-64712400D02*
X-120548400Y-63119000D01*
X-127508000Y-61976000D02*
X-127508000Y-59944000D01*
X-126365000Y-63119000D02*
X-127508000Y-61976000D01*
X-118455000Y-76596000D02*
X-118455000Y-63891600D01*
X-119862600Y-62484000D02*
X-124460000Y-62484000D01*
X-118455000Y-63891600D02*
X-119862600Y-62484000D01*
X-124968000Y-61976000D02*
X-124968000Y-59944000D01*
X-124460000Y-62484000D02*
X-124968000Y-61976000D01*
G36*
X-121793000Y-102997000D02*
X-121773000Y-102997000D01*
X-121773000Y-103251000D01*
X-121793000Y-103251000D01*
X-121793000Y-104444155D01*
X-121563110Y-104565476D01*
X-121153076Y-104395645D01*
X-120724817Y-104005358D01*
X-120657702Y-103862447D01*
X-120430054Y-104203147D01*
X-120258961Y-104317467D01*
X-120201329Y-104607206D01*
X-120174071Y-104648000D01*
X-120008618Y-104895618D01*
X-119950236Y-104954000D01*
X-133524714Y-104954000D01*
X-133524714Y-104222446D01*
X-133394090Y-104425441D01*
X-133181890Y-104570431D01*
X-132930000Y-104621440D01*
X-131230000Y-104621440D01*
X-130994683Y-104577162D01*
X-130778559Y-104438090D01*
X-130633569Y-104225890D01*
X-130619914Y-104158459D01*
X-130590054Y-104203147D01*
X-130108285Y-104525054D01*
X-129540000Y-104638093D01*
X-128971715Y-104525054D01*
X-128489946Y-104203147D01*
X-128270000Y-103873974D01*
X-128050054Y-104203147D01*
X-127568285Y-104525054D01*
X-127000000Y-104638093D01*
X-126431715Y-104525054D01*
X-125949946Y-104203147D01*
X-125730000Y-103873974D01*
X-125510054Y-104203147D01*
X-125028285Y-104525054D01*
X-124460000Y-104638093D01*
X-123891715Y-104525054D01*
X-123409946Y-104203147D01*
X-123182298Y-103862447D01*
X-123115183Y-104005358D01*
X-122686924Y-104395645D01*
X-122276890Y-104565476D01*
X-122047000Y-104444155D01*
X-122047000Y-103251000D01*
X-122067000Y-103251000D01*
X-122067000Y-102997000D01*
X-122047000Y-102997000D01*
X-122047000Y-102977000D01*
X-121793000Y-102977000D01*
X-121793000Y-102997000D01*
X-121793000Y-102997000D01*
G37*
X-121793000Y-102997000D02*
X-121773000Y-102997000D01*
X-121773000Y-103251000D01*
X-121793000Y-103251000D01*
X-121793000Y-104444155D01*
X-121563110Y-104565476D01*
X-121153076Y-104395645D01*
X-120724817Y-104005358D01*
X-120657702Y-103862447D01*
X-120430054Y-104203147D01*
X-120258961Y-104317467D01*
X-120201329Y-104607206D01*
X-120174071Y-104648000D01*
X-120008618Y-104895618D01*
X-119950236Y-104954000D01*
X-133524714Y-104954000D01*
X-133524714Y-104222446D01*
X-133394090Y-104425441D01*
X-133181890Y-104570431D01*
X-132930000Y-104621440D01*
X-131230000Y-104621440D01*
X-130994683Y-104577162D01*
X-130778559Y-104438090D01*
X-130633569Y-104225890D01*
X-130619914Y-104158459D01*
X-130590054Y-104203147D01*
X-130108285Y-104525054D01*
X-129540000Y-104638093D01*
X-128971715Y-104525054D01*
X-128489946Y-104203147D01*
X-128270000Y-103873974D01*
X-128050054Y-104203147D01*
X-127568285Y-104525054D01*
X-127000000Y-104638093D01*
X-126431715Y-104525054D01*
X-125949946Y-104203147D01*
X-125730000Y-103873974D01*
X-125510054Y-104203147D01*
X-125028285Y-104525054D01*
X-124460000Y-104638093D01*
X-123891715Y-104525054D01*
X-123409946Y-104203147D01*
X-123182298Y-103862447D01*
X-123115183Y-104005358D01*
X-122686924Y-104395645D01*
X-122276890Y-104565476D01*
X-122047000Y-104444155D01*
X-122047000Y-103251000D01*
X-122067000Y-103251000D01*
X-122067000Y-102997000D01*
X-122047000Y-102997000D01*
X-122047000Y-102977000D01*
X-121793000Y-102977000D01*
X-121793000Y-102997000D01*
G36*
X-106378285Y-58446560D02*
X-106899578Y-58446560D01*
X-107014000Y-58423800D01*
X-107128423Y-58446560D01*
X-108038000Y-58446560D01*
X-108273317Y-58490838D01*
X-108489441Y-58629910D01*
X-108634431Y-58842110D01*
X-108648086Y-58909541D01*
X-108677946Y-58864853D01*
X-109159715Y-58542946D01*
X-109728000Y-58429907D01*
X-110296285Y-58542946D01*
X-110778054Y-58864853D01*
X-110998000Y-59194026D01*
X-111217946Y-58864853D01*
X-111699715Y-58542946D01*
X-112268000Y-58429907D01*
X-112836285Y-58542946D01*
X-113318054Y-58864853D01*
X-113538000Y-59194026D01*
X-113757946Y-58864853D01*
X-114239715Y-58542946D01*
X-114808000Y-58429907D01*
X-115376285Y-58542946D01*
X-115858054Y-58864853D01*
X-116085702Y-59205553D01*
X-116152817Y-59062642D01*
X-116581076Y-58672355D01*
X-116991110Y-58502524D01*
X-117221000Y-58623845D01*
X-117221000Y-59817000D01*
X-117201000Y-59817000D01*
X-117201000Y-60071000D01*
X-117221000Y-60071000D01*
X-117221000Y-61264155D01*
X-116991110Y-61385476D01*
X-116581076Y-61215645D01*
X-116152817Y-60825358D01*
X-116085702Y-60682447D01*
X-115858054Y-61023147D01*
X-115595400Y-61198646D01*
X-115595400Y-61939769D01*
X-117493815Y-63838185D01*
X-117658996Y-64085395D01*
X-117693000Y-64256344D01*
X-117693000Y-63891600D01*
X-117751004Y-63599995D01*
X-117916185Y-63352785D01*
X-119323785Y-61945185D01*
X-119333947Y-61938395D01*
X-119570995Y-61780004D01*
X-119862600Y-61722000D01*
X-124144369Y-61722000D01*
X-124206000Y-61660370D01*
X-124206000Y-61215618D01*
X-123917946Y-61023147D01*
X-123690298Y-60682447D01*
X-123623183Y-60825358D01*
X-123194924Y-61215645D01*
X-122784890Y-61385476D01*
X-122555000Y-61264155D01*
X-122555000Y-60071000D01*
X-122301000Y-60071000D01*
X-122301000Y-61264155D01*
X-122071110Y-61385476D01*
X-121661076Y-61215645D01*
X-121232817Y-60825358D01*
X-120986514Y-60300892D01*
X-118789486Y-60300892D01*
X-118543183Y-60825358D01*
X-118114924Y-61215645D01*
X-117704890Y-61385476D01*
X-117475000Y-61264155D01*
X-117475000Y-60071000D01*
X-118668819Y-60071000D01*
X-118789486Y-60300892D01*
X-120986514Y-60300892D01*
X-121107181Y-60071000D01*
X-122301000Y-60071000D01*
X-122555000Y-60071000D01*
X-122575000Y-60071000D01*
X-122575000Y-59817000D01*
X-122555000Y-59817000D01*
X-122555000Y-58623845D01*
X-122301000Y-58623845D01*
X-122301000Y-59817000D01*
X-121107181Y-59817000D01*
X-120986514Y-59587108D01*
X-118789486Y-59587108D01*
X-118668819Y-59817000D01*
X-117475000Y-59817000D01*
X-117475000Y-58623845D01*
X-117704890Y-58502524D01*
X-118114924Y-58672355D01*
X-118543183Y-59062642D01*
X-118789486Y-59587108D01*
X-120986514Y-59587108D01*
X-121232817Y-59062642D01*
X-121661076Y-58672355D01*
X-122071110Y-58502524D01*
X-122301000Y-58623845D01*
X-122555000Y-58623845D01*
X-122784890Y-58502524D01*
X-123194924Y-58672355D01*
X-123623183Y-59062642D01*
X-123690298Y-59205553D01*
X-123917946Y-58864853D01*
X-124399715Y-58542946D01*
X-124968000Y-58429907D01*
X-125536285Y-58542946D01*
X-126018054Y-58864853D01*
X-126238000Y-59194026D01*
X-126457946Y-58864853D01*
X-126939715Y-58542946D01*
X-127508000Y-58429907D01*
X-128076285Y-58542946D01*
X-128558054Y-58864853D01*
X-128778000Y-59194026D01*
X-128997946Y-58864853D01*
X-129479715Y-58542946D01*
X-130048000Y-58429907D01*
X-130616285Y-58542946D01*
X-131098054Y-58864853D01*
X-131318000Y-59194026D01*
X-131537946Y-58864853D01*
X-132019715Y-58542946D01*
X-132588000Y-58429907D01*
X-133156285Y-58542946D01*
X-133638054Y-58864853D01*
X-133665850Y-58906452D01*
X-133674838Y-58858683D01*
X-133813910Y-58642559D01*
X-134026110Y-58497569D01*
X-134278000Y-58446560D01*
X-135978000Y-58446560D01*
X-136213317Y-58490838D01*
X-136429441Y-58629910D01*
X-136574431Y-58842110D01*
X-136586681Y-58902600D01*
X-164298000Y-58902600D01*
X-164696526Y-58981871D01*
X-165034381Y-59207619D01*
X-165308381Y-59481619D01*
X-165534128Y-59819473D01*
X-165613400Y-60218000D01*
X-165613400Y-60783926D01*
X-165773441Y-60886910D01*
X-165806026Y-60934600D01*
X-166178574Y-60934600D01*
X-166186838Y-60890683D01*
X-166325910Y-60674559D01*
X-166538110Y-60529569D01*
X-166790000Y-60478560D01*
X-168490000Y-60478560D01*
X-168725317Y-60522838D01*
X-168941441Y-60661910D01*
X-169086431Y-60874110D01*
X-169137440Y-61126000D01*
X-169137440Y-62826000D01*
X-169093162Y-63061317D01*
X-168954090Y-63277441D01*
X-168741890Y-63422431D01*
X-168674459Y-63436086D01*
X-168719147Y-63465946D01*
X-169041054Y-63947715D01*
X-169154093Y-64516000D01*
X-169041054Y-65084285D01*
X-168719147Y-65566054D01*
X-168389974Y-65786000D01*
X-168719147Y-66005946D01*
X-169041054Y-66487715D01*
X-169154093Y-67056000D01*
X-169041054Y-67624285D01*
X-168719147Y-68106054D01*
X-168389974Y-68326000D01*
X-168719147Y-68545946D01*
X-169041054Y-69027715D01*
X-169154093Y-69596000D01*
X-169041054Y-70164285D01*
X-168719147Y-70646054D01*
X-168389974Y-70866000D01*
X-168719147Y-71085946D01*
X-169041054Y-71567715D01*
X-169154093Y-72136000D01*
X-169041054Y-72704285D01*
X-168719147Y-73186054D01*
X-168389974Y-73406000D01*
X-168719147Y-73625946D01*
X-169041054Y-74107715D01*
X-169154093Y-74676000D01*
X-169041054Y-75244285D01*
X-168719147Y-75726054D01*
X-168389974Y-75946000D01*
X-168719147Y-76165946D01*
X-169041054Y-76647715D01*
X-169154093Y-77216000D01*
X-169041054Y-77784285D01*
X-168719147Y-78266054D01*
X-168389974Y-78486000D01*
X-168719147Y-78705946D01*
X-169041054Y-79187715D01*
X-169154093Y-79756000D01*
X-169041054Y-80324285D01*
X-168719147Y-80806054D01*
X-168389974Y-81026000D01*
X-168719147Y-81245946D01*
X-169041054Y-81727715D01*
X-169154093Y-82296000D01*
X-169041054Y-82864285D01*
X-168719147Y-83346054D01*
X-168389974Y-83566000D01*
X-168719147Y-83785946D01*
X-169041054Y-84267715D01*
X-169154093Y-84836000D01*
X-169041054Y-85404285D01*
X-168719147Y-85886054D01*
X-168389974Y-86106000D01*
X-168719147Y-86325946D01*
X-169041054Y-86807715D01*
X-169154093Y-87376000D01*
X-169041054Y-87944285D01*
X-168719147Y-88426054D01*
X-168389974Y-88646000D01*
X-168719147Y-88865946D01*
X-169041054Y-89347715D01*
X-169154093Y-89916000D01*
X-169041054Y-90484285D01*
X-168719147Y-90966054D01*
X-168389974Y-91186000D01*
X-168719147Y-91405946D01*
X-169041054Y-91887715D01*
X-169154093Y-92456000D01*
X-169041054Y-93024285D01*
X-168719147Y-93506054D01*
X-168389974Y-93726000D01*
X-168719147Y-93945946D01*
X-169041054Y-94427715D01*
X-169154093Y-94996000D01*
X-169041054Y-95564285D01*
X-168719147Y-96046054D01*
X-168389974Y-96266000D01*
X-168719147Y-96485946D01*
X-169041054Y-96967715D01*
X-169154093Y-97536000D01*
X-169041054Y-98104285D01*
X-168719147Y-98586054D01*
X-168378447Y-98813702D01*
X-168521358Y-98880817D01*
X-168911645Y-99309076D01*
X-169081476Y-99719110D01*
X-168960155Y-99949000D01*
X-167767000Y-99949000D01*
X-167767000Y-99929000D01*
X-167513000Y-99929000D01*
X-167513000Y-99949000D01*
X-166319845Y-99949000D01*
X-166198524Y-99719110D01*
X-166368355Y-99309076D01*
X-166758642Y-98880817D01*
X-166901553Y-98813702D01*
X-166560853Y-98586054D01*
X-166368382Y-98298000D01*
X-165829818Y-98298000D01*
X-165740090Y-98437441D01*
X-165527890Y-98582431D01*
X-165276000Y-98633440D01*
X-164076000Y-98633440D01*
X-163840683Y-98589162D01*
X-163624559Y-98450090D01*
X-163576866Y-98380289D01*
X-163540090Y-98437441D01*
X-163327890Y-98582431D01*
X-163076000Y-98633440D01*
X-161876000Y-98633440D01*
X-161640683Y-98589162D01*
X-161424559Y-98450090D01*
X-161337995Y-98323400D01*
X-161217586Y-98323400D01*
X-161199162Y-98421317D01*
X-161060090Y-98637441D01*
X-160847890Y-98782431D01*
X-160596000Y-98833440D01*
X-159096000Y-98833440D01*
X-158860683Y-98789162D01*
X-158644559Y-98650090D01*
X-158499569Y-98437890D01*
X-158496919Y-98424803D01*
X-158360090Y-98637441D01*
X-158147890Y-98782431D01*
X-157896000Y-98833440D01*
X-156396000Y-98833440D01*
X-156160683Y-98789162D01*
X-156013790Y-98694639D01*
X-155921890Y-98757431D01*
X-155704319Y-98801490D01*
X-155647463Y-99087325D01*
X-155476776Y-99342776D01*
X-155456776Y-99362776D01*
X-155201325Y-99533463D01*
X-154900000Y-99593400D01*
X-147574000Y-99593400D01*
X-147272675Y-99533463D01*
X-147017224Y-99362776D01*
X-146846537Y-99107325D01*
X-146786600Y-98806000D01*
X-146788203Y-98797941D01*
X-146608683Y-98764162D01*
X-146392559Y-98625090D01*
X-146247569Y-98412890D01*
X-146224303Y-98298000D01*
X-145923000Y-98298000D01*
X-145631395Y-98239996D01*
X-145384185Y-98074815D01*
X-145003185Y-97693816D01*
X-145003183Y-97693813D01*
X-142305370Y-94996000D01*
X-121158000Y-94996000D01*
X-120866395Y-94937996D01*
X-120619185Y-94772815D01*
X-120447720Y-94601350D01*
X-118481000Y-94601350D01*
X-118481000Y-95191909D01*
X-118384327Y-95425298D01*
X-118205699Y-95603927D01*
X-117972310Y-95700600D01*
X-117506750Y-95700600D01*
X-117348000Y-95541850D01*
X-117348000Y-94442600D01*
X-118322250Y-94442600D01*
X-118481000Y-94601350D01*
X-120447720Y-94601350D01*
X-119266185Y-93419815D01*
X-118480538Y-92634169D01*
X-118449162Y-92800917D01*
X-118310090Y-93017041D01*
X-118241994Y-93063569D01*
X-118384327Y-93205902D01*
X-118481000Y-93439291D01*
X-118481000Y-94029850D01*
X-118322250Y-94188600D01*
X-117348000Y-94188600D01*
X-117348000Y-94168600D01*
X-117094000Y-94168600D01*
X-117094000Y-94188600D01*
X-117074000Y-94188600D01*
X-117074000Y-94442600D01*
X-117094000Y-94442600D01*
X-117094000Y-95541850D01*
X-116935250Y-95700600D01*
X-116717000Y-95700600D01*
X-116717000Y-97097370D01*
X-118171630Y-98552000D01*
X-129921000Y-98552000D01*
X-130212605Y-98610004D01*
X-130459815Y-98775185D01*
X-132528519Y-100843889D01*
X-132636776Y-100916224D01*
X-132807463Y-101171675D01*
X-132867400Y-101473000D01*
X-132867400Y-101600000D01*
X-132862117Y-101626560D01*
X-132930000Y-101626560D01*
X-133165317Y-101670838D01*
X-133381441Y-101809910D01*
X-133524714Y-102019597D01*
X-133524714Y-101162000D01*
X-136223285Y-101162000D01*
X-136223285Y-104954000D01*
X-169470000Y-104954000D01*
X-169470000Y-100432890D01*
X-169081476Y-100432890D01*
X-168911645Y-100842924D01*
X-168521358Y-101271183D01*
X-167996892Y-101517486D01*
X-167767000Y-101396819D01*
X-167767000Y-100203000D01*
X-167513000Y-100203000D01*
X-167513000Y-101396819D01*
X-167283108Y-101517486D01*
X-166758642Y-101271183D01*
X-166368355Y-100842924D01*
X-166198524Y-100432890D01*
X-166319845Y-100203000D01*
X-167513000Y-100203000D01*
X-167767000Y-100203000D01*
X-168960155Y-100203000D01*
X-169081476Y-100432890D01*
X-169470000Y-100432890D01*
X-169470000Y-58114000D01*
X-106378285Y-58114000D01*
X-106378285Y-58446560D01*
X-106378285Y-58446560D01*
G37*
X-106378285Y-58446560D02*
X-106899578Y-58446560D01*
X-107014000Y-58423800D01*
X-107128423Y-58446560D01*
X-108038000Y-58446560D01*
X-108273317Y-58490838D01*
X-108489441Y-58629910D01*
X-108634431Y-58842110D01*
X-108648086Y-58909541D01*
X-108677946Y-58864853D01*
X-109159715Y-58542946D01*
X-109728000Y-58429907D01*
X-110296285Y-58542946D01*
X-110778054Y-58864853D01*
X-110998000Y-59194026D01*
X-111217946Y-58864853D01*
X-111699715Y-58542946D01*
X-112268000Y-58429907D01*
X-112836285Y-58542946D01*
X-113318054Y-58864853D01*
X-113538000Y-59194026D01*
X-113757946Y-58864853D01*
X-114239715Y-58542946D01*
X-114808000Y-58429907D01*
X-115376285Y-58542946D01*
X-115858054Y-58864853D01*
X-116085702Y-59205553D01*
X-116152817Y-59062642D01*
X-116581076Y-58672355D01*
X-116991110Y-58502524D01*
X-117221000Y-58623845D01*
X-117221000Y-59817000D01*
X-117201000Y-59817000D01*
X-117201000Y-60071000D01*
X-117221000Y-60071000D01*
X-117221000Y-61264155D01*
X-116991110Y-61385476D01*
X-116581076Y-61215645D01*
X-116152817Y-60825358D01*
X-116085702Y-60682447D01*
X-115858054Y-61023147D01*
X-115595400Y-61198646D01*
X-115595400Y-61939769D01*
X-117493815Y-63838185D01*
X-117658996Y-64085395D01*
X-117693000Y-64256344D01*
X-117693000Y-63891600D01*
X-117751004Y-63599995D01*
X-117916185Y-63352785D01*
X-119323785Y-61945185D01*
X-119333947Y-61938395D01*
X-119570995Y-61780004D01*
X-119862600Y-61722000D01*
X-124144369Y-61722000D01*
X-124206000Y-61660370D01*
X-124206000Y-61215618D01*
X-123917946Y-61023147D01*
X-123690298Y-60682447D01*
X-123623183Y-60825358D01*
X-123194924Y-61215645D01*
X-122784890Y-61385476D01*
X-122555000Y-61264155D01*
X-122555000Y-60071000D01*
X-122301000Y-60071000D01*
X-122301000Y-61264155D01*
X-122071110Y-61385476D01*
X-121661076Y-61215645D01*
X-121232817Y-60825358D01*
X-120986514Y-60300892D01*
X-118789486Y-60300892D01*
X-118543183Y-60825358D01*
X-118114924Y-61215645D01*
X-117704890Y-61385476D01*
X-117475000Y-61264155D01*
X-117475000Y-60071000D01*
X-118668819Y-60071000D01*
X-118789486Y-60300892D01*
X-120986514Y-60300892D01*
X-121107181Y-60071000D01*
X-122301000Y-60071000D01*
X-122555000Y-60071000D01*
X-122575000Y-60071000D01*
X-122575000Y-59817000D01*
X-122555000Y-59817000D01*
X-122555000Y-58623845D01*
X-122301000Y-58623845D01*
X-122301000Y-59817000D01*
X-121107181Y-59817000D01*
X-120986514Y-59587108D01*
X-118789486Y-59587108D01*
X-118668819Y-59817000D01*
X-117475000Y-59817000D01*
X-117475000Y-58623845D01*
X-117704890Y-58502524D01*
X-118114924Y-58672355D01*
X-118543183Y-59062642D01*
X-118789486Y-59587108D01*
X-120986514Y-59587108D01*
X-121232817Y-59062642D01*
X-121661076Y-58672355D01*
X-122071110Y-58502524D01*
X-122301000Y-58623845D01*
X-122555000Y-58623845D01*
X-122784890Y-58502524D01*
X-123194924Y-58672355D01*
X-123623183Y-59062642D01*
X-123690298Y-59205553D01*
X-123917946Y-58864853D01*
X-124399715Y-58542946D01*
X-124968000Y-58429907D01*
X-125536285Y-58542946D01*
X-126018054Y-58864853D01*
X-126238000Y-59194026D01*
X-126457946Y-58864853D01*
X-126939715Y-58542946D01*
X-127508000Y-58429907D01*
X-128076285Y-58542946D01*
X-128558054Y-58864853D01*
X-128778000Y-59194026D01*
X-128997946Y-58864853D01*
X-129479715Y-58542946D01*
X-130048000Y-58429907D01*
X-130616285Y-58542946D01*
X-131098054Y-58864853D01*
X-131318000Y-59194026D01*
X-131537946Y-58864853D01*
X-132019715Y-58542946D01*
X-132588000Y-58429907D01*
X-133156285Y-58542946D01*
X-133638054Y-58864853D01*
X-133665850Y-58906452D01*
X-133674838Y-58858683D01*
X-133813910Y-58642559D01*
X-134026110Y-58497569D01*
X-134278000Y-58446560D01*
X-135978000Y-58446560D01*
X-136213317Y-58490838D01*
X-136429441Y-58629910D01*
X-136574431Y-58842110D01*
X-136586681Y-58902600D01*
X-164298000Y-58902600D01*
X-164696526Y-58981871D01*
X-165034381Y-59207619D01*
X-165308381Y-59481619D01*
X-165534128Y-59819473D01*
X-165613400Y-60218000D01*
X-165613400Y-60783926D01*
X-165773441Y-60886910D01*
X-165806026Y-60934600D01*
X-166178574Y-60934600D01*
X-166186838Y-60890683D01*
X-166325910Y-60674559D01*
X-166538110Y-60529569D01*
X-166790000Y-60478560D01*
X-168490000Y-60478560D01*
X-168725317Y-60522838D01*
X-168941441Y-60661910D01*
X-169086431Y-60874110D01*
X-169137440Y-61126000D01*
X-169137440Y-62826000D01*
X-169093162Y-63061317D01*
X-168954090Y-63277441D01*
X-168741890Y-63422431D01*
X-168674459Y-63436086D01*
X-168719147Y-63465946D01*
X-169041054Y-63947715D01*
X-169154093Y-64516000D01*
X-169041054Y-65084285D01*
X-168719147Y-65566054D01*
X-168389974Y-65786000D01*
X-168719147Y-66005946D01*
X-169041054Y-66487715D01*
X-169154093Y-67056000D01*
X-169041054Y-67624285D01*
X-168719147Y-68106054D01*
X-168389974Y-68326000D01*
X-168719147Y-68545946D01*
X-169041054Y-69027715D01*
X-169154093Y-69596000D01*
X-169041054Y-70164285D01*
X-168719147Y-70646054D01*
X-168389974Y-70866000D01*
X-168719147Y-71085946D01*
X-169041054Y-71567715D01*
X-169154093Y-72136000D01*
X-169041054Y-72704285D01*
X-168719147Y-73186054D01*
X-168389974Y-73406000D01*
X-168719147Y-73625946D01*
X-169041054Y-74107715D01*
X-169154093Y-74676000D01*
X-169041054Y-75244285D01*
X-168719147Y-75726054D01*
X-168389974Y-75946000D01*
X-168719147Y-76165946D01*
X-169041054Y-76647715D01*
X-169154093Y-77216000D01*
X-169041054Y-77784285D01*
X-168719147Y-78266054D01*
X-168389974Y-78486000D01*
X-168719147Y-78705946D01*
X-169041054Y-79187715D01*
X-169154093Y-79756000D01*
X-169041054Y-80324285D01*
X-168719147Y-80806054D01*
X-168389974Y-81026000D01*
X-168719147Y-81245946D01*
X-169041054Y-81727715D01*
X-169154093Y-82296000D01*
X-169041054Y-82864285D01*
X-168719147Y-83346054D01*
X-168389974Y-83566000D01*
X-168719147Y-83785946D01*
X-169041054Y-84267715D01*
X-169154093Y-84836000D01*
X-169041054Y-85404285D01*
X-168719147Y-85886054D01*
X-168389974Y-86106000D01*
X-168719147Y-86325946D01*
X-169041054Y-86807715D01*
X-169154093Y-87376000D01*
X-169041054Y-87944285D01*
X-168719147Y-88426054D01*
X-168389974Y-88646000D01*
X-168719147Y-88865946D01*
X-169041054Y-89347715D01*
X-169154093Y-89916000D01*
X-169041054Y-90484285D01*
X-168719147Y-90966054D01*
X-168389974Y-91186000D01*
X-168719147Y-91405946D01*
X-169041054Y-91887715D01*
X-169154093Y-92456000D01*
X-169041054Y-93024285D01*
X-168719147Y-93506054D01*
X-168389974Y-93726000D01*
X-168719147Y-93945946D01*
X-169041054Y-94427715D01*
X-169154093Y-94996000D01*
X-169041054Y-95564285D01*
X-168719147Y-96046054D01*
X-168389974Y-96266000D01*
X-168719147Y-96485946D01*
X-169041054Y-96967715D01*
X-169154093Y-97536000D01*
X-169041054Y-98104285D01*
X-168719147Y-98586054D01*
X-168378447Y-98813702D01*
X-168521358Y-98880817D01*
X-168911645Y-99309076D01*
X-169081476Y-99719110D01*
X-168960155Y-99949000D01*
X-167767000Y-99949000D01*
X-167767000Y-99929000D01*
X-167513000Y-99929000D01*
X-167513000Y-99949000D01*
X-166319845Y-99949000D01*
X-166198524Y-99719110D01*
X-166368355Y-99309076D01*
X-166758642Y-98880817D01*
X-166901553Y-98813702D01*
X-166560853Y-98586054D01*
X-166368382Y-98298000D01*
X-165829818Y-98298000D01*
X-165740090Y-98437441D01*
X-165527890Y-98582431D01*
X-165276000Y-98633440D01*
X-164076000Y-98633440D01*
X-163840683Y-98589162D01*
X-163624559Y-98450090D01*
X-163576866Y-98380289D01*
X-163540090Y-98437441D01*
X-163327890Y-98582431D01*
X-163076000Y-98633440D01*
X-161876000Y-98633440D01*
X-161640683Y-98589162D01*
X-161424559Y-98450090D01*
X-161337995Y-98323400D01*
X-161217586Y-98323400D01*
X-161199162Y-98421317D01*
X-161060090Y-98637441D01*
X-160847890Y-98782431D01*
X-160596000Y-98833440D01*
X-159096000Y-98833440D01*
X-158860683Y-98789162D01*
X-158644559Y-98650090D01*
X-158499569Y-98437890D01*
X-158496919Y-98424803D01*
X-158360090Y-98637441D01*
X-158147890Y-98782431D01*
X-157896000Y-98833440D01*
X-156396000Y-98833440D01*
X-156160683Y-98789162D01*
X-156013790Y-98694639D01*
X-155921890Y-98757431D01*
X-155704319Y-98801490D01*
X-155647463Y-99087325D01*
X-155476776Y-99342776D01*
X-155456776Y-99362776D01*
X-155201325Y-99533463D01*
X-154900000Y-99593400D01*
X-147574000Y-99593400D01*
X-147272675Y-99533463D01*
X-147017224Y-99362776D01*
X-146846537Y-99107325D01*
X-146786600Y-98806000D01*
X-146788203Y-98797941D01*
X-146608683Y-98764162D01*
X-146392559Y-98625090D01*
X-146247569Y-98412890D01*
X-146224303Y-98298000D01*
X-145923000Y-98298000D01*
X-145631395Y-98239996D01*
X-145384185Y-98074815D01*
X-145003185Y-97693816D01*
X-145003183Y-97693813D01*
X-142305370Y-94996000D01*
X-121158000Y-94996000D01*
X-120866395Y-94937996D01*
X-120619185Y-94772815D01*
X-120447720Y-94601350D01*
X-118481000Y-94601350D01*
X-118481000Y-95191909D01*
X-118384327Y-95425298D01*
X-118205699Y-95603927D01*
X-117972310Y-95700600D01*
X-117506750Y-95700600D01*
X-117348000Y-95541850D01*
X-117348000Y-94442600D01*
X-118322250Y-94442600D01*
X-118481000Y-94601350D01*
X-120447720Y-94601350D01*
X-119266185Y-93419815D01*
X-118480538Y-92634169D01*
X-118449162Y-92800917D01*
X-118310090Y-93017041D01*
X-118241994Y-93063569D01*
X-118384327Y-93205902D01*
X-118481000Y-93439291D01*
X-118481000Y-94029850D01*
X-118322250Y-94188600D01*
X-117348000Y-94188600D01*
X-117348000Y-94168600D01*
X-117094000Y-94168600D01*
X-117094000Y-94188600D01*
X-117074000Y-94188600D01*
X-117074000Y-94442600D01*
X-117094000Y-94442600D01*
X-117094000Y-95541850D01*
X-116935250Y-95700600D01*
X-116717000Y-95700600D01*
X-116717000Y-97097370D01*
X-118171630Y-98552000D01*
X-129921000Y-98552000D01*
X-130212605Y-98610004D01*
X-130459815Y-98775185D01*
X-132528519Y-100843889D01*
X-132636776Y-100916224D01*
X-132807463Y-101171675D01*
X-132867400Y-101473000D01*
X-132867400Y-101600000D01*
X-132862117Y-101626560D01*
X-132930000Y-101626560D01*
X-133165317Y-101670838D01*
X-133381441Y-101809910D01*
X-133524714Y-102019597D01*
X-133524714Y-101162000D01*
X-136223285Y-101162000D01*
X-136223285Y-104954000D01*
X-169470000Y-104954000D01*
X-169470000Y-100432890D01*
X-169081476Y-100432890D01*
X-168911645Y-100842924D01*
X-168521358Y-101271183D01*
X-167996892Y-101517486D01*
X-167767000Y-101396819D01*
X-167767000Y-100203000D01*
X-167513000Y-100203000D01*
X-167513000Y-101396819D01*
X-167283108Y-101517486D01*
X-166758642Y-101271183D01*
X-166368355Y-100842924D01*
X-166198524Y-100432890D01*
X-166319845Y-100203000D01*
X-167513000Y-100203000D01*
X-167767000Y-100203000D01*
X-168960155Y-100203000D01*
X-169081476Y-100432890D01*
X-169470000Y-100432890D01*
X-169470000Y-58114000D01*
X-106378285Y-58114000D01*
X-106378285Y-58446560D01*
G36*
X-100917040Y-78173000D02*
X-100872762Y-78408317D01*
X-100733690Y-78624441D01*
X-100652174Y-78680139D01*
X-100631728Y-78782927D01*
X-100439455Y-79070683D01*
X-100405981Y-79120781D01*
X-99796381Y-79730381D01*
X-99458526Y-79956129D01*
X-99060000Y-80035400D01*
X-96647000Y-80035400D01*
X-96248473Y-79956128D01*
X-95910619Y-79730381D01*
X-95042219Y-78861981D01*
X-95028808Y-78841910D01*
X-94816472Y-78524127D01*
X-94737200Y-78125600D01*
X-94737200Y-77754000D01*
X-94277929Y-77754000D01*
X-94350134Y-78117000D01*
X-94259931Y-78570480D01*
X-94003056Y-78954922D01*
X-93618614Y-79211797D01*
X-93165134Y-79302000D01*
X-92710866Y-79302000D01*
X-92257386Y-79211797D01*
X-92246316Y-79204400D01*
X-91219425Y-79204400D01*
X-91197656Y-79257086D01*
X-90780283Y-79675188D01*
X-90234681Y-79901742D01*
X-89643911Y-79902257D01*
X-89097914Y-79676656D01*
X-88679812Y-79259283D01*
X-88594000Y-79052625D01*
X-88594000Y-104954000D01*
X-101156764Y-104954000D01*
X-100971382Y-104768618D01*
X-100778671Y-104480206D01*
X-100750172Y-104336934D01*
X-100549946Y-104203147D01*
X-100422894Y-104013000D01*
X-94615000Y-104013000D01*
X-94274794Y-103945329D01*
X-93986382Y-103752618D01*
X-91954382Y-101720618D01*
X-91905409Y-101647325D01*
X-91761671Y-101432206D01*
X-91694000Y-101092000D01*
X-91694000Y-85888912D01*
X-91553179Y-85549779D01*
X-91552821Y-85140019D01*
X-91709299Y-84761314D01*
X-91998790Y-84471318D01*
X-92377221Y-84314179D01*
X-92786981Y-84313821D01*
X-93165686Y-84470299D01*
X-93455682Y-84759790D01*
X-93612821Y-85138221D01*
X-93613179Y-85547981D01*
X-93472000Y-85889660D01*
X-93472000Y-100723764D01*
X-94983236Y-102235000D01*
X-100422894Y-102235000D01*
X-100549946Y-102044853D01*
X-101031715Y-101722946D01*
X-101600000Y-101609907D01*
X-102168285Y-101722946D01*
X-102650054Y-102044853D01*
X-102877702Y-102385553D01*
X-102944817Y-102242642D01*
X-103373076Y-101852355D01*
X-103783110Y-101682524D01*
X-104013000Y-101803845D01*
X-104013000Y-102997000D01*
X-103993000Y-102997000D01*
X-103993000Y-103251000D01*
X-104013000Y-103251000D01*
X-104013000Y-103271000D01*
X-104267000Y-103271000D01*
X-104267000Y-103251000D01*
X-104287000Y-103251000D01*
X-104287000Y-102997000D01*
X-104267000Y-102997000D01*
X-104267000Y-101803845D01*
X-104496890Y-101682524D01*
X-104906924Y-101852355D01*
X-105335183Y-102242642D01*
X-105402298Y-102385553D01*
X-105629946Y-102044853D01*
X-105892600Y-101869354D01*
X-105892600Y-101672152D01*
X-105782348Y-101561900D01*
X-97599500Y-101561900D01*
X-97298175Y-101501963D01*
X-97042724Y-101331276D01*
X-94312224Y-98600776D01*
X-94141537Y-98345325D01*
X-94081600Y-98044000D01*
X-94081600Y-83820000D01*
X-94141537Y-83518675D01*
X-94312224Y-83263224D01*
X-94420478Y-83190891D01*
X-96604185Y-81007185D01*
X-96716842Y-80931910D01*
X-96851395Y-80842004D01*
X-97143000Y-80784000D01*
X-104436344Y-80784000D01*
X-104265395Y-80749996D01*
X-104018185Y-80584815D01*
X-100917040Y-77483670D01*
X-100917040Y-78173000D01*
X-100917040Y-78173000D01*
G37*
X-100917040Y-78173000D02*
X-100872762Y-78408317D01*
X-100733690Y-78624441D01*
X-100652174Y-78680139D01*
X-100631728Y-78782927D01*
X-100439455Y-79070683D01*
X-100405981Y-79120781D01*
X-99796381Y-79730381D01*
X-99458526Y-79956129D01*
X-99060000Y-80035400D01*
X-96647000Y-80035400D01*
X-96248473Y-79956128D01*
X-95910619Y-79730381D01*
X-95042219Y-78861981D01*
X-95028808Y-78841910D01*
X-94816472Y-78524127D01*
X-94737200Y-78125600D01*
X-94737200Y-77754000D01*
X-94277929Y-77754000D01*
X-94350134Y-78117000D01*
X-94259931Y-78570480D01*
X-94003056Y-78954922D01*
X-93618614Y-79211797D01*
X-93165134Y-79302000D01*
X-92710866Y-79302000D01*
X-92257386Y-79211797D01*
X-92246316Y-79204400D01*
X-91219425Y-79204400D01*
X-91197656Y-79257086D01*
X-90780283Y-79675188D01*
X-90234681Y-79901742D01*
X-89643911Y-79902257D01*
X-89097914Y-79676656D01*
X-88679812Y-79259283D01*
X-88594000Y-79052625D01*
X-88594000Y-104954000D01*
X-101156764Y-104954000D01*
X-100971382Y-104768618D01*
X-100778671Y-104480206D01*
X-100750172Y-104336934D01*
X-100549946Y-104203147D01*
X-100422894Y-104013000D01*
X-94615000Y-104013000D01*
X-94274794Y-103945329D01*
X-93986382Y-103752618D01*
X-91954382Y-101720618D01*
X-91905409Y-101647325D01*
X-91761671Y-101432206D01*
X-91694000Y-101092000D01*
X-91694000Y-85888912D01*
X-91553179Y-85549779D01*
X-91552821Y-85140019D01*
X-91709299Y-84761314D01*
X-91998790Y-84471318D01*
X-92377221Y-84314179D01*
X-92786981Y-84313821D01*
X-93165686Y-84470299D01*
X-93455682Y-84759790D01*
X-93612821Y-85138221D01*
X-93613179Y-85547981D01*
X-93472000Y-85889660D01*
X-93472000Y-100723764D01*
X-94983236Y-102235000D01*
X-100422894Y-102235000D01*
X-100549946Y-102044853D01*
X-101031715Y-101722946D01*
X-101600000Y-101609907D01*
X-102168285Y-101722946D01*
X-102650054Y-102044853D01*
X-102877702Y-102385553D01*
X-102944817Y-102242642D01*
X-103373076Y-101852355D01*
X-103783110Y-101682524D01*
X-104013000Y-101803845D01*
X-104013000Y-102997000D01*
X-103993000Y-102997000D01*
X-103993000Y-103251000D01*
X-104013000Y-103251000D01*
X-104013000Y-103271000D01*
X-104267000Y-103271000D01*
X-104267000Y-103251000D01*
X-104287000Y-103251000D01*
X-104287000Y-102997000D01*
X-104267000Y-102997000D01*
X-104267000Y-101803845D01*
X-104496890Y-101682524D01*
X-104906924Y-101852355D01*
X-105335183Y-102242642D01*
X-105402298Y-102385553D01*
X-105629946Y-102044853D01*
X-105892600Y-101869354D01*
X-105892600Y-101672152D01*
X-105782348Y-101561900D01*
X-97599500Y-101561900D01*
X-97298175Y-101501963D01*
X-97042724Y-101331276D01*
X-94312224Y-98600776D01*
X-94141537Y-98345325D01*
X-94081600Y-98044000D01*
X-94081600Y-83820000D01*
X-94141537Y-83518675D01*
X-94312224Y-83263224D01*
X-94420478Y-83190891D01*
X-96604185Y-81007185D01*
X-96716842Y-80931910D01*
X-96851395Y-80842004D01*
X-97143000Y-80784000D01*
X-104436344Y-80784000D01*
X-104265395Y-80749996D01*
X-104018185Y-80584815D01*
X-100917040Y-77483670D01*
X-100917040Y-78173000D01*
G36*
X-97942400Y-85634231D02*
X-97942400Y-96574848D01*
X-99005152Y-97637600D01*
X-111506000Y-97637600D01*
X-111807325Y-97697537D01*
X-112062776Y-97868224D01*
X-114856776Y-100662224D01*
X-115027463Y-100917675D01*
X-115087400Y-101219000D01*
X-115087400Y-101626560D01*
X-115150000Y-101626560D01*
X-115385317Y-101670838D01*
X-115601441Y-101809910D01*
X-115746431Y-102022110D01*
X-115797440Y-102274000D01*
X-115797440Y-103759000D01*
X-118033177Y-103759000D01*
X-118008039Y-103721378D01*
X-117895000Y-103153093D01*
X-117895000Y-103094907D01*
X-118008039Y-102526622D01*
X-118287753Y-102108000D01*
X-116840000Y-102108000D01*
X-116548395Y-102049996D01*
X-116301185Y-101884815D01*
X-113916185Y-99499816D01*
X-113751004Y-99252605D01*
X-113750585Y-99250500D01*
X-113693000Y-98961000D01*
X-113693000Y-90670456D01*
X-113658996Y-90841405D01*
X-113549625Y-91005090D01*
X-113493815Y-91088615D01*
X-111587615Y-92994815D01*
X-111340405Y-93159996D01*
X-111048800Y-93218000D01*
X-108984521Y-93218000D01*
X-108975631Y-93239515D01*
X-108586364Y-93629461D01*
X-108077502Y-93840759D01*
X-107526515Y-93841240D01*
X-107017285Y-93630831D01*
X-106627339Y-93241564D01*
X-106416041Y-92732702D01*
X-106415560Y-92181715D01*
X-106625969Y-91672485D01*
X-106883405Y-91414600D01*
X-105039830Y-91414600D01*
X-104296632Y-92157799D01*
X-104305559Y-92179298D01*
X-104306040Y-92730285D01*
X-104095631Y-93239515D01*
X-103706364Y-93629461D01*
X-103197502Y-93840759D01*
X-102646515Y-93841240D01*
X-102137285Y-93630831D01*
X-101747339Y-93241564D01*
X-101536041Y-92732702D01*
X-101535560Y-92181715D01*
X-101745969Y-91672485D01*
X-102135236Y-91282539D01*
X-102644098Y-91071241D01*
X-103195085Y-91070760D01*
X-103218666Y-91080503D01*
X-104185385Y-90113785D01*
X-104432595Y-89948604D01*
X-104724200Y-89890600D01*
X-111139569Y-89890600D01*
X-111693000Y-89337170D01*
X-111693000Y-88921008D01*
X-111657560Y-88746000D01*
X-111657560Y-88011000D01*
X-110490000Y-88011000D01*
X-110443841Y-88002315D01*
X-110401447Y-87975035D01*
X-110373006Y-87933410D01*
X-110363000Y-87884000D01*
X-110363000Y-86687250D01*
X-110219250Y-86831000D01*
X-109628691Y-86831000D01*
X-109395302Y-86734327D01*
X-109216673Y-86555699D01*
X-109120000Y-86322310D01*
X-109120000Y-86308000D01*
X-108692287Y-86308000D01*
X-108673562Y-86407517D01*
X-108534490Y-86623641D01*
X-108322290Y-86768631D01*
X-108070400Y-86819640D01*
X-106570400Y-86819640D01*
X-106335083Y-86775362D01*
X-106118959Y-86636290D01*
X-106072431Y-86568194D01*
X-105930098Y-86710527D01*
X-105696709Y-86807200D01*
X-105106150Y-86807200D01*
X-104947400Y-86648450D01*
X-104947400Y-85674200D01*
X-104693400Y-85674200D01*
X-104693400Y-86648450D01*
X-104534650Y-86807200D01*
X-103944091Y-86807200D01*
X-103710702Y-86710527D01*
X-103532073Y-86531899D01*
X-103435400Y-86298510D01*
X-103435400Y-85832950D01*
X-103594150Y-85674200D01*
X-104693400Y-85674200D01*
X-104947400Y-85674200D01*
X-104967400Y-85674200D01*
X-104967400Y-85420200D01*
X-104947400Y-85420200D01*
X-104947400Y-84445950D01*
X-104693400Y-84445950D01*
X-104693400Y-85420200D01*
X-103594150Y-85420200D01*
X-103435400Y-85261450D01*
X-103435400Y-84795890D01*
X-103532073Y-84562501D01*
X-103710702Y-84383873D01*
X-103944091Y-84287200D01*
X-104534650Y-84287200D01*
X-104693400Y-84445950D01*
X-104947400Y-84445950D01*
X-105106150Y-84287200D01*
X-105696709Y-84287200D01*
X-105930098Y-84383873D01*
X-106071336Y-84525110D01*
X-106106310Y-84470759D01*
X-106318510Y-84325769D01*
X-106570400Y-84274760D01*
X-108070400Y-84274760D01*
X-108305717Y-84319038D01*
X-108521841Y-84458110D01*
X-108666831Y-84670310D01*
X-108689854Y-84784000D01*
X-109125380Y-84784000D01*
X-109107560Y-84696000D01*
X-109107560Y-84396000D01*
X-109127067Y-84292329D01*
X-109107560Y-84196000D01*
X-109107560Y-83896000D01*
X-109124118Y-83808000D01*
X-99768630Y-83808000D01*
X-97942400Y-85634231D01*
X-97942400Y-85634231D01*
G37*
X-97942400Y-85634231D02*
X-97942400Y-96574848D01*
X-99005152Y-97637600D01*
X-111506000Y-97637600D01*
X-111807325Y-97697537D01*
X-112062776Y-97868224D01*
X-114856776Y-100662224D01*
X-115027463Y-100917675D01*
X-115087400Y-101219000D01*
X-115087400Y-101626560D01*
X-115150000Y-101626560D01*
X-115385317Y-101670838D01*
X-115601441Y-101809910D01*
X-115746431Y-102022110D01*
X-115797440Y-102274000D01*
X-115797440Y-103759000D01*
X-118033177Y-103759000D01*
X-118008039Y-103721378D01*
X-117895000Y-103153093D01*
X-117895000Y-103094907D01*
X-118008039Y-102526622D01*
X-118287753Y-102108000D01*
X-116840000Y-102108000D01*
X-116548395Y-102049996D01*
X-116301185Y-101884815D01*
X-113916185Y-99499816D01*
X-113751004Y-99252605D01*
X-113750585Y-99250500D01*
X-113693000Y-98961000D01*
X-113693000Y-90670456D01*
X-113658996Y-90841405D01*
X-113549625Y-91005090D01*
X-113493815Y-91088615D01*
X-111587615Y-92994815D01*
X-111340405Y-93159996D01*
X-111048800Y-93218000D01*
X-108984521Y-93218000D01*
X-108975631Y-93239515D01*
X-108586364Y-93629461D01*
X-108077502Y-93840759D01*
X-107526515Y-93841240D01*
X-107017285Y-93630831D01*
X-106627339Y-93241564D01*
X-106416041Y-92732702D01*
X-106415560Y-92181715D01*
X-106625969Y-91672485D01*
X-106883405Y-91414600D01*
X-105039830Y-91414600D01*
X-104296632Y-92157799D01*
X-104305559Y-92179298D01*
X-104306040Y-92730285D01*
X-104095631Y-93239515D01*
X-103706364Y-93629461D01*
X-103197502Y-93840759D01*
X-102646515Y-93841240D01*
X-102137285Y-93630831D01*
X-101747339Y-93241564D01*
X-101536041Y-92732702D01*
X-101535560Y-92181715D01*
X-101745969Y-91672485D01*
X-102135236Y-91282539D01*
X-102644098Y-91071241D01*
X-103195085Y-91070760D01*
X-103218666Y-91080503D01*
X-104185385Y-90113785D01*
X-104432595Y-89948604D01*
X-104724200Y-89890600D01*
X-111139569Y-89890600D01*
X-111693000Y-89337170D01*
X-111693000Y-88921008D01*
X-111657560Y-88746000D01*
X-111657560Y-88011000D01*
X-110490000Y-88011000D01*
X-110443841Y-88002315D01*
X-110401447Y-87975035D01*
X-110373006Y-87933410D01*
X-110363000Y-87884000D01*
X-110363000Y-86687250D01*
X-110219250Y-86831000D01*
X-109628691Y-86831000D01*
X-109395302Y-86734327D01*
X-109216673Y-86555699D01*
X-109120000Y-86322310D01*
X-109120000Y-86308000D01*
X-108692287Y-86308000D01*
X-108673562Y-86407517D01*
X-108534490Y-86623641D01*
X-108322290Y-86768631D01*
X-108070400Y-86819640D01*
X-106570400Y-86819640D01*
X-106335083Y-86775362D01*
X-106118959Y-86636290D01*
X-106072431Y-86568194D01*
X-105930098Y-86710527D01*
X-105696709Y-86807200D01*
X-105106150Y-86807200D01*
X-104947400Y-86648450D01*
X-104947400Y-85674200D01*
X-104693400Y-85674200D01*
X-104693400Y-86648450D01*
X-104534650Y-86807200D01*
X-103944091Y-86807200D01*
X-103710702Y-86710527D01*
X-103532073Y-86531899D01*
X-103435400Y-86298510D01*
X-103435400Y-85832950D01*
X-103594150Y-85674200D01*
X-104693400Y-85674200D01*
X-104947400Y-85674200D01*
X-104967400Y-85674200D01*
X-104967400Y-85420200D01*
X-104947400Y-85420200D01*
X-104947400Y-84445950D01*
X-104693400Y-84445950D01*
X-104693400Y-85420200D01*
X-103594150Y-85420200D01*
X-103435400Y-85261450D01*
X-103435400Y-84795890D01*
X-103532073Y-84562501D01*
X-103710702Y-84383873D01*
X-103944091Y-84287200D01*
X-104534650Y-84287200D01*
X-104693400Y-84445950D01*
X-104947400Y-84445950D01*
X-105106150Y-84287200D01*
X-105696709Y-84287200D01*
X-105930098Y-84383873D01*
X-106071336Y-84525110D01*
X-106106310Y-84470759D01*
X-106318510Y-84325769D01*
X-106570400Y-84274760D01*
X-108070400Y-84274760D01*
X-108305717Y-84319038D01*
X-108521841Y-84458110D01*
X-108666831Y-84670310D01*
X-108689854Y-84784000D01*
X-109125380Y-84784000D01*
X-109107560Y-84696000D01*
X-109107560Y-84396000D01*
X-109127067Y-84292329D01*
X-109107560Y-84196000D01*
X-109107560Y-83896000D01*
X-109124118Y-83808000D01*
X-99768630Y-83808000D01*
X-97942400Y-85634231D01*
G36*
X-152293000Y-97409000D02*
X-150221000Y-97409000D01*
X-150221000Y-97389000D01*
X-149967000Y-97389000D01*
X-149967000Y-97409000D01*
X-149947000Y-97409000D01*
X-149947000Y-97663000D01*
X-149967000Y-97663000D01*
X-149967000Y-97683000D01*
X-150221000Y-97683000D01*
X-150221000Y-97663000D01*
X-152293000Y-97663000D01*
X-152293000Y-97683000D01*
X-152547000Y-97683000D01*
X-152547000Y-97663000D01*
X-152567000Y-97663000D01*
X-152567000Y-97409000D01*
X-152547000Y-97409000D01*
X-152547000Y-97389000D01*
X-152293000Y-97389000D01*
X-152293000Y-97409000D01*
X-152293000Y-97409000D01*
G37*
X-152293000Y-97409000D02*
X-150221000Y-97409000D01*
X-150221000Y-97389000D01*
X-149967000Y-97389000D01*
X-149967000Y-97409000D01*
X-149947000Y-97409000D01*
X-149947000Y-97663000D01*
X-149967000Y-97663000D01*
X-149967000Y-97683000D01*
X-150221000Y-97683000D01*
X-150221000Y-97663000D01*
X-152293000Y-97663000D01*
X-152293000Y-97683000D01*
X-152547000Y-97683000D01*
X-152547000Y-97663000D01*
X-152567000Y-97663000D01*
X-152567000Y-97409000D01*
X-152547000Y-97409000D01*
X-152547000Y-97389000D01*
X-152293000Y-97389000D01*
X-152293000Y-97409000D01*
G36*
X-152293000Y-94869000D02*
X-150221000Y-94869000D01*
X-150221000Y-94849000D01*
X-149967000Y-94849000D01*
X-149967000Y-94869000D01*
X-149947000Y-94869000D01*
X-149947000Y-95123000D01*
X-149967000Y-95123000D01*
X-149967000Y-95143000D01*
X-150221000Y-95143000D01*
X-150221000Y-95123000D01*
X-152293000Y-95123000D01*
X-152293000Y-95143000D01*
X-152547000Y-95143000D01*
X-152547000Y-95123000D01*
X-152567000Y-95123000D01*
X-152567000Y-94869000D01*
X-152547000Y-94869000D01*
X-152547000Y-94849000D01*
X-152293000Y-94849000D01*
X-152293000Y-94869000D01*
X-152293000Y-94869000D01*
G37*
X-152293000Y-94869000D02*
X-150221000Y-94869000D01*
X-150221000Y-94849000D01*
X-149967000Y-94849000D01*
X-149967000Y-94869000D01*
X-149947000Y-94869000D01*
X-149947000Y-95123000D01*
X-149967000Y-95123000D01*
X-149967000Y-95143000D01*
X-150221000Y-95143000D01*
X-150221000Y-95123000D01*
X-152293000Y-95123000D01*
X-152293000Y-95143000D01*
X-152547000Y-95143000D01*
X-152547000Y-95123000D01*
X-152567000Y-95123000D01*
X-152567000Y-94869000D01*
X-152547000Y-94869000D01*
X-152547000Y-94849000D01*
X-152293000Y-94849000D01*
X-152293000Y-94869000D01*
G36*
X-152293000Y-92329000D02*
X-150221000Y-92329000D01*
X-150221000Y-92309000D01*
X-149967000Y-92309000D01*
X-149967000Y-92329000D01*
X-149947000Y-92329000D01*
X-149947000Y-92583000D01*
X-149967000Y-92583000D01*
X-149967000Y-92603000D01*
X-150221000Y-92603000D01*
X-150221000Y-92583000D01*
X-152293000Y-92583000D01*
X-152293000Y-92603000D01*
X-152547000Y-92603000D01*
X-152547000Y-92583000D01*
X-152567000Y-92583000D01*
X-152567000Y-92329000D01*
X-152547000Y-92329000D01*
X-152547000Y-92309000D01*
X-152293000Y-92309000D01*
X-152293000Y-92329000D01*
X-152293000Y-92329000D01*
G37*
X-152293000Y-92329000D02*
X-150221000Y-92329000D01*
X-150221000Y-92309000D01*
X-149967000Y-92309000D01*
X-149967000Y-92329000D01*
X-149947000Y-92329000D01*
X-149947000Y-92583000D01*
X-149967000Y-92583000D01*
X-149967000Y-92603000D01*
X-150221000Y-92603000D01*
X-150221000Y-92583000D01*
X-152293000Y-92583000D01*
X-152293000Y-92603000D01*
X-152547000Y-92603000D01*
X-152547000Y-92583000D01*
X-152567000Y-92583000D01*
X-152567000Y-92329000D01*
X-152547000Y-92329000D01*
X-152547000Y-92309000D01*
X-152293000Y-92309000D01*
X-152293000Y-92329000D01*
G36*
X-122655000Y-86843440D02*
X-122047000Y-86843440D01*
X-122047000Y-87884000D01*
X-122038315Y-87930159D01*
X-122011035Y-87972553D01*
X-121969410Y-88000994D01*
X-121920000Y-88011000D01*
X-120752440Y-88011000D01*
X-120752440Y-88746000D01*
X-120721589Y-88909959D01*
X-122743630Y-90932000D01*
X-142686369Y-90932000D01*
X-144241185Y-89377185D01*
X-144265114Y-89361196D01*
X-144488395Y-89212004D01*
X-144780000Y-89154000D01*
X-146222338Y-89154000D01*
X-146240838Y-89055683D01*
X-146379910Y-88839559D01*
X-146592110Y-88694569D01*
X-146788356Y-88654828D01*
X-146786600Y-88646000D01*
X-146788203Y-88637941D01*
X-146608683Y-88604162D01*
X-146392559Y-88465090D01*
X-146247569Y-88252890D01*
X-146224303Y-88138000D01*
X-144957800Y-88138000D01*
X-144666195Y-88079996D01*
X-144418985Y-87914815D01*
X-143312170Y-86808000D01*
X-122830008Y-86808000D01*
X-122655000Y-86843440D01*
X-122655000Y-86843440D01*
G37*
X-122655000Y-86843440D02*
X-122047000Y-86843440D01*
X-122047000Y-87884000D01*
X-122038315Y-87930159D01*
X-122011035Y-87972553D01*
X-121969410Y-88000994D01*
X-121920000Y-88011000D01*
X-120752440Y-88011000D01*
X-120752440Y-88746000D01*
X-120721589Y-88909959D01*
X-122743630Y-90932000D01*
X-142686369Y-90932000D01*
X-144241185Y-89377185D01*
X-144265114Y-89361196D01*
X-144488395Y-89212004D01*
X-144780000Y-89154000D01*
X-146222338Y-89154000D01*
X-146240838Y-89055683D01*
X-146379910Y-88839559D01*
X-146592110Y-88694569D01*
X-146788356Y-88654828D01*
X-146786600Y-88646000D01*
X-146788203Y-88637941D01*
X-146608683Y-88604162D01*
X-146392559Y-88465090D01*
X-146247569Y-88252890D01*
X-146224303Y-88138000D01*
X-144957800Y-88138000D01*
X-144666195Y-88079996D01*
X-144418985Y-87914815D01*
X-143312170Y-86808000D01*
X-122830008Y-86808000D01*
X-122655000Y-86843440D01*
G36*
X-152293000Y-89789000D02*
X-150221000Y-89789000D01*
X-150221000Y-89769000D01*
X-149967000Y-89769000D01*
X-149967000Y-89789000D01*
X-149947000Y-89789000D01*
X-149947000Y-90043000D01*
X-149967000Y-90043000D01*
X-149967000Y-90063000D01*
X-150221000Y-90063000D01*
X-150221000Y-90043000D01*
X-152293000Y-90043000D01*
X-152293000Y-90063000D01*
X-152547000Y-90063000D01*
X-152547000Y-90043000D01*
X-152567000Y-90043000D01*
X-152567000Y-89789000D01*
X-152547000Y-89789000D01*
X-152547000Y-89769000D01*
X-152293000Y-89769000D01*
X-152293000Y-89789000D01*
X-152293000Y-89789000D01*
G37*
X-152293000Y-89789000D02*
X-150221000Y-89789000D01*
X-150221000Y-89769000D01*
X-149967000Y-89769000D01*
X-149967000Y-89789000D01*
X-149947000Y-89789000D01*
X-149947000Y-90043000D01*
X-149967000Y-90043000D01*
X-149967000Y-90063000D01*
X-150221000Y-90063000D01*
X-150221000Y-90043000D01*
X-152293000Y-90043000D01*
X-152293000Y-90063000D01*
X-152547000Y-90063000D01*
X-152547000Y-90043000D01*
X-152567000Y-90043000D01*
X-152567000Y-89789000D01*
X-152547000Y-89789000D01*
X-152547000Y-89769000D01*
X-152293000Y-89769000D01*
X-152293000Y-89789000D01*
G36*
X-152293000Y-87249000D02*
X-150221000Y-87249000D01*
X-150221000Y-87229000D01*
X-149967000Y-87229000D01*
X-149967000Y-87249000D01*
X-149947000Y-87249000D01*
X-149947000Y-87503000D01*
X-149967000Y-87503000D01*
X-149967000Y-87523000D01*
X-150221000Y-87523000D01*
X-150221000Y-87503000D01*
X-152293000Y-87503000D01*
X-152293000Y-87523000D01*
X-152547000Y-87523000D01*
X-152547000Y-87503000D01*
X-152567000Y-87503000D01*
X-152567000Y-87249000D01*
X-152547000Y-87249000D01*
X-152547000Y-87229000D01*
X-152293000Y-87229000D01*
X-152293000Y-87249000D01*
X-152293000Y-87249000D01*
G37*
X-152293000Y-87249000D02*
X-150221000Y-87249000D01*
X-150221000Y-87229000D01*
X-149967000Y-87229000D01*
X-149967000Y-87249000D01*
X-149947000Y-87249000D01*
X-149947000Y-87503000D01*
X-149967000Y-87503000D01*
X-149967000Y-87523000D01*
X-150221000Y-87523000D01*
X-150221000Y-87503000D01*
X-152293000Y-87503000D01*
X-152293000Y-87523000D01*
X-152547000Y-87523000D01*
X-152547000Y-87503000D01*
X-152567000Y-87503000D01*
X-152567000Y-87249000D01*
X-152547000Y-87249000D01*
X-152547000Y-87229000D01*
X-152293000Y-87229000D01*
X-152293000Y-87249000D01*
G36*
X-152293000Y-84709000D02*
X-150221000Y-84709000D01*
X-150221000Y-84689000D01*
X-149967000Y-84689000D01*
X-149967000Y-84709000D01*
X-149947000Y-84709000D01*
X-149947000Y-84963000D01*
X-149967000Y-84963000D01*
X-149967000Y-84983000D01*
X-150221000Y-84983000D01*
X-150221000Y-84963000D01*
X-152293000Y-84963000D01*
X-152293000Y-84983000D01*
X-152547000Y-84983000D01*
X-152547000Y-84963000D01*
X-152567000Y-84963000D01*
X-152567000Y-84709000D01*
X-152547000Y-84709000D01*
X-152547000Y-84689000D01*
X-152293000Y-84689000D01*
X-152293000Y-84709000D01*
X-152293000Y-84709000D01*
G37*
X-152293000Y-84709000D02*
X-150221000Y-84709000D01*
X-150221000Y-84689000D01*
X-149967000Y-84689000D01*
X-149967000Y-84709000D01*
X-149947000Y-84709000D01*
X-149947000Y-84963000D01*
X-149967000Y-84963000D01*
X-149967000Y-84983000D01*
X-150221000Y-84983000D01*
X-150221000Y-84963000D01*
X-152293000Y-84963000D01*
X-152293000Y-84983000D01*
X-152547000Y-84983000D01*
X-152547000Y-84963000D01*
X-152567000Y-84963000D01*
X-152567000Y-84709000D01*
X-152547000Y-84709000D01*
X-152547000Y-84689000D01*
X-152293000Y-84689000D01*
X-152293000Y-84709000D01*
G36*
X-152293000Y-82169000D02*
X-150221000Y-82169000D01*
X-150221000Y-82149000D01*
X-149967000Y-82149000D01*
X-149967000Y-82169000D01*
X-149947000Y-82169000D01*
X-149947000Y-82423000D01*
X-149967000Y-82423000D01*
X-149967000Y-82443000D01*
X-150221000Y-82443000D01*
X-150221000Y-82423000D01*
X-152293000Y-82423000D01*
X-152293000Y-82443000D01*
X-152547000Y-82443000D01*
X-152547000Y-82423000D01*
X-152567000Y-82423000D01*
X-152567000Y-82169000D01*
X-152547000Y-82169000D01*
X-152547000Y-82149000D01*
X-152293000Y-82149000D01*
X-152293000Y-82169000D01*
X-152293000Y-82169000D01*
G37*
X-152293000Y-82169000D02*
X-150221000Y-82169000D01*
X-150221000Y-82149000D01*
X-149967000Y-82149000D01*
X-149967000Y-82169000D01*
X-149947000Y-82169000D01*
X-149947000Y-82423000D01*
X-149967000Y-82423000D01*
X-149967000Y-82443000D01*
X-150221000Y-82443000D01*
X-150221000Y-82423000D01*
X-152293000Y-82423000D01*
X-152293000Y-82443000D01*
X-152547000Y-82443000D01*
X-152547000Y-82423000D01*
X-152567000Y-82423000D01*
X-152567000Y-82169000D01*
X-152547000Y-82169000D01*
X-152547000Y-82149000D01*
X-152293000Y-82149000D01*
X-152293000Y-82169000D01*
G36*
X-135529000Y-80137000D02*
X-133457000Y-80137000D01*
X-133457000Y-80117000D01*
X-133203000Y-80117000D01*
X-133203000Y-80137000D01*
X-133183000Y-80137000D01*
X-133183000Y-80391000D01*
X-133203000Y-80391000D01*
X-133203000Y-80411000D01*
X-133457000Y-80411000D01*
X-133457000Y-80391000D01*
X-135529000Y-80391000D01*
X-135529000Y-80411000D01*
X-135783000Y-80411000D01*
X-135783000Y-80391000D01*
X-135803000Y-80391000D01*
X-135803000Y-80137000D01*
X-135783000Y-80137000D01*
X-135783000Y-80117000D01*
X-135529000Y-80117000D01*
X-135529000Y-80137000D01*
X-135529000Y-80137000D01*
G37*
X-135529000Y-80137000D02*
X-133457000Y-80137000D01*
X-133457000Y-80117000D01*
X-133203000Y-80117000D01*
X-133203000Y-80137000D01*
X-133183000Y-80137000D01*
X-133183000Y-80391000D01*
X-133203000Y-80391000D01*
X-133203000Y-80411000D01*
X-133457000Y-80411000D01*
X-133457000Y-80391000D01*
X-135529000Y-80391000D01*
X-135529000Y-80411000D01*
X-135783000Y-80411000D01*
X-135783000Y-80391000D01*
X-135803000Y-80391000D01*
X-135803000Y-80137000D01*
X-135783000Y-80137000D01*
X-135783000Y-80117000D01*
X-135529000Y-80117000D01*
X-135529000Y-80137000D01*
G36*
X-152293000Y-79629000D02*
X-150221000Y-79629000D01*
X-150221000Y-79609000D01*
X-149967000Y-79609000D01*
X-149967000Y-79629000D01*
X-149947000Y-79629000D01*
X-149947000Y-79883000D01*
X-149967000Y-79883000D01*
X-149967000Y-79903000D01*
X-150221000Y-79903000D01*
X-150221000Y-79883000D01*
X-152293000Y-79883000D01*
X-152293000Y-79903000D01*
X-152547000Y-79903000D01*
X-152547000Y-79883000D01*
X-152567000Y-79883000D01*
X-152567000Y-79629000D01*
X-152547000Y-79629000D01*
X-152547000Y-79609000D01*
X-152293000Y-79609000D01*
X-152293000Y-79629000D01*
X-152293000Y-79629000D01*
G37*
X-152293000Y-79629000D02*
X-150221000Y-79629000D01*
X-150221000Y-79609000D01*
X-149967000Y-79609000D01*
X-149967000Y-79629000D01*
X-149947000Y-79629000D01*
X-149947000Y-79883000D01*
X-149967000Y-79883000D01*
X-149967000Y-79903000D01*
X-150221000Y-79903000D01*
X-150221000Y-79883000D01*
X-152293000Y-79883000D01*
X-152293000Y-79903000D01*
X-152547000Y-79903000D01*
X-152547000Y-79883000D01*
X-152567000Y-79883000D01*
X-152567000Y-79629000D01*
X-152547000Y-79629000D01*
X-152547000Y-79609000D01*
X-152293000Y-79609000D01*
X-152293000Y-79629000D01*
G36*
X-102530090Y-70132441D02*
X-102403314Y-70219064D01*
X-102489000Y-70304750D01*
X-102489000Y-71604000D01*
X-101739750Y-71604000D01*
X-101581000Y-71445250D01*
X-101581000Y-70654691D01*
X-101677673Y-70421302D01*
X-101770534Y-70328440D01*
X-101266000Y-70328440D01*
X-101030683Y-70284162D01*
X-100814559Y-70145090D01*
X-100716400Y-70001429D01*
X-100716400Y-70435926D01*
X-100876441Y-70538910D01*
X-101021431Y-70751110D01*
X-101072440Y-71003000D01*
X-101072440Y-72253000D01*
X-101028162Y-72488317D01*
X-100889090Y-72704441D01*
X-100711000Y-72826125D01*
X-100711000Y-73502449D01*
X-100721041Y-73508910D01*
X-100866031Y-73721110D01*
X-100917040Y-73973000D01*
X-100917040Y-74873000D01*
X-100906145Y-74930900D01*
X-101346900Y-74930900D01*
X-101638505Y-74988904D01*
X-101885716Y-75154085D01*
X-105515630Y-78784000D01*
X-107449770Y-78784000D01*
X-106725384Y-78059615D01*
X-106592156Y-77860224D01*
X-106560204Y-77812405D01*
X-106502200Y-77520800D01*
X-106502200Y-77122608D01*
X-106499090Y-77127441D01*
X-106286890Y-77272431D01*
X-106035000Y-77323440D01*
X-104785000Y-77323440D01*
X-104549683Y-77279162D01*
X-104333559Y-77140090D01*
X-104188569Y-76927890D01*
X-104137560Y-76676000D01*
X-104137560Y-75176000D01*
X-104181838Y-74940683D01*
X-104320910Y-74724559D01*
X-104389006Y-74678031D01*
X-104246673Y-74535698D01*
X-104150000Y-74302309D01*
X-104150000Y-73711750D01*
X-104308750Y-73553000D01*
X-105283000Y-73553000D01*
X-105283000Y-73573000D01*
X-105537000Y-73573000D01*
X-105537000Y-73553000D01*
X-105557000Y-73553000D01*
X-105557000Y-73299000D01*
X-105537000Y-73299000D01*
X-105537000Y-71354000D01*
X-105283000Y-71354000D01*
X-105283000Y-73299000D01*
X-104308750Y-73299000D01*
X-104150000Y-73140250D01*
X-104150000Y-72549691D01*
X-104242449Y-72326500D01*
X-104150000Y-72103309D01*
X-104150000Y-72016750D01*
X-103651000Y-72016750D01*
X-103651000Y-72807309D01*
X-103554327Y-73040698D01*
X-103375699Y-73219327D01*
X-103142310Y-73316000D01*
X-102901750Y-73316000D01*
X-102743000Y-73157250D01*
X-102743000Y-71858000D01*
X-102489000Y-71858000D01*
X-102489000Y-73157250D01*
X-102330250Y-73316000D01*
X-102089690Y-73316000D01*
X-101856301Y-73219327D01*
X-101677673Y-73040698D01*
X-101581000Y-72807309D01*
X-101581000Y-72016750D01*
X-101739750Y-71858000D01*
X-102489000Y-71858000D01*
X-102743000Y-71858000D01*
X-103492250Y-71858000D01*
X-103651000Y-72016750D01*
X-104150000Y-72016750D01*
X-104150000Y-71512750D01*
X-104308750Y-71354000D01*
X-105283000Y-71354000D01*
X-105537000Y-71354000D01*
X-105557000Y-71354000D01*
X-105557000Y-71100000D01*
X-105537000Y-71100000D01*
X-105537000Y-71080000D01*
X-105283000Y-71080000D01*
X-105283000Y-71100000D01*
X-104308750Y-71100000D01*
X-104150000Y-70941250D01*
X-104150000Y-70350691D01*
X-104176908Y-70285730D01*
X-103966000Y-70328440D01*
X-103461466Y-70328440D01*
X-103554327Y-70421302D01*
X-103651000Y-70654691D01*
X-103651000Y-71445250D01*
X-103492250Y-71604000D01*
X-102743000Y-71604000D01*
X-102743000Y-70304750D01*
X-102829012Y-70218738D01*
X-102714559Y-70145090D01*
X-102615367Y-69999917D01*
X-102530090Y-70132441D01*
X-102530090Y-70132441D01*
G37*
X-102530090Y-70132441D02*
X-102403314Y-70219064D01*
X-102489000Y-70304750D01*
X-102489000Y-71604000D01*
X-101739750Y-71604000D01*
X-101581000Y-71445250D01*
X-101581000Y-70654691D01*
X-101677673Y-70421302D01*
X-101770534Y-70328440D01*
X-101266000Y-70328440D01*
X-101030683Y-70284162D01*
X-100814559Y-70145090D01*
X-100716400Y-70001429D01*
X-100716400Y-70435926D01*
X-100876441Y-70538910D01*
X-101021431Y-70751110D01*
X-101072440Y-71003000D01*
X-101072440Y-72253000D01*
X-101028162Y-72488317D01*
X-100889090Y-72704441D01*
X-100711000Y-72826125D01*
X-100711000Y-73502449D01*
X-100721041Y-73508910D01*
X-100866031Y-73721110D01*
X-100917040Y-73973000D01*
X-100917040Y-74873000D01*
X-100906145Y-74930900D01*
X-101346900Y-74930900D01*
X-101638505Y-74988904D01*
X-101885716Y-75154085D01*
X-105515630Y-78784000D01*
X-107449770Y-78784000D01*
X-106725384Y-78059615D01*
X-106592156Y-77860224D01*
X-106560204Y-77812405D01*
X-106502200Y-77520800D01*
X-106502200Y-77122608D01*
X-106499090Y-77127441D01*
X-106286890Y-77272431D01*
X-106035000Y-77323440D01*
X-104785000Y-77323440D01*
X-104549683Y-77279162D01*
X-104333559Y-77140090D01*
X-104188569Y-76927890D01*
X-104137560Y-76676000D01*
X-104137560Y-75176000D01*
X-104181838Y-74940683D01*
X-104320910Y-74724559D01*
X-104389006Y-74678031D01*
X-104246673Y-74535698D01*
X-104150000Y-74302309D01*
X-104150000Y-73711750D01*
X-104308750Y-73553000D01*
X-105283000Y-73553000D01*
X-105283000Y-73573000D01*
X-105537000Y-73573000D01*
X-105537000Y-73553000D01*
X-105557000Y-73553000D01*
X-105557000Y-73299000D01*
X-105537000Y-73299000D01*
X-105537000Y-71354000D01*
X-105283000Y-71354000D01*
X-105283000Y-73299000D01*
X-104308750Y-73299000D01*
X-104150000Y-73140250D01*
X-104150000Y-72549691D01*
X-104242449Y-72326500D01*
X-104150000Y-72103309D01*
X-104150000Y-72016750D01*
X-103651000Y-72016750D01*
X-103651000Y-72807309D01*
X-103554327Y-73040698D01*
X-103375699Y-73219327D01*
X-103142310Y-73316000D01*
X-102901750Y-73316000D01*
X-102743000Y-73157250D01*
X-102743000Y-71858000D01*
X-102489000Y-71858000D01*
X-102489000Y-73157250D01*
X-102330250Y-73316000D01*
X-102089690Y-73316000D01*
X-101856301Y-73219327D01*
X-101677673Y-73040698D01*
X-101581000Y-72807309D01*
X-101581000Y-72016750D01*
X-101739750Y-71858000D01*
X-102489000Y-71858000D01*
X-102743000Y-71858000D01*
X-103492250Y-71858000D01*
X-103651000Y-72016750D01*
X-104150000Y-72016750D01*
X-104150000Y-71512750D01*
X-104308750Y-71354000D01*
X-105283000Y-71354000D01*
X-105537000Y-71354000D01*
X-105557000Y-71354000D01*
X-105557000Y-71100000D01*
X-105537000Y-71100000D01*
X-105537000Y-71080000D01*
X-105283000Y-71080000D01*
X-105283000Y-71100000D01*
X-104308750Y-71100000D01*
X-104150000Y-70941250D01*
X-104150000Y-70350691D01*
X-104176908Y-70285730D01*
X-103966000Y-70328440D01*
X-103461466Y-70328440D01*
X-103554327Y-70421302D01*
X-103651000Y-70654691D01*
X-103651000Y-71445250D01*
X-103492250Y-71604000D01*
X-102743000Y-71604000D01*
X-102743000Y-70304750D01*
X-102829012Y-70218738D01*
X-102714559Y-70145090D01*
X-102615367Y-69999917D01*
X-102530090Y-70132441D01*
G36*
X-133638054Y-61023147D02*
X-133350000Y-61215618D01*
X-133350000Y-64008000D01*
X-133291996Y-64299605D01*
X-133204591Y-64430415D01*
X-133126815Y-64546815D01*
X-132364815Y-65308816D01*
X-132216623Y-65407834D01*
X-132117605Y-65473996D01*
X-131826000Y-65532000D01*
X-121803830Y-65532000D01*
X-120717000Y-66618831D01*
X-120717000Y-75670992D01*
X-120752440Y-75846000D01*
X-120752440Y-76327000D01*
X-121143000Y-76327000D01*
X-121143000Y-76037200D01*
X-121201004Y-75745595D01*
X-121366185Y-75498385D01*
X-123496600Y-73367970D01*
X-123496600Y-73292623D01*
X-123412303Y-73236297D01*
X-123230604Y-72964366D01*
X-123196092Y-72790860D01*
X-123123797Y-72616756D01*
X-123123403Y-72165225D01*
X-123295833Y-71747914D01*
X-123614835Y-71428355D01*
X-124031844Y-71255197D01*
X-124483375Y-71254803D01*
X-124900686Y-71427233D01*
X-125108683Y-71634867D01*
X-125314835Y-71428355D01*
X-125731844Y-71255197D01*
X-126183375Y-71254803D01*
X-126600686Y-71427233D01*
X-126920245Y-71746235D01*
X-127093403Y-72163244D01*
X-127093797Y-72614775D01*
X-126921367Y-73032086D01*
X-126720600Y-73233204D01*
X-126720600Y-75142400D01*
X-126662596Y-75434005D01*
X-126550936Y-75601115D01*
X-126497415Y-75681215D01*
X-124206000Y-77972631D01*
X-124206000Y-78729170D01*
X-125113985Y-77821185D01*
X-125131262Y-77809641D01*
X-125361195Y-77656004D01*
X-125652800Y-77598000D01*
X-127116182Y-77598000D01*
X-127205910Y-77458559D01*
X-127228600Y-77443056D01*
X-127228600Y-74676000D01*
X-127307872Y-74277473D01*
X-127533619Y-73939619D01*
X-128803619Y-72669619D01*
X-128898239Y-72606396D01*
X-129141473Y-72443872D01*
X-129540000Y-72364600D01*
X-133426638Y-72364600D01*
X-134086600Y-71704638D01*
X-134086600Y-63917204D01*
X-133946559Y-63827090D01*
X-133801569Y-63614890D01*
X-133750560Y-63363000D01*
X-133750560Y-62113000D01*
X-133794838Y-61877683D01*
X-133933910Y-61661559D01*
X-134086600Y-61557230D01*
X-134086600Y-61405426D01*
X-134042683Y-61397162D01*
X-133826559Y-61258090D01*
X-133681569Y-61045890D01*
X-133667914Y-60978459D01*
X-133638054Y-61023147D01*
X-133638054Y-61023147D01*
G37*
X-133638054Y-61023147D02*
X-133350000Y-61215618D01*
X-133350000Y-64008000D01*
X-133291996Y-64299605D01*
X-133204591Y-64430415D01*
X-133126815Y-64546815D01*
X-132364815Y-65308816D01*
X-132216623Y-65407834D01*
X-132117605Y-65473996D01*
X-131826000Y-65532000D01*
X-121803830Y-65532000D01*
X-120717000Y-66618831D01*
X-120717000Y-75670992D01*
X-120752440Y-75846000D01*
X-120752440Y-76327000D01*
X-121143000Y-76327000D01*
X-121143000Y-76037200D01*
X-121201004Y-75745595D01*
X-121366185Y-75498385D01*
X-123496600Y-73367970D01*
X-123496600Y-73292623D01*
X-123412303Y-73236297D01*
X-123230604Y-72964366D01*
X-123196092Y-72790860D01*
X-123123797Y-72616756D01*
X-123123403Y-72165225D01*
X-123295833Y-71747914D01*
X-123614835Y-71428355D01*
X-124031844Y-71255197D01*
X-124483375Y-71254803D01*
X-124900686Y-71427233D01*
X-125108683Y-71634867D01*
X-125314835Y-71428355D01*
X-125731844Y-71255197D01*
X-126183375Y-71254803D01*
X-126600686Y-71427233D01*
X-126920245Y-71746235D01*
X-127093403Y-72163244D01*
X-127093797Y-72614775D01*
X-126921367Y-73032086D01*
X-126720600Y-73233204D01*
X-126720600Y-75142400D01*
X-126662596Y-75434005D01*
X-126550936Y-75601115D01*
X-126497415Y-75681215D01*
X-124206000Y-77972631D01*
X-124206000Y-78729170D01*
X-125113985Y-77821185D01*
X-125131262Y-77809641D01*
X-125361195Y-77656004D01*
X-125652800Y-77598000D01*
X-127116182Y-77598000D01*
X-127205910Y-77458559D01*
X-127228600Y-77443056D01*
X-127228600Y-74676000D01*
X-127307872Y-74277473D01*
X-127533619Y-73939619D01*
X-128803619Y-72669619D01*
X-128898239Y-72606396D01*
X-129141473Y-72443872D01*
X-129540000Y-72364600D01*
X-133426638Y-72364600D01*
X-134086600Y-71704638D01*
X-134086600Y-63917204D01*
X-133946559Y-63827090D01*
X-133801569Y-63614890D01*
X-133750560Y-63363000D01*
X-133750560Y-62113000D01*
X-133794838Y-61877683D01*
X-133933910Y-61661559D01*
X-134086600Y-61557230D01*
X-134086600Y-61405426D01*
X-134042683Y-61397162D01*
X-133826559Y-61258090D01*
X-133681569Y-61045890D01*
X-133667914Y-60978459D01*
X-133638054Y-61023147D01*
G36*
X-152293000Y-77089000D02*
X-150221000Y-77089000D01*
X-150221000Y-77069000D01*
X-149967000Y-77069000D01*
X-149967000Y-77089000D01*
X-149947000Y-77089000D01*
X-149947000Y-77343000D01*
X-149967000Y-77343000D01*
X-149967000Y-77363000D01*
X-150221000Y-77363000D01*
X-150221000Y-77343000D01*
X-152293000Y-77343000D01*
X-152293000Y-77363000D01*
X-152547000Y-77363000D01*
X-152547000Y-77343000D01*
X-152567000Y-77343000D01*
X-152567000Y-77089000D01*
X-152547000Y-77089000D01*
X-152547000Y-77069000D01*
X-152293000Y-77069000D01*
X-152293000Y-77089000D01*
X-152293000Y-77089000D01*
G37*
X-152293000Y-77089000D02*
X-150221000Y-77089000D01*
X-150221000Y-77069000D01*
X-149967000Y-77069000D01*
X-149967000Y-77089000D01*
X-149947000Y-77089000D01*
X-149947000Y-77343000D01*
X-149967000Y-77343000D01*
X-149967000Y-77363000D01*
X-150221000Y-77363000D01*
X-150221000Y-77343000D01*
X-152293000Y-77343000D01*
X-152293000Y-77363000D01*
X-152547000Y-77363000D01*
X-152547000Y-77343000D01*
X-152567000Y-77343000D01*
X-152567000Y-77089000D01*
X-152547000Y-77089000D01*
X-152547000Y-77069000D01*
X-152293000Y-77069000D01*
X-152293000Y-77089000D01*
G36*
X-136581162Y-61029317D02*
X-136442090Y-61245441D01*
X-136229890Y-61390431D01*
X-136169400Y-61402681D01*
X-136169400Y-61533057D01*
X-136349441Y-61648910D01*
X-136395969Y-61717006D01*
X-136538302Y-61574673D01*
X-136771691Y-61478000D01*
X-137362250Y-61478000D01*
X-137521000Y-61636750D01*
X-137521000Y-62611000D01*
X-137501000Y-62611000D01*
X-137501000Y-62865000D01*
X-137521000Y-62865000D01*
X-137521000Y-63839250D01*
X-137362250Y-63998000D01*
X-136771691Y-63998000D01*
X-136538302Y-63901327D01*
X-136397064Y-63760090D01*
X-136362090Y-63814441D01*
X-136169400Y-63946100D01*
X-136169400Y-72136000D01*
X-136090128Y-72534527D01*
X-135898501Y-72821317D01*
X-135864381Y-72872381D01*
X-134594381Y-74142381D01*
X-134256527Y-74368128D01*
X-133858000Y-74447400D01*
X-133850426Y-74447400D01*
X-134005327Y-74602302D01*
X-134102000Y-74835691D01*
X-134102000Y-75426250D01*
X-133943250Y-75585000D01*
X-132969000Y-75585000D01*
X-132969000Y-75565000D01*
X-132715000Y-75565000D01*
X-132715000Y-75585000D01*
X-130937000Y-75585000D01*
X-130937000Y-75565000D01*
X-130683000Y-75565000D01*
X-130683000Y-75585000D01*
X-129708750Y-75585000D01*
X-129550000Y-75426250D01*
X-129550000Y-74868762D01*
X-129311400Y-75107362D01*
X-129311400Y-77170600D01*
X-129617926Y-77170600D01*
X-129720910Y-77010559D01*
X-129789006Y-76964031D01*
X-129646673Y-76821698D01*
X-129550000Y-76588309D01*
X-129550000Y-75997750D01*
X-129708750Y-75839000D01*
X-130683000Y-75839000D01*
X-130683000Y-75859000D01*
X-130937000Y-75859000D01*
X-130937000Y-75839000D01*
X-132715000Y-75839000D01*
X-132715000Y-75859000D01*
X-132969000Y-75859000D01*
X-132969000Y-75839000D01*
X-133943250Y-75839000D01*
X-134102000Y-75997750D01*
X-134102000Y-76464355D01*
X-134160221Y-76440179D01*
X-134569981Y-76439821D01*
X-134948686Y-76596299D01*
X-135035138Y-76682600D01*
X-137087848Y-76682600D01*
X-137642600Y-76127848D01*
X-137642600Y-66040000D01*
X-137702537Y-65738675D01*
X-137873224Y-65483224D01*
X-137981478Y-65410891D01*
X-139415185Y-63977185D01*
X-139441756Y-63959431D01*
X-139662395Y-63812004D01*
X-139954000Y-63754000D01*
X-146222338Y-63754000D01*
X-146240838Y-63655683D01*
X-146379910Y-63439559D01*
X-146592110Y-63294569D01*
X-146844000Y-63243560D01*
X-148344000Y-63243560D01*
X-148579317Y-63287838D01*
X-148795441Y-63426910D01*
X-148841969Y-63495006D01*
X-148984302Y-63352673D01*
X-149217691Y-63256000D01*
X-149808250Y-63256000D01*
X-149967000Y-63414750D01*
X-149967000Y-64389000D01*
X-149947000Y-64389000D01*
X-149947000Y-64643000D01*
X-149967000Y-64643000D01*
X-149967000Y-64663000D01*
X-150221000Y-64663000D01*
X-150221000Y-64643000D01*
X-152293000Y-64643000D01*
X-152293000Y-64663000D01*
X-152547000Y-64663000D01*
X-152547000Y-64643000D01*
X-152567000Y-64643000D01*
X-152567000Y-64389000D01*
X-152547000Y-64389000D01*
X-152547000Y-63414750D01*
X-152293000Y-63414750D01*
X-152293000Y-64389000D01*
X-150221000Y-64389000D01*
X-150221000Y-63414750D01*
X-150379750Y-63256000D01*
X-150970309Y-63256000D01*
X-151203698Y-63352673D01*
X-151257000Y-63405975D01*
X-151310302Y-63352673D01*
X-151543691Y-63256000D01*
X-152134250Y-63256000D01*
X-152293000Y-63414750D01*
X-152547000Y-63414750D01*
X-152705750Y-63256000D01*
X-153296309Y-63256000D01*
X-153529698Y-63352673D01*
X-153670936Y-63493910D01*
X-153705910Y-63439559D01*
X-153918110Y-63294569D01*
X-154170000Y-63243560D01*
X-155670000Y-63243560D01*
X-155905317Y-63287838D01*
X-156014524Y-63358111D01*
X-156144110Y-63269569D01*
X-156396000Y-63218560D01*
X-157896000Y-63218560D01*
X-158131317Y-63262838D01*
X-158347441Y-63401910D01*
X-158492431Y-63614110D01*
X-158495081Y-63627197D01*
X-158631910Y-63414559D01*
X-158844110Y-63269569D01*
X-159096000Y-63218560D01*
X-160596000Y-63218560D01*
X-160831317Y-63262838D01*
X-161047441Y-63401910D01*
X-161192431Y-63614110D01*
X-161215616Y-63728600D01*
X-161338527Y-63728600D01*
X-161411910Y-63614559D01*
X-161624110Y-63469569D01*
X-161876000Y-63418560D01*
X-163076000Y-63418560D01*
X-163311317Y-63462838D01*
X-163527441Y-63601910D01*
X-163575134Y-63671711D01*
X-163611910Y-63614559D01*
X-163824110Y-63469569D01*
X-164076000Y-63418560D01*
X-165276000Y-63418560D01*
X-165511317Y-63462838D01*
X-165727441Y-63601910D01*
X-165831360Y-63754000D01*
X-166368382Y-63754000D01*
X-166560853Y-63465946D01*
X-166602452Y-63438150D01*
X-166554683Y-63429162D01*
X-166338559Y-63290090D01*
X-166193569Y-63077890D01*
X-166181319Y-63017400D01*
X-165808638Y-63017400D01*
X-165786090Y-63052441D01*
X-165573890Y-63197431D01*
X-165322000Y-63248440D01*
X-163822000Y-63248440D01*
X-163586683Y-63204162D01*
X-163370559Y-63065090D01*
X-163324031Y-62996994D01*
X-163181698Y-63139327D01*
X-162948309Y-63236000D01*
X-162357750Y-63236000D01*
X-162199000Y-63077250D01*
X-162199000Y-62103000D01*
X-161945000Y-62103000D01*
X-161945000Y-63077250D01*
X-161786250Y-63236000D01*
X-161195691Y-63236000D01*
X-160962302Y-63139327D01*
X-160846725Y-63023750D01*
X-139033000Y-63023750D01*
X-139033000Y-63489310D01*
X-138936327Y-63722699D01*
X-138757698Y-63901327D01*
X-138524309Y-63998000D01*
X-137933750Y-63998000D01*
X-137775000Y-63839250D01*
X-137775000Y-62865000D01*
X-138874250Y-62865000D01*
X-139033000Y-63023750D01*
X-160846725Y-63023750D01*
X-160783673Y-62960699D01*
X-160687000Y-62727310D01*
X-160687000Y-62261750D01*
X-160845750Y-62103000D01*
X-161945000Y-62103000D01*
X-162199000Y-62103000D01*
X-162219000Y-62103000D01*
X-162219000Y-61986690D01*
X-139033000Y-61986690D01*
X-139033000Y-62452250D01*
X-138874250Y-62611000D01*
X-137775000Y-62611000D01*
X-137775000Y-61636750D01*
X-137933750Y-61478000D01*
X-138524309Y-61478000D01*
X-138757698Y-61574673D01*
X-138936327Y-61753301D01*
X-139033000Y-61986690D01*
X-162219000Y-61986690D01*
X-162219000Y-61849000D01*
X-162199000Y-61849000D01*
X-162199000Y-61829000D01*
X-161945000Y-61829000D01*
X-161945000Y-61849000D01*
X-160845750Y-61849000D01*
X-160687000Y-61690250D01*
X-160687000Y-61224690D01*
X-160783673Y-60991301D01*
X-160789574Y-60985400D01*
X-136589426Y-60985400D01*
X-136581162Y-61029317D01*
X-136581162Y-61029317D01*
G37*
X-136581162Y-61029317D02*
X-136442090Y-61245441D01*
X-136229890Y-61390431D01*
X-136169400Y-61402681D01*
X-136169400Y-61533057D01*
X-136349441Y-61648910D01*
X-136395969Y-61717006D01*
X-136538302Y-61574673D01*
X-136771691Y-61478000D01*
X-137362250Y-61478000D01*
X-137521000Y-61636750D01*
X-137521000Y-62611000D01*
X-137501000Y-62611000D01*
X-137501000Y-62865000D01*
X-137521000Y-62865000D01*
X-137521000Y-63839250D01*
X-137362250Y-63998000D01*
X-136771691Y-63998000D01*
X-136538302Y-63901327D01*
X-136397064Y-63760090D01*
X-136362090Y-63814441D01*
X-136169400Y-63946100D01*
X-136169400Y-72136000D01*
X-136090128Y-72534527D01*
X-135898501Y-72821317D01*
X-135864381Y-72872381D01*
X-134594381Y-74142381D01*
X-134256527Y-74368128D01*
X-133858000Y-74447400D01*
X-133850426Y-74447400D01*
X-134005327Y-74602302D01*
X-134102000Y-74835691D01*
X-134102000Y-75426250D01*
X-133943250Y-75585000D01*
X-132969000Y-75585000D01*
X-132969000Y-75565000D01*
X-132715000Y-75565000D01*
X-132715000Y-75585000D01*
X-130937000Y-75585000D01*
X-130937000Y-75565000D01*
X-130683000Y-75565000D01*
X-130683000Y-75585000D01*
X-129708750Y-75585000D01*
X-129550000Y-75426250D01*
X-129550000Y-74868762D01*
X-129311400Y-75107362D01*
X-129311400Y-77170600D01*
X-129617926Y-77170600D01*
X-129720910Y-77010559D01*
X-129789006Y-76964031D01*
X-129646673Y-76821698D01*
X-129550000Y-76588309D01*
X-129550000Y-75997750D01*
X-129708750Y-75839000D01*
X-130683000Y-75839000D01*
X-130683000Y-75859000D01*
X-130937000Y-75859000D01*
X-130937000Y-75839000D01*
X-132715000Y-75839000D01*
X-132715000Y-75859000D01*
X-132969000Y-75859000D01*
X-132969000Y-75839000D01*
X-133943250Y-75839000D01*
X-134102000Y-75997750D01*
X-134102000Y-76464355D01*
X-134160221Y-76440179D01*
X-134569981Y-76439821D01*
X-134948686Y-76596299D01*
X-135035138Y-76682600D01*
X-137087848Y-76682600D01*
X-137642600Y-76127848D01*
X-137642600Y-66040000D01*
X-137702537Y-65738675D01*
X-137873224Y-65483224D01*
X-137981478Y-65410891D01*
X-139415185Y-63977185D01*
X-139441756Y-63959431D01*
X-139662395Y-63812004D01*
X-139954000Y-63754000D01*
X-146222338Y-63754000D01*
X-146240838Y-63655683D01*
X-146379910Y-63439559D01*
X-146592110Y-63294569D01*
X-146844000Y-63243560D01*
X-148344000Y-63243560D01*
X-148579317Y-63287838D01*
X-148795441Y-63426910D01*
X-148841969Y-63495006D01*
X-148984302Y-63352673D01*
X-149217691Y-63256000D01*
X-149808250Y-63256000D01*
X-149967000Y-63414750D01*
X-149967000Y-64389000D01*
X-149947000Y-64389000D01*
X-149947000Y-64643000D01*
X-149967000Y-64643000D01*
X-149967000Y-64663000D01*
X-150221000Y-64663000D01*
X-150221000Y-64643000D01*
X-152293000Y-64643000D01*
X-152293000Y-64663000D01*
X-152547000Y-64663000D01*
X-152547000Y-64643000D01*
X-152567000Y-64643000D01*
X-152567000Y-64389000D01*
X-152547000Y-64389000D01*
X-152547000Y-63414750D01*
X-152293000Y-63414750D01*
X-152293000Y-64389000D01*
X-150221000Y-64389000D01*
X-150221000Y-63414750D01*
X-150379750Y-63256000D01*
X-150970309Y-63256000D01*
X-151203698Y-63352673D01*
X-151257000Y-63405975D01*
X-151310302Y-63352673D01*
X-151543691Y-63256000D01*
X-152134250Y-63256000D01*
X-152293000Y-63414750D01*
X-152547000Y-63414750D01*
X-152705750Y-63256000D01*
X-153296309Y-63256000D01*
X-153529698Y-63352673D01*
X-153670936Y-63493910D01*
X-153705910Y-63439559D01*
X-153918110Y-63294569D01*
X-154170000Y-63243560D01*
X-155670000Y-63243560D01*
X-155905317Y-63287838D01*
X-156014524Y-63358111D01*
X-156144110Y-63269569D01*
X-156396000Y-63218560D01*
X-157896000Y-63218560D01*
X-158131317Y-63262838D01*
X-158347441Y-63401910D01*
X-158492431Y-63614110D01*
X-158495081Y-63627197D01*
X-158631910Y-63414559D01*
X-158844110Y-63269569D01*
X-159096000Y-63218560D01*
X-160596000Y-63218560D01*
X-160831317Y-63262838D01*
X-161047441Y-63401910D01*
X-161192431Y-63614110D01*
X-161215616Y-63728600D01*
X-161338527Y-63728600D01*
X-161411910Y-63614559D01*
X-161624110Y-63469569D01*
X-161876000Y-63418560D01*
X-163076000Y-63418560D01*
X-163311317Y-63462838D01*
X-163527441Y-63601910D01*
X-163575134Y-63671711D01*
X-163611910Y-63614559D01*
X-163824110Y-63469569D01*
X-164076000Y-63418560D01*
X-165276000Y-63418560D01*
X-165511317Y-63462838D01*
X-165727441Y-63601910D01*
X-165831360Y-63754000D01*
X-166368382Y-63754000D01*
X-166560853Y-63465946D01*
X-166602452Y-63438150D01*
X-166554683Y-63429162D01*
X-166338559Y-63290090D01*
X-166193569Y-63077890D01*
X-166181319Y-63017400D01*
X-165808638Y-63017400D01*
X-165786090Y-63052441D01*
X-165573890Y-63197431D01*
X-165322000Y-63248440D01*
X-163822000Y-63248440D01*
X-163586683Y-63204162D01*
X-163370559Y-63065090D01*
X-163324031Y-62996994D01*
X-163181698Y-63139327D01*
X-162948309Y-63236000D01*
X-162357750Y-63236000D01*
X-162199000Y-63077250D01*
X-162199000Y-62103000D01*
X-161945000Y-62103000D01*
X-161945000Y-63077250D01*
X-161786250Y-63236000D01*
X-161195691Y-63236000D01*
X-160962302Y-63139327D01*
X-160846725Y-63023750D01*
X-139033000Y-63023750D01*
X-139033000Y-63489310D01*
X-138936327Y-63722699D01*
X-138757698Y-63901327D01*
X-138524309Y-63998000D01*
X-137933750Y-63998000D01*
X-137775000Y-63839250D01*
X-137775000Y-62865000D01*
X-138874250Y-62865000D01*
X-139033000Y-63023750D01*
X-160846725Y-63023750D01*
X-160783673Y-62960699D01*
X-160687000Y-62727310D01*
X-160687000Y-62261750D01*
X-160845750Y-62103000D01*
X-161945000Y-62103000D01*
X-162199000Y-62103000D01*
X-162219000Y-62103000D01*
X-162219000Y-61986690D01*
X-139033000Y-61986690D01*
X-139033000Y-62452250D01*
X-138874250Y-62611000D01*
X-137775000Y-62611000D01*
X-137775000Y-61636750D01*
X-137933750Y-61478000D01*
X-138524309Y-61478000D01*
X-138757698Y-61574673D01*
X-138936327Y-61753301D01*
X-139033000Y-61986690D01*
X-162219000Y-61986690D01*
X-162219000Y-61849000D01*
X-162199000Y-61849000D01*
X-162199000Y-61829000D01*
X-161945000Y-61829000D01*
X-161945000Y-61849000D01*
X-160845750Y-61849000D01*
X-160687000Y-61690250D01*
X-160687000Y-61224690D01*
X-160783673Y-60991301D01*
X-160789574Y-60985400D01*
X-136589426Y-60985400D01*
X-136581162Y-61029317D01*
G36*
X-92900428Y-61929000D02*
X-90487571Y-61929000D01*
X-90487571Y-58114000D01*
X-88594000Y-58114000D01*
X-88594000Y-72331042D01*
X-88678344Y-72126914D01*
X-89095717Y-71708812D01*
X-89641319Y-71482258D01*
X-90232089Y-71481743D01*
X-90778086Y-71707344D01*
X-91196188Y-72124717D01*
X-91218977Y-72179600D01*
X-91896600Y-72179600D01*
X-91896600Y-69749000D01*
X-91975872Y-69350473D01*
X-92201619Y-69012619D01*
X-92608619Y-68605619D01*
X-92692504Y-68549569D01*
X-92946473Y-68379872D01*
X-93127426Y-68343878D01*
X-93193910Y-68240559D01*
X-93320502Y-68154062D01*
X-93306559Y-68145090D01*
X-93161569Y-67932890D01*
X-93110560Y-67681000D01*
X-93110560Y-66431000D01*
X-93154838Y-66195683D01*
X-93293910Y-65979559D01*
X-93506110Y-65834569D01*
X-93758000Y-65783560D01*
X-95258000Y-65783560D01*
X-95493317Y-65827838D01*
X-95709441Y-65966910D01*
X-95755969Y-66035006D01*
X-95898302Y-65892673D01*
X-96131691Y-65796000D01*
X-96722250Y-65796000D01*
X-96881000Y-65954750D01*
X-96881000Y-66929000D01*
X-96861000Y-66929000D01*
X-96861000Y-67183000D01*
X-96881000Y-67183000D01*
X-96881000Y-68115750D01*
X-96981000Y-68215750D01*
X-96981000Y-69215000D01*
X-96961000Y-69215000D01*
X-96961000Y-69469000D01*
X-96981000Y-69469000D01*
X-96981000Y-70459750D01*
X-97048000Y-70526750D01*
X-97048000Y-71501000D01*
X-95948750Y-71501000D01*
X-95790000Y-71342250D01*
X-95790000Y-70876690D01*
X-95886673Y-70643301D01*
X-95999254Y-70530721D01*
X-95998302Y-70530327D01*
X-95819673Y-70351699D01*
X-95763346Y-70215713D01*
X-95761162Y-70227317D01*
X-95622090Y-70443441D01*
X-95409890Y-70588431D01*
X-95158000Y-70639440D01*
X-93979400Y-70639440D01*
X-93979400Y-72413272D01*
X-94003056Y-72429078D01*
X-94259931Y-72813520D01*
X-94350134Y-73267000D01*
X-94259931Y-73720480D01*
X-94179728Y-73840512D01*
X-94273000Y-74065690D01*
X-94273000Y-74133250D01*
X-94114250Y-74292000D01*
X-93955933Y-74292000D01*
X-94089441Y-74377910D01*
X-94234431Y-74590110D01*
X-94240035Y-74617785D01*
X-94273000Y-74650750D01*
X-94273000Y-74718310D01*
X-94264532Y-74738753D01*
X-94285440Y-74842000D01*
X-94285440Y-74930900D01*
X-94843600Y-74930900D01*
X-94843600Y-74881198D01*
X-94883650Y-74881198D01*
X-94843600Y-74784510D01*
X-94843600Y-74531890D01*
X-94940273Y-74298501D01*
X-95057575Y-74181200D01*
X-95002350Y-74181200D01*
X-94843600Y-74022450D01*
X-94843600Y-73831890D01*
X-94940273Y-73598501D01*
X-95118902Y-73419873D01*
X-95352291Y-73323200D01*
X-95692850Y-73323200D01*
X-95851600Y-73481950D01*
X-95851600Y-74181200D01*
X-95850850Y-74181200D01*
X-95851600Y-74181950D01*
X-95851600Y-74455200D01*
X-96105600Y-74455200D01*
X-96105600Y-74181950D01*
X-96106350Y-74181200D01*
X-96105600Y-74181200D01*
X-96105600Y-73481950D01*
X-96264350Y-73323200D01*
X-96604909Y-73323200D01*
X-96838298Y-73419873D01*
X-96920852Y-73502426D01*
X-97126710Y-73361769D01*
X-97378600Y-73310760D01*
X-97978600Y-73310760D01*
X-98213917Y-73355038D01*
X-98430041Y-73494110D01*
X-98529503Y-73639677D01*
X-98605510Y-73521559D01*
X-98628200Y-73506056D01*
X-98628200Y-72816599D01*
X-98473559Y-72717090D01*
X-98427031Y-72648994D01*
X-98284698Y-72791327D01*
X-98051309Y-72888000D01*
X-97460750Y-72888000D01*
X-97302000Y-72729250D01*
X-97302000Y-71755000D01*
X-97048000Y-71755000D01*
X-97048000Y-72729250D01*
X-96889250Y-72888000D01*
X-96298691Y-72888000D01*
X-96065302Y-72791327D01*
X-95886673Y-72612699D01*
X-95790000Y-72379310D01*
X-95790000Y-71913750D01*
X-95948750Y-71755000D01*
X-97048000Y-71755000D01*
X-97302000Y-71755000D01*
X-97322000Y-71755000D01*
X-97322000Y-71501000D01*
X-97302000Y-71501000D01*
X-97302000Y-70535250D01*
X-97235000Y-70468250D01*
X-97235000Y-69469000D01*
X-98334250Y-69469000D01*
X-98493000Y-69627750D01*
X-98493000Y-70118310D01*
X-98396327Y-70351699D01*
X-98283746Y-70464279D01*
X-98284698Y-70464673D01*
X-98425936Y-70605910D01*
X-98460910Y-70551559D01*
X-98633600Y-70433565D01*
X-98633600Y-68565690D01*
X-98493000Y-68565690D01*
X-98493000Y-69056250D01*
X-98334250Y-69215000D01*
X-97235000Y-69215000D01*
X-97235000Y-68257250D01*
X-97135000Y-68157250D01*
X-97135000Y-67183000D01*
X-98234250Y-67183000D01*
X-98393000Y-67341750D01*
X-98393000Y-67807310D01*
X-98296327Y-68040699D01*
X-98193412Y-68143613D01*
X-98217698Y-68153673D01*
X-98396327Y-68332301D01*
X-98493000Y-68565690D01*
X-98633600Y-68565690D01*
X-98633600Y-66304690D01*
X-98393000Y-66304690D01*
X-98393000Y-66770250D01*
X-98234250Y-66929000D01*
X-97135000Y-66929000D01*
X-97135000Y-65954750D01*
X-97293750Y-65796000D01*
X-97884309Y-65796000D01*
X-98117698Y-65892673D01*
X-98296327Y-66071301D01*
X-98393000Y-66304690D01*
X-98633600Y-66304690D01*
X-98633600Y-66051033D01*
X-98598560Y-65878000D01*
X-98598560Y-64678000D01*
X-98642838Y-64442683D01*
X-98781910Y-64226559D01*
X-98806000Y-64210099D01*
X-98806000Y-64135000D01*
X-98814685Y-64088841D01*
X-98841965Y-64046447D01*
X-98883590Y-64018006D01*
X-98933000Y-64008000D01*
X-101955600Y-64008000D01*
X-101955600Y-61405426D01*
X-101911683Y-61397162D01*
X-101695559Y-61258090D01*
X-101550569Y-61045890D01*
X-101528699Y-60937893D01*
X-101223924Y-61215645D01*
X-100813890Y-61385476D01*
X-100584000Y-61264155D01*
X-100584000Y-60071000D01*
X-100330000Y-60071000D01*
X-100330000Y-61264155D01*
X-100100110Y-61385476D01*
X-99690076Y-61215645D01*
X-99261817Y-60825358D01*
X-99015514Y-60300892D01*
X-99136181Y-60071000D01*
X-100330000Y-60071000D01*
X-100584000Y-60071000D01*
X-100604000Y-60071000D01*
X-100604000Y-59817000D01*
X-100584000Y-59817000D01*
X-100584000Y-58623845D01*
X-100330000Y-58623845D01*
X-100330000Y-59817000D01*
X-99136181Y-59817000D01*
X-99015514Y-59587108D01*
X-99261817Y-59062642D01*
X-99690076Y-58672355D01*
X-100100110Y-58502524D01*
X-100330000Y-58623845D01*
X-100584000Y-58623845D01*
X-100813890Y-58502524D01*
X-101223924Y-58672355D01*
X-101526937Y-58948501D01*
X-101543838Y-58858683D01*
X-101682910Y-58642559D01*
X-101895110Y-58497569D01*
X-102147000Y-58446560D01*
X-103679714Y-58446560D01*
X-103679714Y-58114000D01*
X-92900428Y-58114000D01*
X-92900428Y-61929000D01*
X-92900428Y-61929000D01*
G37*
X-92900428Y-61929000D02*
X-90487571Y-61929000D01*
X-90487571Y-58114000D01*
X-88594000Y-58114000D01*
X-88594000Y-72331042D01*
X-88678344Y-72126914D01*
X-89095717Y-71708812D01*
X-89641319Y-71482258D01*
X-90232089Y-71481743D01*
X-90778086Y-71707344D01*
X-91196188Y-72124717D01*
X-91218977Y-72179600D01*
X-91896600Y-72179600D01*
X-91896600Y-69749000D01*
X-91975872Y-69350473D01*
X-92201619Y-69012619D01*
X-92608619Y-68605619D01*
X-92692504Y-68549569D01*
X-92946473Y-68379872D01*
X-93127426Y-68343878D01*
X-93193910Y-68240559D01*
X-93320502Y-68154062D01*
X-93306559Y-68145090D01*
X-93161569Y-67932890D01*
X-93110560Y-67681000D01*
X-93110560Y-66431000D01*
X-93154838Y-66195683D01*
X-93293910Y-65979559D01*
X-93506110Y-65834569D01*
X-93758000Y-65783560D01*
X-95258000Y-65783560D01*
X-95493317Y-65827838D01*
X-95709441Y-65966910D01*
X-95755969Y-66035006D01*
X-95898302Y-65892673D01*
X-96131691Y-65796000D01*
X-96722250Y-65796000D01*
X-96881000Y-65954750D01*
X-96881000Y-66929000D01*
X-96861000Y-66929000D01*
X-96861000Y-67183000D01*
X-96881000Y-67183000D01*
X-96881000Y-68115750D01*
X-96981000Y-68215750D01*
X-96981000Y-69215000D01*
X-96961000Y-69215000D01*
X-96961000Y-69469000D01*
X-96981000Y-69469000D01*
X-96981000Y-70459750D01*
X-97048000Y-70526750D01*
X-97048000Y-71501000D01*
X-95948750Y-71501000D01*
X-95790000Y-71342250D01*
X-95790000Y-70876690D01*
X-95886673Y-70643301D01*
X-95999254Y-70530721D01*
X-95998302Y-70530327D01*
X-95819673Y-70351699D01*
X-95763346Y-70215713D01*
X-95761162Y-70227317D01*
X-95622090Y-70443441D01*
X-95409890Y-70588431D01*
X-95158000Y-70639440D01*
X-93979400Y-70639440D01*
X-93979400Y-72413272D01*
X-94003056Y-72429078D01*
X-94259931Y-72813520D01*
X-94350134Y-73267000D01*
X-94259931Y-73720480D01*
X-94179728Y-73840512D01*
X-94273000Y-74065690D01*
X-94273000Y-74133250D01*
X-94114250Y-74292000D01*
X-93955933Y-74292000D01*
X-94089441Y-74377910D01*
X-94234431Y-74590110D01*
X-94240035Y-74617785D01*
X-94273000Y-74650750D01*
X-94273000Y-74718310D01*
X-94264532Y-74738753D01*
X-94285440Y-74842000D01*
X-94285440Y-74930900D01*
X-94843600Y-74930900D01*
X-94843600Y-74881198D01*
X-94883650Y-74881198D01*
X-94843600Y-74784510D01*
X-94843600Y-74531890D01*
X-94940273Y-74298501D01*
X-95057575Y-74181200D01*
X-95002350Y-74181200D01*
X-94843600Y-74022450D01*
X-94843600Y-73831890D01*
X-94940273Y-73598501D01*
X-95118902Y-73419873D01*
X-95352291Y-73323200D01*
X-95692850Y-73323200D01*
X-95851600Y-73481950D01*
X-95851600Y-74181200D01*
X-95850850Y-74181200D01*
X-95851600Y-74181950D01*
X-95851600Y-74455200D01*
X-96105600Y-74455200D01*
X-96105600Y-74181950D01*
X-96106350Y-74181200D01*
X-96105600Y-74181200D01*
X-96105600Y-73481950D01*
X-96264350Y-73323200D01*
X-96604909Y-73323200D01*
X-96838298Y-73419873D01*
X-96920852Y-73502426D01*
X-97126710Y-73361769D01*
X-97378600Y-73310760D01*
X-97978600Y-73310760D01*
X-98213917Y-73355038D01*
X-98430041Y-73494110D01*
X-98529503Y-73639677D01*
X-98605510Y-73521559D01*
X-98628200Y-73506056D01*
X-98628200Y-72816599D01*
X-98473559Y-72717090D01*
X-98427031Y-72648994D01*
X-98284698Y-72791327D01*
X-98051309Y-72888000D01*
X-97460750Y-72888000D01*
X-97302000Y-72729250D01*
X-97302000Y-71755000D01*
X-97048000Y-71755000D01*
X-97048000Y-72729250D01*
X-96889250Y-72888000D01*
X-96298691Y-72888000D01*
X-96065302Y-72791327D01*
X-95886673Y-72612699D01*
X-95790000Y-72379310D01*
X-95790000Y-71913750D01*
X-95948750Y-71755000D01*
X-97048000Y-71755000D01*
X-97302000Y-71755000D01*
X-97322000Y-71755000D01*
X-97322000Y-71501000D01*
X-97302000Y-71501000D01*
X-97302000Y-70535250D01*
X-97235000Y-70468250D01*
X-97235000Y-69469000D01*
X-98334250Y-69469000D01*
X-98493000Y-69627750D01*
X-98493000Y-70118310D01*
X-98396327Y-70351699D01*
X-98283746Y-70464279D01*
X-98284698Y-70464673D01*
X-98425936Y-70605910D01*
X-98460910Y-70551559D01*
X-98633600Y-70433565D01*
X-98633600Y-68565690D01*
X-98493000Y-68565690D01*
X-98493000Y-69056250D01*
X-98334250Y-69215000D01*
X-97235000Y-69215000D01*
X-97235000Y-68257250D01*
X-97135000Y-68157250D01*
X-97135000Y-67183000D01*
X-98234250Y-67183000D01*
X-98393000Y-67341750D01*
X-98393000Y-67807310D01*
X-98296327Y-68040699D01*
X-98193412Y-68143613D01*
X-98217698Y-68153673D01*
X-98396327Y-68332301D01*
X-98493000Y-68565690D01*
X-98633600Y-68565690D01*
X-98633600Y-66304690D01*
X-98393000Y-66304690D01*
X-98393000Y-66770250D01*
X-98234250Y-66929000D01*
X-97135000Y-66929000D01*
X-97135000Y-65954750D01*
X-97293750Y-65796000D01*
X-97884309Y-65796000D01*
X-98117698Y-65892673D01*
X-98296327Y-66071301D01*
X-98393000Y-66304690D01*
X-98633600Y-66304690D01*
X-98633600Y-66051033D01*
X-98598560Y-65878000D01*
X-98598560Y-64678000D01*
X-98642838Y-64442683D01*
X-98781910Y-64226559D01*
X-98806000Y-64210099D01*
X-98806000Y-64135000D01*
X-98814685Y-64088841D01*
X-98841965Y-64046447D01*
X-98883590Y-64018006D01*
X-98933000Y-64008000D01*
X-101955600Y-64008000D01*
X-101955600Y-61405426D01*
X-101911683Y-61397162D01*
X-101695559Y-61258090D01*
X-101550569Y-61045890D01*
X-101528699Y-60937893D01*
X-101223924Y-61215645D01*
X-100813890Y-61385476D01*
X-100584000Y-61264155D01*
X-100584000Y-60071000D01*
X-100330000Y-60071000D01*
X-100330000Y-61264155D01*
X-100100110Y-61385476D01*
X-99690076Y-61215645D01*
X-99261817Y-60825358D01*
X-99015514Y-60300892D01*
X-99136181Y-60071000D01*
X-100330000Y-60071000D01*
X-100584000Y-60071000D01*
X-100604000Y-60071000D01*
X-100604000Y-59817000D01*
X-100584000Y-59817000D01*
X-100584000Y-58623845D01*
X-100330000Y-58623845D01*
X-100330000Y-59817000D01*
X-99136181Y-59817000D01*
X-99015514Y-59587108D01*
X-99261817Y-59062642D01*
X-99690076Y-58672355D01*
X-100100110Y-58502524D01*
X-100330000Y-58623845D01*
X-100584000Y-58623845D01*
X-100813890Y-58502524D01*
X-101223924Y-58672355D01*
X-101526937Y-58948501D01*
X-101543838Y-58858683D01*
X-101682910Y-58642559D01*
X-101895110Y-58497569D01*
X-102147000Y-58446560D01*
X-103679714Y-58446560D01*
X-103679714Y-58114000D01*
X-92900428Y-58114000D01*
X-92900428Y-61929000D01*
G36*
X-152293000Y-74549000D02*
X-150221000Y-74549000D01*
X-150221000Y-74529000D01*
X-149967000Y-74529000D01*
X-149967000Y-74549000D01*
X-149947000Y-74549000D01*
X-149947000Y-74803000D01*
X-149967000Y-74803000D01*
X-149967000Y-74823000D01*
X-150221000Y-74823000D01*
X-150221000Y-74803000D01*
X-152293000Y-74803000D01*
X-152293000Y-74823000D01*
X-152547000Y-74823000D01*
X-152547000Y-74803000D01*
X-152567000Y-74803000D01*
X-152567000Y-74549000D01*
X-152547000Y-74549000D01*
X-152547000Y-74529000D01*
X-152293000Y-74529000D01*
X-152293000Y-74549000D01*
X-152293000Y-74549000D01*
G37*
X-152293000Y-74549000D02*
X-150221000Y-74549000D01*
X-150221000Y-74529000D01*
X-149967000Y-74529000D01*
X-149967000Y-74549000D01*
X-149947000Y-74549000D01*
X-149947000Y-74803000D01*
X-149967000Y-74803000D01*
X-149967000Y-74823000D01*
X-150221000Y-74823000D01*
X-150221000Y-74803000D01*
X-152293000Y-74803000D01*
X-152293000Y-74823000D01*
X-152547000Y-74823000D01*
X-152547000Y-74803000D01*
X-152567000Y-74803000D01*
X-152567000Y-74549000D01*
X-152547000Y-74549000D01*
X-152547000Y-74529000D01*
X-152293000Y-74529000D01*
X-152293000Y-74549000D01*
G36*
X-152293000Y-72009000D02*
X-150221000Y-72009000D01*
X-150221000Y-71989000D01*
X-149967000Y-71989000D01*
X-149967000Y-72009000D01*
X-149947000Y-72009000D01*
X-149947000Y-72263000D01*
X-149967000Y-72263000D01*
X-149967000Y-72283000D01*
X-150221000Y-72283000D01*
X-150221000Y-72263000D01*
X-152293000Y-72263000D01*
X-152293000Y-72283000D01*
X-152547000Y-72283000D01*
X-152547000Y-72263000D01*
X-152567000Y-72263000D01*
X-152567000Y-72009000D01*
X-152547000Y-72009000D01*
X-152547000Y-71989000D01*
X-152293000Y-71989000D01*
X-152293000Y-72009000D01*
X-152293000Y-72009000D01*
G37*
X-152293000Y-72009000D02*
X-150221000Y-72009000D01*
X-150221000Y-71989000D01*
X-149967000Y-71989000D01*
X-149967000Y-72009000D01*
X-149947000Y-72009000D01*
X-149947000Y-72263000D01*
X-149967000Y-72263000D01*
X-149967000Y-72283000D01*
X-150221000Y-72283000D01*
X-150221000Y-72263000D01*
X-152293000Y-72263000D01*
X-152293000Y-72283000D01*
X-152547000Y-72283000D01*
X-152547000Y-72263000D01*
X-152567000Y-72263000D01*
X-152567000Y-72009000D01*
X-152547000Y-72009000D01*
X-152547000Y-71989000D01*
X-152293000Y-71989000D01*
X-152293000Y-72009000D01*
G36*
X-110778054Y-61023147D02*
X-110515400Y-61198646D01*
X-110515400Y-71936848D01*
X-110649000Y-72070448D01*
X-110649000Y-71659750D01*
X-110807750Y-71501000D01*
X-111907000Y-71501000D01*
X-111907000Y-71521000D01*
X-112161000Y-71521000D01*
X-112161000Y-71501000D01*
X-112181000Y-71501000D01*
X-112181000Y-71247000D01*
X-112161000Y-71247000D01*
X-112161000Y-69596000D01*
X-111907000Y-69596000D01*
X-111907000Y-71247000D01*
X-110807750Y-71247000D01*
X-110649000Y-71088250D01*
X-110649000Y-70622690D01*
X-110732336Y-70421500D01*
X-110649000Y-70220310D01*
X-110649000Y-69754750D01*
X-110807750Y-69596000D01*
X-111907000Y-69596000D01*
X-112161000Y-69596000D01*
X-112181000Y-69596000D01*
X-112181000Y-69342000D01*
X-112161000Y-69342000D01*
X-112161000Y-69322000D01*
X-111907000Y-69322000D01*
X-111907000Y-69342000D01*
X-110807750Y-69342000D01*
X-110649000Y-69183250D01*
X-110649000Y-68717690D01*
X-110745673Y-68484301D01*
X-110924302Y-68305673D01*
X-111157691Y-68209000D01*
X-111748250Y-68209000D01*
X-111906998Y-68367748D01*
X-111906998Y-68316550D01*
X-111377224Y-67786776D01*
X-111246705Y-67591440D01*
X-111184000Y-67591440D01*
X-110948683Y-67547162D01*
X-110732559Y-67408090D01*
X-110587569Y-67195890D01*
X-110536560Y-66944000D01*
X-110536560Y-65644000D01*
X-110580838Y-65408683D01*
X-110719910Y-65192559D01*
X-110932110Y-65047569D01*
X-111184000Y-64996560D01*
X-112684000Y-64996560D01*
X-112919317Y-65040838D01*
X-113135441Y-65179910D01*
X-113280431Y-65392110D01*
X-113283081Y-65405197D01*
X-113419910Y-65192559D01*
X-113632110Y-65047569D01*
X-113846600Y-65004134D01*
X-113846600Y-64922152D01*
X-111711224Y-62786776D01*
X-111540537Y-62531325D01*
X-111480600Y-62230000D01*
X-111480600Y-61198646D01*
X-111217946Y-61023147D01*
X-110998000Y-60693974D01*
X-110778054Y-61023147D01*
X-110778054Y-61023147D01*
G37*
X-110778054Y-61023147D02*
X-110515400Y-61198646D01*
X-110515400Y-71936848D01*
X-110649000Y-72070448D01*
X-110649000Y-71659750D01*
X-110807750Y-71501000D01*
X-111907000Y-71501000D01*
X-111907000Y-71521000D01*
X-112161000Y-71521000D01*
X-112161000Y-71501000D01*
X-112181000Y-71501000D01*
X-112181000Y-71247000D01*
X-112161000Y-71247000D01*
X-112161000Y-69596000D01*
X-111907000Y-69596000D01*
X-111907000Y-71247000D01*
X-110807750Y-71247000D01*
X-110649000Y-71088250D01*
X-110649000Y-70622690D01*
X-110732336Y-70421500D01*
X-110649000Y-70220310D01*
X-110649000Y-69754750D01*
X-110807750Y-69596000D01*
X-111907000Y-69596000D01*
X-112161000Y-69596000D01*
X-112181000Y-69596000D01*
X-112181000Y-69342000D01*
X-112161000Y-69342000D01*
X-112161000Y-69322000D01*
X-111907000Y-69322000D01*
X-111907000Y-69342000D01*
X-110807750Y-69342000D01*
X-110649000Y-69183250D01*
X-110649000Y-68717690D01*
X-110745673Y-68484301D01*
X-110924302Y-68305673D01*
X-111157691Y-68209000D01*
X-111748250Y-68209000D01*
X-111906998Y-68367748D01*
X-111906998Y-68316550D01*
X-111377224Y-67786776D01*
X-111246705Y-67591440D01*
X-111184000Y-67591440D01*
X-110948683Y-67547162D01*
X-110732559Y-67408090D01*
X-110587569Y-67195890D01*
X-110536560Y-66944000D01*
X-110536560Y-65644000D01*
X-110580838Y-65408683D01*
X-110719910Y-65192559D01*
X-110932110Y-65047569D01*
X-111184000Y-64996560D01*
X-112684000Y-64996560D01*
X-112919317Y-65040838D01*
X-113135441Y-65179910D01*
X-113280431Y-65392110D01*
X-113283081Y-65405197D01*
X-113419910Y-65192559D01*
X-113632110Y-65047569D01*
X-113846600Y-65004134D01*
X-113846600Y-64922152D01*
X-111711224Y-62786776D01*
X-111540537Y-62531325D01*
X-111480600Y-62230000D01*
X-111480600Y-61198646D01*
X-111217946Y-61023147D01*
X-110998000Y-60693974D01*
X-110778054Y-61023147D01*
G36*
X-152293000Y-69469000D02*
X-150221000Y-69469000D01*
X-150221000Y-69449000D01*
X-149967000Y-69449000D01*
X-149967000Y-69469000D01*
X-149947000Y-69469000D01*
X-149947000Y-69723000D01*
X-149967000Y-69723000D01*
X-149967000Y-69743000D01*
X-150221000Y-69743000D01*
X-150221000Y-69723000D01*
X-152293000Y-69723000D01*
X-152293000Y-69743000D01*
X-152547000Y-69743000D01*
X-152547000Y-69723000D01*
X-152567000Y-69723000D01*
X-152567000Y-69469000D01*
X-152547000Y-69469000D01*
X-152547000Y-69449000D01*
X-152293000Y-69449000D01*
X-152293000Y-69469000D01*
X-152293000Y-69469000D01*
G37*
X-152293000Y-69469000D02*
X-150221000Y-69469000D01*
X-150221000Y-69449000D01*
X-149967000Y-69449000D01*
X-149967000Y-69469000D01*
X-149947000Y-69469000D01*
X-149947000Y-69723000D01*
X-149967000Y-69723000D01*
X-149967000Y-69743000D01*
X-150221000Y-69743000D01*
X-150221000Y-69723000D01*
X-152293000Y-69723000D01*
X-152293000Y-69743000D01*
X-152547000Y-69743000D01*
X-152547000Y-69723000D01*
X-152567000Y-69723000D01*
X-152567000Y-69469000D01*
X-152547000Y-69469000D01*
X-152547000Y-69449000D01*
X-152293000Y-69449000D01*
X-152293000Y-69469000D01*
G36*
X-152293000Y-66929000D02*
X-150221000Y-66929000D01*
X-150221000Y-66909000D01*
X-149967000Y-66909000D01*
X-149967000Y-66929000D01*
X-149947000Y-66929000D01*
X-149947000Y-67183000D01*
X-149967000Y-67183000D01*
X-149967000Y-67203000D01*
X-150221000Y-67203000D01*
X-150221000Y-67183000D01*
X-152293000Y-67183000D01*
X-152293000Y-67203000D01*
X-152547000Y-67203000D01*
X-152547000Y-67183000D01*
X-152567000Y-67183000D01*
X-152567000Y-66929000D01*
X-152547000Y-66929000D01*
X-152547000Y-66909000D01*
X-152293000Y-66909000D01*
X-152293000Y-66929000D01*
X-152293000Y-66929000D01*
G37*
X-152293000Y-66929000D02*
X-150221000Y-66929000D01*
X-150221000Y-66909000D01*
X-149967000Y-66909000D01*
X-149967000Y-66929000D01*
X-149947000Y-66929000D01*
X-149947000Y-67183000D01*
X-149967000Y-67183000D01*
X-149967000Y-67203000D01*
X-150221000Y-67203000D01*
X-150221000Y-67183000D01*
X-152293000Y-67183000D01*
X-152293000Y-67203000D01*
X-152547000Y-67203000D01*
X-152547000Y-67183000D01*
X-152567000Y-67183000D01*
X-152567000Y-66929000D01*
X-152547000Y-66929000D01*
X-152547000Y-66909000D01*
X-152293000Y-66909000D01*
X-152293000Y-66929000D01*
M02*
